<?xml version="1.0" standalone="no"?>
<!DOCTYPE svg PUBLIC "-//W3C//DTD SVG 20010904//EN"
 "http://www.w3.org/TR/2001/REC-SVG-20010904/DTD/svg10.dtd">
<svg version="1.0" xmlns="http://www.w3.org/2000/svg"
 width="988.000000pt" height="1000.000000pt" viewBox="0 0 988.000000 1000.000000"
 preserveAspectRatio="xMidYMid meet">

<g transform="translate(0.000000,1000.000000) scale(0.100000,-0.100000)"
fill="#000000" stroke="none">
<path d="M4398 9863 c-21 -2 -38 -8 -38 -13 0 -4 -41 -10 -90 -12 -53 -2 -94
-8 -98 -14 -4 -7 -43 -13 -91 -16 -55 -2 -86 -8 -89 -16 -2 -7 -24 -12 -55
-12 -29 -1 -63 -7 -77 -15 -14 -8 -39 -14 -56 -15 -53 0 -94 -12 -94 -26 0
-10 -14 -14 -49 -14 -31 0 -55 -6 -65 -15 -8 -8 -32 -15 -56 -15 -27 0 -43 -5
-46 -15 -4 -10 -20 -15 -45 -15 -26 0 -42 -5 -45 -15 -4 -10 -20 -15 -45 -15
-26 0 -42 -5 -45 -15 -4 -9 -19 -15 -39 -15 -19 0 -40 -7 -49 -15 -8 -8 -26
-15 -40 -15 -14 0 -29 -6 -33 -13 -4 -8 -26 -17 -47 -20 -22 -4 -42 -10 -45
-15 -3 -5 -18 -12 -33 -16 -16 -3 -28 -13 -28 -21 0 -9 -9 -15 -23 -15 -13 0
-50 -13 -82 -30 -32 -16 -67 -30 -76 -30 -10 0 -24 -6 -31 -13 -7 -6 -46 -28
-85 -47 -40 -19 -73 -41 -73 -47 0 -8 -13 -13 -30 -13 -20 0 -30 -5 -30 -15 0
-9 -10 -15 -26 -15 -17 0 -28 -6 -31 -20 -4 -14 -14 -20 -34 -20 -17 0 -32 -6
-35 -15 -4 -8 -12 -15 -20 -15 -8 0 -14 -7 -14 -15 0 -10 -10 -15 -30 -15 -17
0 -30 -5 -30 -12 0 -7 -20 -22 -45 -33 -25 -11 -45 -25 -45 -32 0 -7 -8 -13
-19 -13 -10 0 -24 -7 -31 -15 -7 -8 -19 -15 -26 -15 -8 0 -14 -6 -14 -13 0 -6
-13 -18 -29 -25 -16 -7 -41 -24 -55 -37 -15 -14 -31 -25 -37 -25 -5 0 -9 -7
-9 -15 0 -8 -8 -15 -18 -15 -10 0 -32 -13 -50 -30 -18 -16 -37 -30 -43 -30 -5
0 -9 -7 -9 -15 0 -8 -7 -15 -15 -15 -8 0 -15 -7 -15 -15 0 -8 -7 -15 -15 -15
-22 0 -75 -41 -75 -57 0 -7 -9 -13 -20 -13 -11 0 -20 -7 -20 -15 0 -8 -7 -15
-15 -15 -8 0 -15 -7 -15 -15 0 -8 -7 -15 -15 -15 -8 0 -15 -7 -15 -15 0 -8 -7
-15 -15 -15 -8 0 -15 -7 -15 -15 0 -8 -7 -15 -15 -15 -8 0 -15 -7 -15 -15 0
-8 -7 -15 -15 -15 -24 0 -195 -175 -195 -199 0 -14 -6 -21 -20 -21 -11 0 -20
-7 -20 -15 0 -8 -7 -15 -15 -15 -8 0 -15 -7 -15 -15 0 -8 -7 -15 -15 -15 -8 0
-15 -7 -15 -15 0 -8 -7 -15 -15 -15 -8 0 -15 -9 -15 -20 0 -11 -7 -20 -15 -20
-8 0 -15 -7 -15 -15 0 -8 -7 -15 -15 -15 -8 0 -15 -7 -15 -15 0 -8 -4 -15 -9
-15 -10 0 -34 -38 -47 -72 -3 -10 -13 -18 -20 -18 -8 0 -14 -7 -14 -15 0 -8
-7 -15 -15 -15 -8 0 -15 -6 -15 -14 0 -8 -7 -16 -15 -20 -9 -3 -15 -18 -15
-36 0 -23 -4 -30 -20 -30 -11 0 -20 -7 -20 -15 0 -8 -7 -15 -15 -15 -8 0 -15
-6 -15 -14 0 -8 -7 -16 -15 -20 -8 -3 -15 -17 -15 -31 0 -16 -6 -25 -15 -25
-8 0 -15 -6 -15 -14 0 -8 -7 -16 -15 -20 -9 -3 -15 -18 -15 -36 0 -20 -5 -30
-15 -30 -8 0 -15 -7 -15 -15 0 -8 -7 -15 -15 -15 -10 0 -15 -10 -15 -30 0 -20
-5 -30 -15 -30 -8 0 -15 -7 -15 -15 0 -8 -7 -15 -15 -15 -10 0 -15 -10 -15
-30 0 -17 -5 -30 -12 -30 -14 -1 -48 -62 -48 -85 0 -8 -7 -15 -15 -15 -10 0
-15 -10 -15 -29 0 -20 -6 -30 -20 -34 -13 -3 -20 -14 -20 -30 0 -14 -7 -27
-15 -31 -8 -3 -15 -17 -15 -31 0 -16 -6 -25 -15 -25 -10 0 -15 -11 -15 -35 0
-21 -5 -35 -12 -35 -15 -1 -48 -68 -48 -98 0 -13 -6 -22 -15 -22 -10 0 -15
-10 -15 -29 0 -16 -6 -31 -15 -35 -9 -3 -15 -18 -15 -35 0 -16 -6 -31 -15 -35
-10 -3 -15 -19 -15 -46 0 -29 -4 -40 -15 -40 -10 0 -15 -10 -15 -29 0 -16 -6
-31 -15 -35 -10 -4 -15 -20 -15 -51 0 -33 -4 -45 -15 -45 -11 0 -15 -12 -15
-45 0 -32 -4 -45 -14 -45 -16 0 -26 -21 -26 -57 0 -13 -7 -31 -15 -39 -8 -9
-15 -33 -15 -54 0 -21 -5 -40 -11 -42 -5 -2 -13 -24 -16 -48 -3 -25 -12 -57
-19 -72 -8 -15 -14 -49 -14 -76 0 -35 -4 -52 -15 -56 -11 -4 -15 -21 -15 -60
0 -34 -5 -56 -12 -58 -9 -3 -14 -34 -17 -93 -2 -58 -8 -93 -17 -103 -10 -9
-14 -39 -14 -96 0 -52 -5 -87 -12 -94 -10 -10 -14 -78 -16 -252 -2 -151 -7
-240 -14 -240 -6 0 -7 -31 -4 -82 3 -46 10 -189 14 -318 5 -141 13 -246 20
-263 7 -16 12 -58 12 -95 1 -39 7 -77 15 -92 8 -14 14 -52 15 -86 0 -34 7 -78
15 -97 8 -20 15 -54 15 -75 0 -21 5 -43 11 -49 5 -5 14 -41 20 -79 5 -38 14
-70 19 -72 6 -2 10 -21 10 -43 0 -26 5 -42 15 -45 10 -4 15 -20 15 -46 0 -21
6 -51 14 -66 7 -15 16 -44 20 -65 4 -21 14 -41 22 -44 8 -3 14 -19 14 -37 0
-17 7 -40 15 -50 8 -11 15 -32 15 -48 0 -18 5 -28 15 -28 10 0 15 -10 15 -34
0 -19 7 -41 15 -50 8 -8 15 -26 15 -41 0 -14 7 -28 15 -31 9 -4 15 -19 15 -35
0 -19 5 -29 15 -29 10 0 15 -10 15 -28 0 -15 6 -36 14 -47 7 -11 16 -32 20
-48 3 -15 11 -27 16 -27 6 0 10 -6 10 -14 0 -20 90 -196 112 -220 10 -11 18
-28 18 -38 0 -10 7 -18 15 -18 10 0 15 -10 15 -30 0 -20 5 -30 15 -30 8 0 15
-9 15 -19 0 -11 7 -26 15 -35 8 -8 15 -19 15 -25 0 -6 7 -11 15 -11 9 0 15 -9
15 -25 0 -14 7 -28 15 -31 8 -4 15 -15 15 -25 0 -10 7 -19 15 -19 9 0 15 -9
15 -25 0 -14 7 -28 15 -31 8 -4 15 -12 15 -20 0 -8 7 -14 15 -14 8 0 15 -9 15
-19 0 -11 7 -26 15 -35 8 -8 15 -19 15 -25 0 -6 6 -11 14 -11 8 0 17 -11 20
-24 3 -13 19 -38 36 -56 16 -18 30 -35 30 -39 0 -4 18 -14 39 -21 48 -16 91
-2 117 37 18 28 23 91 8 101 -5 4 -16 20 -24 35 -8 16 -29 44 -47 64 -18 19
-33 39 -33 44 0 11 -41 72 -52 77 -5 2 -8 9 -8 16 0 7 -8 21 -17 32 -10 10
-27 36 -38 58 -11 21 -26 40 -32 43 -7 3 -13 13 -13 22 0 9 -5 22 -11 28 -14
14 -35 50 -50 86 -6 15 -15 27 -20 27 -5 0 -9 9 -9 19 0 11 -6 26 -13 33 -13
14 -23 34 -112 223 -87 185 -95 205 -95 220 0 7 -6 20 -13 27 -8 7 -16 25 -20
38 -12 53 -71 215 -79 218 -4 2 -8 13 -8 25 0 12 -11 58 -25 102 -54 173 -109
426 -140 635 -70 486 -68 877 5 1365 20 133 70 383 89 445 6 19 11 47 11 62 0
16 4 28 9 28 5 0 12 19 16 42 4 23 11 49 16 58 4 8 17 49 29 90 12 41 29 87
36 102 8 14 14 37 14 51 0 14 3 27 8 29 11 5 52 110 52 135 0 11 6 23 13 26 6
2 18 22 26 43 18 52 119 260 170 353 23 41 41 80 41 87 0 7 4 14 8 16 9 3 82
121 82 132 0 3 7 14 16 24 9 9 39 53 68 97 28 44 63 96 79 116 15 20 27 41 27
46 0 6 7 13 15 17 8 3 15 10 15 15 0 5 14 25 30 43 17 18 30 38 30 46 0 7 7
15 15 18 8 4 15 10 15 16 0 5 10 19 23 31 32 32 137 154 137 160 0 3 35 41 78
85 42 43 98 102 124 130 26 29 52 52 58 52 5 0 10 7 10 15 0 8 6 15 13 15 7 0
24 12 37 28 14 15 45 43 70 63 25 20 67 57 94 83 26 25 50 46 52 46 9 0 144
105 144 112 0 5 6 8 13 8 7 0 30 16 51 35 21 19 46 37 56 40 10 3 29 16 42 28
14 12 40 30 59 41 19 10 39 24 44 30 6 6 28 20 49 31 22 11 45 25 51 30 6 6
35 23 65 39 30 16 57 32 60 35 3 3 23 15 45 26 22 11 56 29 75 41 37 22 238
115 375 174 128 54 123 52 315 116 126 42 397 115 483 130 20 3 37 10 37 15 0
5 21 9 48 9 26 1 67 5 92 11 25 5 88 14 140 20 52 5 106 15 119 22 34 17 963
16 1005 -2 16 -6 72 -15 125 -18 53 -3 99 -10 102 -15 3 -5 39 -12 80 -15 41
-3 79 -9 84 -13 6 -4 46 -16 90 -25 44 -10 107 -24 140 -32 33 -8 84 -20 113
-26 28 -6 52 -14 52 -18 0 -4 18 -10 41 -14 22 -4 53 -13 67 -21 15 -8 39 -14
54 -14 14 0 28 -5 30 -10 2 -6 21 -13 43 -17 22 -3 42 -10 45 -14 6 -8 81 -37
120 -46 14 -3 27 -9 30 -14 8 -12 121 -59 141 -59 11 0 19 -4 19 -10 0 -5 12
-13 27 -16 15 -4 34 -13 41 -21 7 -7 22 -13 33 -13 10 0 19 -4 19 -10 0 -5 12
-13 27 -16 15 -4 34 -13 41 -21 7 -7 20 -13 28 -13 9 0 22 -7 30 -15 9 -8 26
-15 40 -15 15 0 24 -6 24 -15 0 -10 10 -15 30 -15 17 0 30 -5 30 -12 0 -13
119 -88 138 -88 6 0 12 -6 15 -12 3 -7 22 -22 43 -33 22 -11 41 -22 44 -25 15
-18 70 -50 84 -50 9 0 16 -7 16 -15 0 -8 5 -15 10 -15 6 0 20 -9 32 -20 12
-11 28 -20 35 -20 7 0 13 -4 13 -8 0 -8 95 -82 105 -82 4 0 18 -13 33 -28 41
-43 108 -92 126 -92 9 0 16 -8 16 -20 0 -11 5 -20 11 -20 15 0 449 -435 449
-449 0 -6 7 -11 15 -11 8 0 15 -7 15 -15 0 -9 7 -18 15 -21 8 -4 15 -11 15
-17 0 -8 30 -49 90 -119 8 -10 20 -18 27 -18 7 0 13 -8 13 -19 0 -10 7 -24 15
-31 8 -7 15 -19 15 -27 0 -7 7 -16 15 -19 8 -4 15 -12 15 -20 0 -8 7 -14 15
-14 8 0 15 -8 15 -18 0 -10 12 -31 28 -48 15 -16 36 -47 47 -68 11 -21 26 -40
33 -43 6 -3 12 -11 12 -18 0 -19 40 -85 51 -85 5 0 9 -9 9 -19 0 -11 4 -23 10
-26 5 -3 17 -21 26 -40 9 -19 20 -35 25 -35 5 0 9 -7 9 -15 0 -8 7 -15 15 -15
10 0 15 -11 15 -35 0 -24 5 -35 15 -35 9 0 15 -9 15 -25 0 -14 7 -28 15 -31 8
-4 15 -17 15 -30 0 -14 7 -27 15 -30 8 -4 15 -17 15 -30 0 -14 7 -27 15 -30 9
-4 15 -19 15 -35 0 -17 6 -32 15 -35 9 -4 15 -19 15 -35 0 -19 5 -29 15 -29
10 0 15 -10 15 -28 0 -16 7 -37 15 -48 8 -10 15 -29 15 -41 0 -12 7 -28 15
-37 8 -8 15 -25 15 -38 0 -13 7 -33 15 -44 8 -10 15 -29 15 -42 0 -12 7 -25
15 -28 10 -4 15 -20 15 -44 0 -21 7 -45 15 -54 8 -8 20 -39 25 -68 6 -29 15
-54 20 -56 6 -2 10 -24 10 -48 0 -32 4 -44 15 -44 11 0 15 -13 15 -54 0 -35 5
-60 15 -70 9 -9 15 -33 15 -65 0 -32 5 -53 14 -58 9 -5 15 -36 18 -96 2 -49 9
-92 15 -95 6 -4 12 -47 14 -96 3 -60 8 -91 17 -94 9 -3 12 -37 12 -123 0 -66
7 -184 16 -262 16 -142 15 -235 -5 -387 -6 -41 -10 -128 -11 -193 0 -81 -5
-129 -15 -154 -9 -21 -15 -66 -15 -110 0 -53 -4 -79 -15 -89 -10 -11 -15 -36
-15 -84 0 -42 -4 -70 -11 -72 -6 -2 -14 -28 -17 -58 -2 -30 -9 -58 -15 -61 -5
-4 -12 -36 -16 -73 -4 -36 -12 -71 -19 -78 -7 -7 -12 -31 -12 -55 0 -32 -4
-43 -15 -43 -11 0 -15 -12 -15 -50 0 -36 -4 -50 -14 -50 -16 0 -26 -21 -26
-57 0 -13 -7 -31 -15 -39 -8 -9 -15 -30 -15 -49 0 -20 -6 -35 -15 -39 -8 -3
-15 -18 -15 -33 0 -15 -7 -37 -15 -47 -8 -11 -15 -32 -15 -48 0 -18 -5 -28
-15 -28 -9 0 -15 -10 -15 -26 0 -14 -7 -32 -15 -40 -8 -9 -15 -26 -15 -39 0
-12 -7 -25 -15 -29 -8 -3 -15 -17 -15 -31 0 -14 -4 -25 -9 -25 -5 0 -13 -10
-16 -22 -9 -33 -38 -90 -52 -106 -7 -7 -13 -24 -13 -37 0 -12 -7 -25 -15 -29
-8 -3 -15 -17 -15 -31 0 -16 -6 -25 -15 -25 -10 0 -15 -10 -15 -29 0 -20 -6
-30 -20 -34 -14 -3 -20 -14 -20 -31 0 -16 -6 -26 -15 -26 -8 0 -15 -5 -15 -11
0 -6 -7 -17 -15 -25 -8 -9 -15 -26 -15 -40 0 -15 -6 -24 -15 -24 -8 0 -15 -5
-15 -11 0 -6 -7 -17 -15 -25 -8 -9 -15 -24 -15 -35 0 -10 -7 -19 -15 -19 -8 0
-15 -5 -15 -11 0 -6 -7 -17 -15 -25 -8 -9 -15 -24 -15 -35 0 -10 -7 -19 -15
-19 -8 0 -15 -9 -15 -20 0 -11 -7 -20 -15 -20 -8 0 -15 -6 -15 -14 0 -7 -7
-19 -15 -26 -8 -7 -15 -21 -15 -31 0 -11 -7 -19 -15 -19 -8 0 -15 -6 -15 -14
0 -7 -8 -16 -19 -19 -10 -2 -27 -23 -37 -45 -10 -23 -25 -42 -31 -42 -7 0 -13
-9 -13 -20 0 -11 -7 -20 -15 -20 -8 0 -15 -7 -15 -15 0 -8 -7 -15 -15 -15 -8
0 -15 -4 -15 -9 0 -5 -20 -30 -45 -57 -25 -26 -45 -55 -45 -66 0 -10 -7 -18
-15 -18 -8 0 -15 -7 -15 -15 0 -8 -7 -15 -15 -15 -8 0 -15 -9 -15 -20 0 -11
-7 -20 -15 -20 -8 0 -15 -7 -15 -15 0 -8 -7 -15 -15 -15 -8 0 -15 -7 -15 -15
0 -8 -9 -15 -20 -15 -11 0 -20 -7 -20 -15 0 -8 -7 -15 -15 -15 -8 0 -15 -7
-15 -15 0 -8 -7 -15 -15 -15 -8 0 -15 -7 -15 -15 0 -8 -6 -15 -14 -15 -7 0
-38 -23 -67 -50 -29 -28 -57 -50 -61 -50 -4 0 -8 -7 -8 -15 0 -8 -7 -15 -15
-15 -8 0 -15 -7 -15 -15 0 -8 -7 -15 -15 -15 -8 0 -15 -7 -15 -15 0 -8 -7 -15
-15 -15 -8 0 -15 -7 -15 -15 0 -9 -9 -15 -23 -15 -12 0 -37 -13 -55 -30 -18
-16 -37 -30 -43 -30 -5 0 -9 -7 -9 -15 0 -8 -6 -15 -13 -15 -7 0 -23 -9 -35
-20 -12 -11 -26 -20 -32 -20 -5 0 -10 -7 -10 -15 0 -8 -7 -15 -15 -15 -8 0
-15 -7 -15 -15 0 -9 -9 -15 -25 -15 -14 0 -28 -7 -31 -15 -4 -8 -12 -15 -20
-15 -8 0 -14 -7 -14 -15 0 -9 -9 -15 -24 -15 -14 0 -31 -7 -40 -15 -8 -8 -19
-15 -25 -15 -6 0 -11 -7 -11 -15 0 -8 -9 -15 -19 -15 -11 0 -26 -6 -33 -12 -7
-7 -25 -19 -40 -27 -16 -8 -28 -18 -28 -23 0 -4 -7 -8 -15 -8 -8 0 -15 -7 -15
-15 0 -10 -10 -15 -30 -15 -20 0 -30 -5 -30 -15 0 -10 -10 -15 -30 -15 -20 0
-30 -5 -30 -15 0 -9 -9 -15 -24 -15 -14 0 -31 -6 -38 -12 -16 -15 -73 -44
-105 -53 -13 -3 -23 -11 -23 -16 0 -5 -9 -9 -19 -9 -11 0 -26 -6 -33 -13 -7
-8 -26 -17 -41 -21 -15 -3 -27 -13 -27 -21 0 -10 -11 -15 -35 -15 -24 0 -35
-5 -35 -15 0 -10 -10 -15 -34 -15 -19 0 -41 -7 -50 -15 -8 -8 -26 -15 -40 -15
-16 0 -26 -6 -26 -15 0 -11 -11 -15 -40 -15 -27 0 -43 -5 -46 -15 -4 -9 -19
-15 -39 -15 -19 0 -40 -7 -49 -15 -8 -8 -30 -15 -50 -15 -19 0 -41 -7 -50 -15
-8 -8 -28 -15 -45 -15 -16 0 -36 -7 -45 -15 -8 -8 -30 -15 -48 -15 -47 0 -78
-10 -78 -25 0 -9 -23 -14 -77 -17 -48 -2 -78 -8 -81 -16 -2 -7 -24 -12 -57
-12 -35 0 -57 -5 -62 -14 -6 -9 -39 -15 -111 -18 -57 -3 -107 -10 -110 -15 -4
-6 -58 -12 -121 -15 -75 -3 -116 -9 -119 -16 -5 -17 -649 -17 -654 0 -2 6 -38
14 -84 18 -43 4 -92 12 -107 18 -16 7 -55 12 -87 12 -42 0 -59 4 -64 15 -4 10
-20 15 -50 15 -25 0 -46 5 -48 12 -2 6 -30 13 -61 16 -37 3 -57 9 -57 17 0 8
-18 16 -41 20 -22 4 -53 13 -67 21 -15 8 -37 14 -49 14 -12 0 -23 5 -25 11 -2
5 -24 13 -48 16 -25 3 -49 12 -53 19 -4 8 -19 14 -32 14 -14 0 -25 4 -25 10 0
5 -12 13 -27 16 -16 4 -37 13 -48 20 -11 8 -32 14 -47 14 -18 0 -28 5 -28 15
0 10 -10 15 -30 15 -20 0 -30 5 -30 15 0 10 -10 15 -34 15 -25 0 -35 5 -39 20
-3 11 -12 20 -21 20 -9 0 -35 13 -58 30 -22 16 -47 30 -55 30 -7 0 -13 4 -13
10 0 5 -12 13 -26 16 -14 4 -37 17 -52 31 -14 13 -36 26 -48 29 -12 3 -25 12
-28 20 -3 8 -12 14 -20 14 -7 0 -16 7 -20 15 -3 8 -17 15 -31 15 -14 0 -25 6
-25 13 0 7 -8 19 -17 27 -73 61 -112 90 -122 90 -6 0 -11 7 -11 15 0 8 -7 15
-15 15 -8 0 -15 7 -15 15 0 8 -7 15 -15 15 -8 0 -15 7 -15 15 0 8 -7 15 -15
15 -8 0 -15 7 -15 15 0 8 -9 15 -20 15 -13 0 -20 7 -20 20 0 11 -3 20 -7 20
-5 0 -19 17 -33 37 -14 20 -37 50 -53 65 -15 16 -27 35 -27 43 0 7 -4 16 -9
19 -13 8 -69 129 -94 201 -15 45 -20 87 -21 170 -1 113 11 170 55 270 58 132
69 159 69 176 0 11 5 19 10 19 6 0 10 6 10 13 1 6 9 30 20 52 11 22 19 50 20
63 0 12 4 22 9 22 5 0 13 10 16 23 4 12 13 36 20 52 21 46 49 112 85 200 34
83 42 102 83 195 14 30 28 66 31 80 4 14 14 39 21 55 59 128 75 168 75 185 0
11 4 20 9 20 5 0 13 15 16 32 4 18 10 35 14 38 6 5 31 63 88 205 20 50 44 108
54 130 56 126 69 159 69 176 0 11 5 19 10 19 6 0 10 5 10 11 0 6 6 25 14 42
40 89 56 131 56 148 0 11 4 19 10 19 5 0 13 12 16 28 4 15 13 36 20 47 8 11
14 30 14 43 0 13 7 30 15 38 8 9 15 26 15 40 0 13 4 24 9 24 5 0 19 26 31 57
13 32 33 81 45 108 12 28 27 66 34 85 7 19 19 49 26 65 55 125 75 177 75 196
0 11 4 19 9 19 5 0 13 10 16 23 4 12 20 50 36 85 16 34 29 73 29 87 0 14 4 25
9 25 5 0 13 10 16 23 4 12 15 40 25 62 23 49 39 86 80 190 17 44 35 88 40 97
5 9 26 59 46 110 20 51 49 121 65 156 16 34 29 73 29 87 0 14 4 25 10 25 5 0
13 12 16 28 4 15 10 29 13 32 10 8 51 114 51 133 0 9 4 17 8 17 5 0 21 33 37
73 15 39 38 95 51 123 13 28 33 77 45 110 11 32 34 87 50 122 16 34 29 68 29
75 0 7 7 22 15 33 8 10 15 29 15 41 0 12 3 23 8 25 9 4 52 108 52 126 0 8 7
20 15 28 8 9 15 26 15 39 0 13 4 25 8 27 4 2 34 66 65 143 32 77 62 149 67
160 50 113 80 192 80 207 0 10 4 18 10 18 5 0 13 12 16 27 4 15 13 38 20 52 8
14 14 36 14 49 0 12 4 22 9 22 5 0 13 9 16 20 12 36 35 24 35 -19 0 -22 7 -46
15 -55 8 -8 15 -26 15 -39 0 -36 10 -57 26 -57 10 0 14 -14 14 -50 0 -38 4
-50 15 -50 11 0 15 -12 15 -45 0 -33 4 -45 15 -45 11 0 15 -12 15 -45 0 -33 4
-45 15 -45 11 0 15 -11 15 -39 0 -22 7 -46 15 -55 8 -8 15 -28 15 -45 0 -16 7
-36 15 -45 8 -8 15 -28 15 -45 0 -16 6 -36 13 -43 8 -7 16 -33 20 -58 3 -24
11 -46 16 -48 6 -2 11 -16 11 -31 0 -15 7 -36 15 -47 8 -10 15 -29 15 -41 0
-12 6 -37 14 -55 23 -55 38 -101 43 -132 3 -17 13 -31 24 -33 15 -4 19 -15 19
-52 0 -25 7 -55 15 -65 8 -11 15 -32 15 -48 0 -18 5 -28 15 -28 11 0 15 -12
15 -45 0 -33 4 -45 15 -45 11 0 15 -12 15 -45 0 -31 5 -47 15 -51 10 -4 15
-20 15 -45 0 -26 5 -42 15 -45 10 -4 15 -20 15 -45 0 -26 5 -42 15 -45 10 -4
15 -20 15 -44 0 -21 7 -45 15 -54 8 -8 15 -28 15 -45 0 -16 7 -36 15 -45 8 -8
15 -24 15 -36 0 -12 6 -36 14 -53 8 -18 17 -49 21 -69 3 -21 10 -38 14 -38 5
0 11 -18 15 -40 3 -21 12 -43 20 -47 7 -4 16 -28 19 -52 3 -24 10 -47 15 -50
5 -3 12 -24 15 -46 4 -22 11 -41 17 -43 5 -2 10 -17 10 -33 0 -19 5 -29 15
-29 11 0 15 -12 15 -50 0 -38 4 -50 15 -50 11 0 15 -12 15 -45 0 -33 4 -45 15
-45 11 0 15 -12 15 -45 0 -33 4 -45 15 -45 11 0 15 -12 15 -45 0 -31 5 -47 15
-51 9 -4 15 -19 15 -39 0 -19 6 -40 13 -47 8 -7 16 -33 20 -57 3 -24 10 -47
15 -50 5 -3 12 -24 15 -45 4 -22 10 -42 15 -45 5 -3 12 -24 15 -45 4 -22 10
-42 15 -45 5 -3 12 -24 15 -46 4 -22 13 -45 22 -51 8 -6 15 -25 15 -42 0 -17
7 -37 15 -46 8 -8 15 -28 15 -45 0 -16 7 -36 15 -45 8 -8 15 -28 15 -45 0 -21
5 -31 15 -31 11 0 15 -12 15 -44 0 -24 5 -46 11 -48 5 -2 13 -22 16 -46 3 -24
11 -42 18 -42 9 0 15 -19 17 -52 2 -29 3 -55 1 -57 -2 -3 -17 5 -33 17 -16 12
-36 22 -45 22 -8 0 -15 7 -15 15 0 8 -4 15 -10 15 -5 0 -19 9 -30 20 -11 11
-29 20 -40 20 -11 0 -20 7 -20 15 0 8 -6 15 -14 15 -7 0 -19 7 -26 15 -7 8
-20 15 -30 15 -10 0 -20 7 -24 15 -3 8 -17 15 -31 15 -14 0 -25 6 -25 13 -1
11 -183 108 -205 107 -5 0 -21 9 -35 20 -14 11 -35 20 -47 20 -13 0 -23 4 -23
9 0 8 -70 37 -120 48 -14 3 -28 10 -31 16 -4 5 -27 12 -53 14 -25 3 -46 9 -46
14 0 4 -17 11 -37 14 -21 3 -50 13 -65 21 -14 8 -51 14 -82 14 -43 0 -56 3
-56 15 0 12 -14 15 -64 15 -43 0 -66 4 -68 12 -3 9 -34 14 -91 16 -75 4 -87 2
-87 -12 0 -9 -7 -16 -15 -16 -8 0 -15 -7 -15 -15 0 -8 -4 -15 -10 -15 -5 0
-10 -13 -10 -30 0 -16 5 -30 10 -30 6 0 10 -8 10 -18 0 -23 19 -42 42 -42 10
0 18 -4 18 -10 0 -5 17 -12 38 -15 20 -4 62 -17 92 -30 30 -12 73 -28 95 -35
22 -7 68 -25 103 -41 34 -16 68 -29 76 -29 7 0 19 -7 26 -15 7 -8 21 -15 32
-15 11 0 26 -7 34 -15 9 -8 26 -15 40 -15 15 0 24 -6 24 -15 0 -10 10 -15 30
-15 20 0 30 -5 30 -15 0 -8 7 -15 15 -15 8 0 15 -4 15 -9 0 -5 15 -16 33 -25
45 -23 64 -35 129 -83 31 -24 64 -43 72 -43 9 0 16 -7 16 -15 0 -8 6 -15 14
-15 8 0 16 -7 20 -15 3 -8 17 -15 31 -15 16 0 25 -6 25 -15 0 -8 7 -15 15 -15
8 0 15 -5 15 -11 0 -6 52 -61 117 -122 64 -62 132 -130 152 -151 20 -22 51
-55 69 -73 17 -19 32 -38 32 -43 0 -6 7 -10 15 -10 8 0 15 -7 15 -15 0 -8 7
-15 15 -15 8 0 15 -7 15 -16 0 -15 47 -84 74 -109 6 -5 20 -28 31 -49 11 -22
28 -41 37 -44 10 -2 18 -12 18 -22 0 -10 7 -25 15 -34 8 -8 15 -19 15 -25 0
-6 7 -11 15 -11 9 0 15 -9 15 -24 0 -14 7 -31 15 -40 8 -8 15 -19 15 -25 0 -6
7 -11 15 -11 10 0 15 -10 15 -30 0 -20 5 -30 15 -30 9 0 15 -9 15 -25 0 -14 7
-28 15 -31 8 -4 15 -17 15 -29 0 -13 6 -30 13 -37 8 -7 17 -26 21 -41 3 -15
11 -27 16 -27 6 0 10 -11 10 -25 0 -14 7 -28 15 -31 9 -4 15 -19 15 -35 0 -16
4 -29 9 -29 5 0 14 -22 21 -50 7 -27 16 -50 21 -50 5 0 9 -12 9 -26 0 -17 6
-28 20 -31 11 -3 20 -12 20 -19 0 -8 7 -14 15 -14 8 0 15 -7 15 -15 0 -8 7
-15 15 -15 8 0 15 -6 15 -12 0 -7 16 -21 36 -30 48 -24 211 -25 257 -2 50 25
123 109 141 161 31 90 23 133 -74 427 -50 149 -97 285 -105 303 -8 17 -15 39
-15 50 -1 10 -7 29 -15 43 -8 14 -14 35 -15 47 0 12 -7 28 -15 37 -8 8 -15 28
-15 43 0 16 -7 38 -15 49 -8 10 -15 28 -15 39 0 11 -7 33 -15 49 -8 15 -15 36
-15 45 0 9 -7 29 -15 45 -8 15 -15 35 -15 43 0 8 -6 29 -14 46 -7 18 -44 127
-81 242 -37 116 -74 221 -80 235 -7 14 -30 78 -50 143 -21 64 -42 117 -47 117
-4 0 -8 12 -8 27 0 28 -39 154 -50 163 -4 3 -10 23 -13 45 -4 22 -11 41 -17
43 -5 2 -10 16 -10 30 0 15 -7 40 -15 56 -8 15 -15 35 -15 43 0 8 -6 29 -14
46 -7 18 -39 111 -71 207 -32 96 -62 179 -66 185 -5 5 -9 18 -9 30 0 11 -7 33
-15 49 -8 15 -15 34 -15 42 0 7 -6 28 -14 46 -8 18 -31 86 -52 151 -20 64 -40
117 -44 117 -5 0 -10 17 -13 38 -4 33 -22 91 -46 147 -5 11 -35 101 -66 200
-32 99 -61 182 -65 185 -4 3 -10 23 -13 45 -4 22 -11 41 -17 43 -5 2 -10 16
-10 31 0 14 -6 35 -14 46 -7 11 -16 34 -19 50 -7 38 -153 474 -167 497 -5 10
-10 26 -10 35 0 10 -7 31 -15 47 -8 15 -15 35 -15 43 0 8 -6 29 -14 46 -7 18
-26 71 -41 120 -15 48 -30 87 -35 87 -4 0 -10 19 -13 42 -3 24 -11 44 -16 46
-6 2 -11 16 -11 30 0 15 -7 40 -15 56 -8 15 -15 35 -15 43 0 8 -6 29 -14 46
-7 18 -44 127 -82 242 -37 116 -71 217 -75 225 -8 18 -20 54 -60 178 -17 50
-35 92 -40 92 -5 0 -9 15 -9 34 0 19 -6 41 -13 48 -8 7 -16 33 -20 57 -3 24
-10 47 -15 50 -5 3 -12 24 -15 46 -4 22 -11 41 -17 43 -5 2 -10 16 -10 32 0
16 -7 30 -15 34 -8 3 -15 14 -15 25 0 24 -76 101 -100 101 -10 0 -20 7 -24 15
-4 12 -27 15 -121 15 -94 0 -117 -3 -121 -15 -4 -8 -14 -15 -24 -15 -26 0
-100 -78 -100 -106 0 -15 -6 -24 -15 -24 -11 0 -15 -12 -15 -45 0 -33 -4 -45
-15 -45 -10 0 -15 -10 -15 -30 0 -19 -5 -30 -14 -30 -17 0 -26 -22 -26 -66 0
-24 -5 -34 -15 -34 -10 0 -15 -10 -15 -29 0 -16 -6 -31 -15 -35 -8 -3 -15 -16
-15 -29 0 -13 -7 -32 -15 -43 -8 -10 -15 -31 -15 -45 0 -15 -7 -29 -15 -33 -8
-3 -15 -17 -15 -31 0 -15 -7 -33 -15 -41 -8 -9 -15 -31 -15 -50 0 -24 -5 -34
-15 -34 -9 0 -15 -10 -15 -26 0 -14 -7 -32 -15 -40 -8 -9 -15 -33 -15 -55 0
-28 -4 -39 -15 -39 -10 0 -15 -10 -15 -29 0 -16 -6 -31 -15 -35 -10 -3 -15
-19 -15 -46 0 -29 -4 -40 -15 -40 -10 0 -15 -11 -15 -35 0 -23 -5 -35 -14 -35
-17 0 -26 -22 -26 -61 0 -19 -5 -29 -15 -29 -10 0 -15 -10 -15 -30 0 -16 -4
-30 -9 -30 -9 0 -39 -77 -48 -125 -3 -16 -12 -34 -19 -38 -8 -4 -14 -18 -14
-30 0 -12 -7 -31 -15 -41 -8 -11 -15 -32 -15 -47 0 -15 -7 -29 -15 -33 -8 -3
-15 -17 -15 -31 0 -15 -7 -33 -15 -41 -8 -9 -15 -31 -15 -50 0 -24 -5 -34 -15
-34 -10 0 -15 -10 -15 -29 0 -16 -6 -31 -15 -35 -10 -4 -15 -20 -15 -51 0 -33
-4 -45 -15 -45 -10 0 -15 -10 -15 -30 0 -20 -5 -30 -15 -30 -11 0 -15 -12 -15
-44 0 -35 -4 -45 -20 -49 -14 -3 -20 -14 -20 -32 0 -14 -7 -33 -15 -41 -8 -9
-15 -31 -15 -50 0 -24 -5 -34 -15 -34 -10 0 -15 -10 -15 -29 0 -16 -6 -31 -15
-35 -10 -4 -15 -20 -15 -51 0 -33 -4 -45 -15 -45 -10 0 -15 -10 -15 -30 0 -20
-5 -30 -15 -30 -10 0 -15 -10 -15 -27 0 -16 -7 -37 -15 -47 -8 -11 -15 -32
-15 -48 0 -18 -5 -28 -15 -28 -10 0 -15 -10 -15 -34 0 -21 -6 -36 -15 -40 -10
-3 -15 -19 -15 -46 0 -29 -4 -40 -15 -40 -10 0 -15 -10 -15 -29 0 -16 -6 -31
-15 -35 -10 -4 -15 -20 -15 -50 0 -35 -4 -45 -20 -49 -12 -3 -20 -14 -20 -27
0 -12 -7 -28 -15 -36 -8 -9 -15 -30 -15 -49 0 -20 -6 -35 -15 -39 -9 -3 -15
-18 -15 -35 0 -16 -6 -31 -15 -35 -8 -3 -15 -16 -15 -29 0 -13 -7 -32 -15 -43
-8 -10 -15 -31 -15 -45 0 -15 -7 -29 -15 -33 -8 -3 -15 -16 -15 -28 0 -13 -7
-32 -15 -42 -8 -11 -15 -35 -15 -53 0 -23 -5 -33 -15 -33 -9 0 -15 -10 -15
-26 0 -14 -7 -32 -15 -40 -8 -9 -15 -31 -15 -50 0 -24 -5 -34 -15 -34 -10 0
-15 -10 -15 -34 0 -21 -6 -36 -15 -40 -10 -3 -15 -19 -15 -46 0 -29 -4 -40
-15 -40 -9 0 -15 -9 -15 -25 0 -14 -9 -34 -20 -45 -12 -12 -20 -33 -20 -55 0
-24 -5 -35 -15 -35 -9 0 -15 -10 -15 -26 0 -14 -7 -32 -15 -40 -8 -9 -15 -31
-15 -50 0 -24 -5 -34 -15 -34 -10 0 -15 -10 -15 -34 0 -21 -6 -36 -15 -40 -10
-3 -15 -19 -15 -46 0 -29 -4 -40 -15 -40 -10 0 -15 -10 -15 -29 0 -16 -6 -31
-15 -35 -10 -4 -15 -20 -15 -51 0 -33 -4 -45 -15 -45 -10 0 -15 -10 -15 -30 0
-20 -5 -30 -15 -30 -10 0 -15 -10 -15 -29 0 -16 -6 -31 -15 -35 -10 -3 -15
-19 -15 -46 0 -29 -4 -40 -15 -40 -10 0 -15 -11 -15 -35 0 -23 -5 -35 -14 -35
-17 0 -26 -21 -26 -60 0 -16 -7 -30 -15 -34 -8 -3 -15 -15 -15 -26 0 -12 -7
-28 -15 -36 -8 -9 -15 -33 -15 -55 0 -28 -4 -39 -15 -39 -10 0 -15 -10 -15
-29 0 -16 -6 -31 -15 -35 -10 -3 -15 -19 -15 -46 0 -29 -4 -40 -15 -40 -10 0
-15 -11 -15 -35 0 -24 -5 -35 -15 -35 -9 0 -15 -10 -15 -26 0 -14 -7 -32 -15
-40 -8 -9 -15 -31 -15 -50 0 -24 -5 -34 -15 -34 -10 0 -15 -10 -15 -29 0 -16
-6 -31 -15 -35 -10 -4 -15 -20 -15 -51 0 -33 -4 -45 -15 -45 -10 0 -15 -10
-15 -30 0 -19 -5 -30 -14 -30 -14 0 -26 -29 -26 -66 0 -12 -7 -24 -15 -28 -9
-3 -15 -18 -15 -36 0 -16 -4 -30 -10 -30 -5 0 -14 -18 -20 -40 -6 -21 -15 -42
-20 -45 -6 -3 -10 -19 -10 -35 0 -15 -7 -30 -15 -34 -8 -3 -15 -17 -15 -31 0
-15 -7 -33 -15 -41 -8 -9 -15 -31 -15 -50 0 -24 -5 -34 -15 -34 -9 0 -15 -10
-15 -26 0 -14 -7 -32 -15 -40 -8 -9 -15 -33 -15 -55 0 -28 -4 -39 -15 -39 -10
0 -15 -10 -15 -29 0 -16 -6 -31 -15 -35 -8 -3 -15 -16 -15 -29 0 -13 -7 -32
-15 -43 -8 -10 -15 -31 -15 -46 0 -18 -5 -28 -15 -28 -11 0 -15 -12 -15 -49 0
-40 -3 -50 -20 -54 -16 -4 -20 -14 -20 -45 0 -23 -5 -42 -12 -44 -11 -4 -28
-168 -28 -263 -1 -80 18 -247 28 -257 7 -7 12 -23 12 -37 0 -41 11 -71 26 -71
10 0 14 -13 14 -40 0 -27 5 -43 15 -46 8 -4 15 -17 15 -30 0 -14 7 -27 15 -30
8 -4 15 -17 15 -29 0 -13 7 -30 15 -39 8 -8 15 -19 15 -25 0 -6 4 -11 10 -11
5 0 12 -11 16 -25 3 -14 11 -29 18 -33 13 -8 32 -37 46 -69 5 -13 14 -23 20
-23 5 0 10 -7 10 -15 0 -8 7 -15 15 -15 8 0 15 -7 15 -15 0 -9 7 -18 15 -21 8
-4 15 -11 15 -17 0 -17 187 -197 205 -197 8 0 15 -5 15 -12 0 -15 98 -105 124
-114 11 -3 29 -16 40 -28 32 -32 83 -66 101 -66 8 0 15 -7 15 -15 0 -8 5 -15
10 -15 6 0 33 -16 60 -35 27 -19 57 -35 65 -35 8 0 15 -4 15 -9 0 -11 125 -81
145 -81 8 0 15 -4 15 -10 0 -5 12 -13 27 -16 15 -4 34 -13 41 -21 7 -7 20 -13
28 -13 9 0 22 -7 30 -15 9 -8 24 -15 35 -15 10 0 19 -4 19 -8 0 -11 118 -62
143 -62 9 0 17 -4 17 -9 0 -8 70 -37 120 -48 14 -3 28 -10 31 -15 3 -5 23 -11
45 -15 21 -3 42 -10 45 -15 6 -10 100 -38 152 -45 20 -3 37 -9 37 -14 0 -4 17
-11 38 -14 20 -4 64 -15 97 -25 74 -22 196 -50 221 -50 11 0 48 -6 84 -14 178
-39 511 -56 745 -37 228 18 341 29 402 40 32 6 119 20 193 32 74 12 151 27
170 34 19 7 57 16 85 19 27 4 54 11 59 16 6 6 23 10 38 10 15 0 45 6 65 14 21
8 55 17 76 21 20 3 37 10 37 15 0 6 13 10 28 10 27 0 74 14 217 67 112 40 196
73 255 100 30 13 69 30 85 37 95 39 427 211 432 222 3 8 13 14 23 14 10 0 25
6 32 13 7 7 26 18 41 25 45 20 307 193 307 203 0 5 5 9 10 9 6 0 16 5 23 10 7
6 65 49 130 97 64 48 117 93 117 100 0 7 5 13 11 13 23 0 154 116 335 294 101
100 184 185 184 188 0 4 19 26 43 50 23 24 60 66 82 93 22 28 43 52 48 53 4 2
7 10 7 17 0 7 7 15 15 19 8 3 15 10 15 16 0 6 10 21 23 33 25 25 137 173 137
182 0 4 6 12 13 19 6 8 19 24 27 36 8 12 23 33 33 45 9 13 17 28 17 34 0 6 3
11 8 11 4 0 21 23 37 51 17 28 38 63 47 78 9 14 27 46 40 71 13 25 29 51 36
58 6 7 12 20 12 29 0 9 7 21 15 27 26 20 205 385 205 419 0 9 4 17 10 17 5 0
13 12 16 28 4 15 10 32 14 37 4 6 13 28 20 50 7 22 16 44 21 49 5 6 9 19 9 30
0 12 7 30 15 40 8 11 15 32 15 47 0 15 4 29 9 31 20 7 136 409 170 593 7 33
18 92 26 130 29 142 45 251 45 300 0 28 5 66 10 85 29 97 29 829 1 1030 -12
88 -29 211 -41 295 -4 33 -12 80 -18 105 -21 89 -41 186 -48 223 -3 20 -10 40
-15 43 -5 3 -9 18 -9 34 0 16 -7 51 -15 77 -8 26 -22 73 -31 103 -9 30 -30 93
-46 140 -16 47 -32 98 -35 113 -3 16 -12 31 -19 34 -8 3 -14 19 -14 37 0 17
-6 40 -14 51 -7 11 -16 32 -20 48 -3 15 -11 27 -16 27 -6 0 -10 8 -10 19 0 26
-27 87 -131 296 -117 236 -122 245 -136 245 -7 0 -13 11 -13 24 0 14 -6 31
-12 38 -7 7 -22 31 -33 52 -11 21 -25 41 -32 43 -7 3 -13 13 -13 23 0 10 -7
23 -15 30 -8 7 -15 19 -15 26 0 8 -6 14 -14 14 -7 0 -16 13 -19 28 -3 15 -16
39 -29 53 -13 14 -29 36 -36 50 -8 14 -27 41 -43 60 -17 19 -37 46 -45 62 -8
15 -19 27 -24 27 -6 0 -10 7 -10 15 0 9 -7 18 -15 21 -8 4 -15 12 -15 20 0 8
-6 14 -13 14 -6 0 -18 12 -24 28 -7 15 -35 51 -63 81 -27 29 -50 57 -50 62 0
5 -7 9 -15 9 -8 0 -15 7 -15 15 0 9 -7 18 -15 21 -8 4 -15 11 -15 18 0 15
-343 356 -358 356 -7 0 -12 7 -12 15 0 8 -6 15 -12 15 -7 1 -24 14 -38 30 -13
17 -27 30 -31 30 -4 0 -24 15 -44 34 -50 46 -74 66 -79 66 -3 0 -21 16 -41 35
-20 19 -50 40 -66 47 -16 7 -29 19 -29 25 0 7 -7 13 -15 13 -8 0 -15 4 -15 8
0 9 -77 62 -90 62 -4 0 -10 6 -13 13 -3 6 -22 21 -43 32 -21 11 -49 30 -63 43
-13 12 -35 25 -48 28 -13 4 -23 10 -23 16 0 5 -13 14 -30 19 -16 6 -30 15 -30
20 0 5 -6 9 -14 9 -7 0 -19 7 -26 15 -7 8 -23 15 -36 15 -15 0 -24 6 -24 15 0
9 -12 18 -30 22 -16 3 -30 9 -30 13 0 8 -39 29 -180 100 -131 66 -133 67 -162
74 -16 3 -28 11 -28 16 0 6 -13 10 -30 10 -17 0 -30 5 -30 13 0 11 -103 57
-129 57 -7 0 -19 7 -27 15 -9 8 -25 15 -37 15 -12 0 -31 7 -41 15 -11 8 -31
15 -44 15 -13 0 -30 7 -38 15 -9 8 -29 15 -45 15 -17 0 -37 7 -45 15 -9 8 -29
15 -45 15 -17 0 -37 7 -45 15 -9 8 -33 15 -54 15 -21 0 -40 5 -42 11 -2 6 -28
14 -58 17 -30 2 -58 11 -63 18 -4 7 -29 16 -55 19 -26 4 -66 13 -90 21 -23 8
-62 14 -87 14 -24 0 -45 5 -47 12 -3 7 -37 13 -89 16 -46 2 -87 10 -91 16 -4
6 -45 13 -95 15 -51 2 -91 8 -95 15 -5 8 -155 11 -550 12 -299 1 -560 -1 -580
-3z"/>
</g>
</svg>
