<svg width="1440" height="19440" viewBox="0 0 1440 19440" fill="none" xmlns="http://www.w3.org/2000/svg">
<g clip-path="url(#clip0_330_368)">
<mask id="mask0_330_368" style="mask-type:luminance" maskUnits="userSpaceOnUse" x="0" y="12960" width="1440" height="3240">
<path d="M0 12960H1440V16200H0V12960Z" fill="white"/>
</mask>
<g mask="url(#mask0_330_368)">
<path d="M0 12960H1440V16200H0V12960Z" fill="url(#paint0_linear_330_368)"/>
</g>
<path fill-rule="evenodd" clip-rule="evenodd" d="M1440 13601.9L306.819 14110.6L1325.67 12960H1440V13601.9Z" fill="url(#paint1_linear_330_368)"/>
<path fill-rule="evenodd" clip-rule="evenodd" d="M1325.67 12960L306.819 14110.6L-0.000492131 14457.1V14313.7L719.998 12960H1325.67Z" fill="url(#paint2_linear_330_368)"/>
<path fill-rule="evenodd" clip-rule="evenodd" d="M719.999 12960L9.34601e-05 14313.7V12960H719.999Z" fill="url(#paint3_linear_330_368)"/>
<path fill-rule="evenodd" clip-rule="evenodd" d="M-7.81723e-05 15558.1L1133.18 15049.4L114.326 16200H-7.81723e-05V15558.1Z" fill="url(#paint4_linear_330_368)"/>
<path fill-rule="evenodd" clip-rule="evenodd" d="M114.326 16200L1133.18 15049.4L1440 14702.9V14846.3L719.999 16200H114.326Z" fill="url(#paint5_linear_330_368)"/>
<path fill-rule="evenodd" clip-rule="evenodd" d="M719.999 16200L1440 14846.3V16200H719.999Z" fill="url(#paint6_linear_330_368)"/>
</g>
<g clip-path="url(#clip1_330_368)">
<mask id="mask1_330_368" style="mask-type:luminance" maskUnits="userSpaceOnUse" x="0" y="6480" width="1440" height="3240">
<path d="M0 6480H1440V9720H0V6480Z" fill="white"/>
</mask>
<g mask="url(#mask1_330_368)">
<path d="M0 6480H1440V9720H0V6480Z" fill="url(#paint7_linear_330_368)"/>
</g>
<path fill-rule="evenodd" clip-rule="evenodd" d="M1440 7121.87L306.819 7630.58L1325.67 6480H1440V7121.87Z" fill="url(#paint8_linear_330_368)"/>
<path fill-rule="evenodd" clip-rule="evenodd" d="M1325.67 6480L306.819 7630.58L-0.000492131 7977.08V7833.72L719.998 6480H1325.67Z" fill="url(#paint9_linear_330_368)"/>
<path fill-rule="evenodd" clip-rule="evenodd" d="M719.999 6480L9.34601e-05 7833.72V6480H719.999Z" fill="url(#paint10_linear_330_368)"/>
<path fill-rule="evenodd" clip-rule="evenodd" d="M-7.81723e-05 9078.13L1133.18 8569.41L114.326 9720H-7.81723e-05V9078.13Z" fill="url(#paint11_linear_330_368)"/>
<path fill-rule="evenodd" clip-rule="evenodd" d="M114.326 9720L1133.18 8569.41L1440 8222.92V8366.28L719.999 9720H114.326Z" fill="url(#paint12_linear_330_368)"/>
<path fill-rule="evenodd" clip-rule="evenodd" d="M719.999 9720L1440 8366.28V9720H719.999Z" fill="url(#paint13_linear_330_368)"/>
</g>
<g clip-path="url(#clip2_330_368)">
<mask id="mask2_330_368" style="mask-type:luminance" maskUnits="userSpaceOnUse" x="0" y="0" width="1440" height="3241">
<path d="M0 0H1440V3240H0V0Z" fill="white"/>
</mask>
<g mask="url(#mask2_330_368)">
<path d="M0 0H1440V3240H0V0Z" fill="url(#paint14_linear_330_368)"/>
</g>
<path fill-rule="evenodd" clip-rule="evenodd" d="M1440 641.87L306.819 1150.58L1325.67 0H1440V641.87Z" fill="url(#paint15_linear_330_368)"/>
<path fill-rule="evenodd" clip-rule="evenodd" d="M1325.67 0L306.819 1150.58L-0.000492131 1497.08V1353.72L719.998 0H1325.67Z" fill="url(#paint16_linear_330_368)"/>
<path fill-rule="evenodd" clip-rule="evenodd" d="M719.999 0L9.34601e-05 1353.72V0H719.999Z" fill="url(#paint17_linear_330_368)"/>
<path fill-rule="evenodd" clip-rule="evenodd" d="M-7.81723e-05 2598.13L1133.18 2089.41L114.326 3240H-7.81723e-05V2598.13Z" fill="url(#paint18_linear_330_368)"/>
<path fill-rule="evenodd" clip-rule="evenodd" d="M114.326 3240L1133.18 2089.41L1440 1742.92V1886.28L719.999 3240H114.326Z" fill="url(#paint19_linear_330_368)"/>
<path fill-rule="evenodd" clip-rule="evenodd" d="M719.999 3240L1440 1886.28V3240H719.999Z" fill="url(#paint20_linear_330_368)"/>
</g>
<g clip-path="url(#clip3_330_368)">
<mask id="mask3_330_368" style="mask-type:luminance" maskUnits="userSpaceOnUse" x="0" y="16200" width="1440" height="3240">
<path d="M1440 19440H0V16200H1440V19440Z" fill="white"/>
</mask>
<g mask="url(#mask3_330_368)">
<path d="M1440 19440H0V16200H1440V19440Z" fill="url(#paint21_linear_330_368)"/>
</g>
<path fill-rule="evenodd" clip-rule="evenodd" d="M0 18798.1L1133.18 18289.4L114.328 19440H0V18798.1Z" fill="url(#paint22_linear_330_368)"/>
<path fill-rule="evenodd" clip-rule="evenodd" d="M114.328 19440L1133.18 18289.4L1440 17942.9V18086.3L720.002 19440H114.328Z" fill="url(#paint23_linear_330_368)"/>
<path fill-rule="evenodd" clip-rule="evenodd" d="M720.001 19440L1440 18086.3V19440H720.001Z" fill="url(#paint24_linear_330_368)"/>
<path fill-rule="evenodd" clip-rule="evenodd" d="M1440 16841.9L306.821 17350.6L1325.67 16200H1440V16841.9Z" fill="url(#paint25_linear_330_368)"/>
<path fill-rule="evenodd" clip-rule="evenodd" d="M1325.67 16200L306.821 17350.6L0 17697.1V17553.7L720.001 16200H1325.67Z" fill="url(#paint26_linear_330_368)"/>
<path fill-rule="evenodd" clip-rule="evenodd" d="M720.001 16200L0 17553.7V16200H720.001Z" fill="url(#paint27_linear_330_368)"/>
</g>
<g clip-path="url(#clip4_330_368)">
<mask id="mask4_330_368" style="mask-type:luminance" maskUnits="userSpaceOnUse" x="0" y="9720" width="1440" height="3240">
<path d="M1440 12960H0V9720H1440V12960Z" fill="white"/>
</mask>
<g mask="url(#mask4_330_368)">
<path d="M1440 12960H0V9720H1440V12960Z" fill="url(#paint28_linear_330_368)"/>
</g>
<path fill-rule="evenodd" clip-rule="evenodd" d="M0 12318.1L1133.18 11809.4L114.328 12960H0V12318.1Z" fill="url(#paint29_linear_330_368)"/>
<path fill-rule="evenodd" clip-rule="evenodd" d="M114.328 12960L1133.18 11809.4L1440 11462.9V11606.3L720.002 12960H114.328Z" fill="url(#paint30_linear_330_368)"/>
<path fill-rule="evenodd" clip-rule="evenodd" d="M720.001 12960L1440 11606.3V12960H720.001Z" fill="url(#paint31_linear_330_368)"/>
<path fill-rule="evenodd" clip-rule="evenodd" d="M1440 10361.9L306.821 10870.6L1325.67 9720H1440V10361.9Z" fill="url(#paint32_linear_330_368)"/>
<path fill-rule="evenodd" clip-rule="evenodd" d="M1325.67 9720L306.821 10870.6L0 11217.1V11073.7L720.001 9720H1325.67Z" fill="url(#paint33_linear_330_368)"/>
<path fill-rule="evenodd" clip-rule="evenodd" d="M720.001 9720L0 11073.7V9720H720.001Z" fill="url(#paint34_linear_330_368)"/>
</g>
<g clip-path="url(#clip5_330_368)">
<mask id="mask5_330_368" style="mask-type:luminance" maskUnits="userSpaceOnUse" x="0" y="3239" width="1440" height="3241">
<path d="M1440 6480H0V3240H1440V6480Z" fill="white"/>
</mask>
<g mask="url(#mask5_330_368)">
<path d="M1440 6480H0V3240H1440V6480Z" fill="url(#paint35_linear_330_368)"/>
</g>
<path fill-rule="evenodd" clip-rule="evenodd" d="M0 5838.13L1133.18 5329.42L114.328 6480H0V5838.13Z" fill="url(#paint36_linear_330_368)"/>
<path fill-rule="evenodd" clip-rule="evenodd" d="M114.328 6480L1133.18 5329.42L1440 4982.92V5126.28L720.002 6480H114.328Z" fill="url(#paint37_linear_330_368)"/>
<path fill-rule="evenodd" clip-rule="evenodd" d="M720.001 6480L1440 5126.28V6480H720.001Z" fill="url(#paint38_linear_330_368)"/>
<path fill-rule="evenodd" clip-rule="evenodd" d="M1440 3881.87L306.821 4390.59L1325.67 3240H1440V3881.87Z" fill="url(#paint39_linear_330_368)"/>
<path fill-rule="evenodd" clip-rule="evenodd" d="M1325.67 3240L306.821 4390.59L0 4737.08V4593.72L720.001 3240H1325.67Z" fill="url(#paint40_linear_330_368)"/>
<path fill-rule="evenodd" clip-rule="evenodd" d="M720.001 3240L0 4593.72V3240H720.001Z" fill="url(#paint41_linear_330_368)"/>
</g>
<defs>
<linearGradient id="paint0_linear_330_368" x1="908.999" y1="16372.9" x2="528.441" y2="12762.8" gradientUnits="userSpaceOnUse">
<stop stop-color="#F4B3EF"/>
<stop offset="0.5" stop-color="#B2E5F8"/>
<stop offset="1" stop-color="#F2F3E2"/>
</linearGradient>
<linearGradient id="paint1_linear_330_368" x1="873.41" y1="12960" x2="873.41" y2="14110.6" gradientUnits="userSpaceOnUse">
<stop stop-color="#C9DEF4"/>
<stop offset="0.36" stop-color="#F5CCD4"/>
<stop offset="1" stop-color="#B8A4C9"/>
</linearGradient>
<linearGradient id="paint2_linear_330_368" x1="662.836" y1="12960" x2="662.836" y2="14457.1" gradientUnits="userSpaceOnUse">
<stop stop-color="#C9DEF4"/>
<stop offset="0.36" stop-color="#F5CCD4"/>
<stop offset="1" stop-color="#B8A4C9"/>
</linearGradient>
<linearGradient id="paint3_linear_330_368" x1="360" y1="12960" x2="360" y2="14313.7" gradientUnits="userSpaceOnUse">
<stop stop-color="#C9DEF4"/>
<stop offset="0.36" stop-color="#F5CCD4"/>
<stop offset="1" stop-color="#B8A4C9"/>
</linearGradient>
<linearGradient id="paint4_linear_330_368" x1="566.589" y1="15049.4" x2="566.589" y2="16200" gradientUnits="userSpaceOnUse">
<stop stop-color="#C9DEF4"/>
<stop offset="0.36" stop-color="#F5CCD4"/>
<stop offset="1" stop-color="#B8A4C9"/>
</linearGradient>
<linearGradient id="paint5_linear_330_368" x1="777.163" y1="14702.9" x2="777.163" y2="16200" gradientUnits="userSpaceOnUse">
<stop stop-color="#C9DEF4"/>
<stop offset="0.36" stop-color="#F5CCD4"/>
<stop offset="1" stop-color="#B8A4C9"/>
</linearGradient>
<linearGradient id="paint6_linear_330_368" x1="1080" y1="14846.3" x2="1080" y2="16200" gradientUnits="userSpaceOnUse">
<stop stop-color="#C9DEF4"/>
<stop offset="0.36" stop-color="#F5CCD4"/>
<stop offset="1" stop-color="#B8A4C9"/>
</linearGradient>
<linearGradient id="paint7_linear_330_368" x1="908.999" y1="9892.93" x2="528.441" y2="6282.78" gradientUnits="userSpaceOnUse">
<stop stop-color="#F4B3EF"/>
<stop offset="0.5" stop-color="#B2E5F8"/>
<stop offset="1" stop-color="#F2F3E2"/>
</linearGradient>
<linearGradient id="paint8_linear_330_368" x1="873.41" y1="6480" x2="873.41" y2="7630.58" gradientUnits="userSpaceOnUse">
<stop stop-color="#C9DEF4"/>
<stop offset="0.36" stop-color="#F5CCD4"/>
<stop offset="1" stop-color="#B8A4C9"/>
</linearGradient>
<linearGradient id="paint9_linear_330_368" x1="662.836" y1="6480" x2="662.836" y2="7977.08" gradientUnits="userSpaceOnUse">
<stop stop-color="#C9DEF4"/>
<stop offset="0.36" stop-color="#F5CCD4"/>
<stop offset="1" stop-color="#B8A4C9"/>
</linearGradient>
<linearGradient id="paint10_linear_330_368" x1="360" y1="6480" x2="360" y2="7833.72" gradientUnits="userSpaceOnUse">
<stop stop-color="#C9DEF4"/>
<stop offset="0.36" stop-color="#F5CCD4"/>
<stop offset="1" stop-color="#B8A4C9"/>
</linearGradient>
<linearGradient id="paint11_linear_330_368" x1="566.589" y1="8569.41" x2="566.589" y2="9720" gradientUnits="userSpaceOnUse">
<stop stop-color="#C9DEF4"/>
<stop offset="0.36" stop-color="#F5CCD4"/>
<stop offset="1" stop-color="#B8A4C9"/>
</linearGradient>
<linearGradient id="paint12_linear_330_368" x1="777.163" y1="8222.92" x2="777.163" y2="9720" gradientUnits="userSpaceOnUse">
<stop stop-color="#C9DEF4"/>
<stop offset="0.36" stop-color="#F5CCD4"/>
<stop offset="1" stop-color="#B8A4C9"/>
</linearGradient>
<linearGradient id="paint13_linear_330_368" x1="1080" y1="8366.28" x2="1080" y2="9720" gradientUnits="userSpaceOnUse">
<stop stop-color="#C9DEF4"/>
<stop offset="0.36" stop-color="#F5CCD4"/>
<stop offset="1" stop-color="#B8A4C9"/>
</linearGradient>
<linearGradient id="paint14_linear_330_368" x1="908.999" y1="3412.93" x2="528.441" y2="-197.222" gradientUnits="userSpaceOnUse">
<stop stop-color="#F4B3EF"/>
<stop offset="0.5" stop-color="#B2E5F8"/>
<stop offset="1" stop-color="#F2F3E2"/>
</linearGradient>
<linearGradient id="paint15_linear_330_368" x1="873.41" y1="0" x2="873.41" y2="1150.58" gradientUnits="userSpaceOnUse">
<stop stop-color="#C9DEF4"/>
<stop offset="0.36" stop-color="#F5CCD4"/>
<stop offset="1" stop-color="#B8A4C9"/>
</linearGradient>
<linearGradient id="paint16_linear_330_368" x1="662.836" y1="0" x2="662.836" y2="1497.08" gradientUnits="userSpaceOnUse">
<stop stop-color="#C9DEF4"/>
<stop offset="0.36" stop-color="#F5CCD4"/>
<stop offset="1" stop-color="#B8A4C9"/>
</linearGradient>
<linearGradient id="paint17_linear_330_368" x1="360" y1="0" x2="360" y2="1353.72" gradientUnits="userSpaceOnUse">
<stop stop-color="#C9DEF4"/>
<stop offset="0.36" stop-color="#F5CCD4"/>
<stop offset="1" stop-color="#B8A4C9"/>
</linearGradient>
<linearGradient id="paint18_linear_330_368" x1="566.589" y1="2089.41" x2="566.589" y2="3240" gradientUnits="userSpaceOnUse">
<stop stop-color="#C9DEF4"/>
<stop offset="0.36" stop-color="#F5CCD4"/>
<stop offset="1" stop-color="#B8A4C9"/>
</linearGradient>
<linearGradient id="paint19_linear_330_368" x1="777.163" y1="1742.92" x2="777.163" y2="3240" gradientUnits="userSpaceOnUse">
<stop stop-color="#C9DEF4"/>
<stop offset="0.36" stop-color="#F5CCD4"/>
<stop offset="1" stop-color="#B8A4C9"/>
</linearGradient>
<linearGradient id="paint20_linear_330_368" x1="1080" y1="1886.28" x2="1080" y2="3240" gradientUnits="userSpaceOnUse">
<stop stop-color="#C9DEF4"/>
<stop offset="0.36" stop-color="#F5CCD4"/>
<stop offset="1" stop-color="#B8A4C9"/>
</linearGradient>
<linearGradient id="paint21_linear_330_368" x1="531.001" y1="16027.1" x2="911.559" y2="19637.2" gradientUnits="userSpaceOnUse">
<stop stop-color="#F4B3EF"/>
<stop offset="0.5" stop-color="#B2E5F8"/>
<stop offset="1" stop-color="#F2F3E2"/>
</linearGradient>
<linearGradient id="paint22_linear_330_368" x1="566.59" y1="19440" x2="566.59" y2="18289.4" gradientUnits="userSpaceOnUse">
<stop stop-color="#C9DEF4"/>
<stop offset="0.36" stop-color="#F5CCD4"/>
<stop offset="1" stop-color="#B8A4C9"/>
</linearGradient>
<linearGradient id="paint23_linear_330_368" x1="777.164" y1="19440" x2="777.164" y2="17942.9" gradientUnits="userSpaceOnUse">
<stop stop-color="#C9DEF4"/>
<stop offset="0.36" stop-color="#F5CCD4"/>
<stop offset="1" stop-color="#B8A4C9"/>
</linearGradient>
<linearGradient id="paint24_linear_330_368" x1="1080" y1="19440" x2="1080" y2="18086.3" gradientUnits="userSpaceOnUse">
<stop stop-color="#C9DEF4"/>
<stop offset="0.36" stop-color="#F5CCD4"/>
<stop offset="1" stop-color="#B8A4C9"/>
</linearGradient>
<linearGradient id="paint25_linear_330_368" x1="873.411" y1="17350.6" x2="873.411" y2="16200" gradientUnits="userSpaceOnUse">
<stop stop-color="#C9DEF4"/>
<stop offset="0.36" stop-color="#F5CCD4"/>
<stop offset="1" stop-color="#B8A4C9"/>
</linearGradient>
<linearGradient id="paint26_linear_330_368" x1="662.837" y1="17697.1" x2="662.837" y2="16200" gradientUnits="userSpaceOnUse">
<stop stop-color="#C9DEF4"/>
<stop offset="0.36" stop-color="#F5CCD4"/>
<stop offset="1" stop-color="#B8A4C9"/>
</linearGradient>
<linearGradient id="paint27_linear_330_368" x1="360.001" y1="17553.7" x2="360.001" y2="16200" gradientUnits="userSpaceOnUse">
<stop stop-color="#C9DEF4"/>
<stop offset="0.36" stop-color="#F5CCD4"/>
<stop offset="1" stop-color="#B8A4C9"/>
</linearGradient>
<linearGradient id="paint28_linear_330_368" x1="531.001" y1="9547.07" x2="911.559" y2="13157.2" gradientUnits="userSpaceOnUse">
<stop stop-color="#F4B3EF"/>
<stop offset="0.5" stop-color="#B2E5F8"/>
<stop offset="1" stop-color="#F2F3E2"/>
</linearGradient>
<linearGradient id="paint29_linear_330_368" x1="566.59" y1="12960" x2="566.59" y2="11809.4" gradientUnits="userSpaceOnUse">
<stop stop-color="#C9DEF4"/>
<stop offset="0.36" stop-color="#F5CCD4"/>
<stop offset="1" stop-color="#B8A4C9"/>
</linearGradient>
<linearGradient id="paint30_linear_330_368" x1="777.164" y1="12960" x2="777.164" y2="11462.9" gradientUnits="userSpaceOnUse">
<stop stop-color="#C9DEF4"/>
<stop offset="0.36" stop-color="#F5CCD4"/>
<stop offset="1" stop-color="#B8A4C9"/>
</linearGradient>
<linearGradient id="paint31_linear_330_368" x1="1080" y1="12960" x2="1080" y2="11606.3" gradientUnits="userSpaceOnUse">
<stop stop-color="#C9DEF4"/>
<stop offset="0.36" stop-color="#F5CCD4"/>
<stop offset="1" stop-color="#B8A4C9"/>
</linearGradient>
<linearGradient id="paint32_linear_330_368" x1="873.411" y1="10870.6" x2="873.411" y2="9720" gradientUnits="userSpaceOnUse">
<stop stop-color="#C9DEF4"/>
<stop offset="0.36" stop-color="#F5CCD4"/>
<stop offset="1" stop-color="#B8A4C9"/>
</linearGradient>
<linearGradient id="paint33_linear_330_368" x1="662.837" y1="11217.1" x2="662.837" y2="9720" gradientUnits="userSpaceOnUse">
<stop stop-color="#C9DEF4"/>
<stop offset="0.36" stop-color="#F5CCD4"/>
<stop offset="1" stop-color="#B8A4C9"/>
</linearGradient>
<linearGradient id="paint34_linear_330_368" x1="360.001" y1="11073.7" x2="360.001" y2="9720" gradientUnits="userSpaceOnUse">
<stop stop-color="#C9DEF4"/>
<stop offset="0.36" stop-color="#F5CCD4"/>
<stop offset="1" stop-color="#B8A4C9"/>
</linearGradient>
<linearGradient id="paint35_linear_330_368" x1="531.001" y1="3067.07" x2="911.559" y2="6677.22" gradientUnits="userSpaceOnUse">
<stop stop-color="#F4B3EF"/>
<stop offset="0.5" stop-color="#B2E5F8"/>
<stop offset="1" stop-color="#F2F3E2"/>
</linearGradient>
<linearGradient id="paint36_linear_330_368" x1="566.59" y1="6480" x2="566.59" y2="5329.42" gradientUnits="userSpaceOnUse">
<stop stop-color="#C9DEF4"/>
<stop offset="0.36" stop-color="#F5CCD4"/>
<stop offset="1" stop-color="#B8A4C9"/>
</linearGradient>
<linearGradient id="paint37_linear_330_368" x1="777.164" y1="6480" x2="777.164" y2="4982.92" gradientUnits="userSpaceOnUse">
<stop stop-color="#C9DEF4"/>
<stop offset="0.36" stop-color="#F5CCD4"/>
<stop offset="1" stop-color="#B8A4C9"/>
</linearGradient>
<linearGradient id="paint38_linear_330_368" x1="1080" y1="6480" x2="1080" y2="5126.28" gradientUnits="userSpaceOnUse">
<stop stop-color="#C9DEF4"/>
<stop offset="0.36" stop-color="#F5CCD4"/>
<stop offset="1" stop-color="#B8A4C9"/>
</linearGradient>
<linearGradient id="paint39_linear_330_368" x1="873.411" y1="4390.59" x2="873.411" y2="3240" gradientUnits="userSpaceOnUse">
<stop stop-color="#C9DEF4"/>
<stop offset="0.36" stop-color="#F5CCD4"/>
<stop offset="1" stop-color="#B8A4C9"/>
</linearGradient>
<linearGradient id="paint40_linear_330_368" x1="662.837" y1="4737.08" x2="662.837" y2="3240" gradientUnits="userSpaceOnUse">
<stop stop-color="#C9DEF4"/>
<stop offset="0.36" stop-color="#F5CCD4"/>
<stop offset="1" stop-color="#B8A4C9"/>
</linearGradient>
<linearGradient id="paint41_linear_330_368" x1="360.001" y1="4593.72" x2="360.001" y2="3240" gradientUnits="userSpaceOnUse">
<stop stop-color="#C9DEF4"/>
<stop offset="0.36" stop-color="#F5CCD4"/>
<stop offset="1" stop-color="#B8A4C9"/>
</linearGradient>
<clipPath id="clip0_330_368">
<rect width="1440" height="3240" fill="white" transform="matrix(-1 0 0 1 1440 12960)"/>
</clipPath>
<clipPath id="clip1_330_368">
<rect width="1440" height="3240" fill="white" transform="matrix(-1 0 0 1 1440 6480)"/>
</clipPath>
<clipPath id="clip2_330_368">
<rect width="1440" height="3240" fill="white" transform="matrix(-1 0 0 1 1440 0)"/>
</clipPath>
<clipPath id="clip3_330_368">
<rect width="1440" height="3240" fill="white" transform="matrix(1 0 0 -1 0 19440)"/>
</clipPath>
<clipPath id="clip4_330_368">
<rect width="1440" height="3240" fill="white" transform="matrix(1 0 0 -1 0 12960)"/>
</clipPath>
<clipPath id="clip5_330_368">
<rect width="1440" height="3240" fill="white" transform="matrix(1 0 0 -1 0 6480)"/>
</clipPath>
</defs>
</svg>
