<?xml version="1.0" encoding="utf-8"?>
<!-- Generator: Adobe Illustrator 27.5.0, SVG Export Plug-In . SVG Version: 6.00 Build 0)  -->
<svg version="1.1" xmlns="http://www.w3.org/2000/svg" xmlns:xlink="http://www.w3.org/1999/xlink" x="0px" y="0px"
	 viewBox="0 0 500 500" style="enable-background:new 0 0 500 500;" xml:space="preserve">
<g id="Background_Complete">
	<g>
		<g>
			<g>
				<g>
					<g>
						<g>
							<g>
								<g>
									<g>
										<g>
											
												<rect x="350.636" y="239.71" transform="matrix(0.9922 -0.1246 0.1246 0.9922 -32.381 53.0269)" style="fill:#FAFAFA;" width="114.468" height="91.514"/>
										</g>
									</g>
								</g>
							</g>
						</g>
						<g>
							<g>
								<g>
									<g>
										<g>
											<g>
												<path style="fill:#E0E0E0;" d="M458.96,232.938c0,0-0.19,0.036-0.548,0.086c-0.375,0.051-0.902,0.123-1.592,0.217
													c-1.416,0.186-3.481,0.457-6.166,0.81c-5.398,0.696-13.267,1.711-23.243,2.997c-19.945,2.54-48.293,6.151-81.991,10.443
													l0.258-0.331c3.403,27.025,7.304,58.005,11.432,90.788l0.001,0.009l-0.37-0.288
													c42.05-5.258,81.129-10.144,113.584-14.203l-0.239,0.308c-3.373-27.349-6.17-50.019-8.125-65.873
													c-0.965-7.931-1.721-14.154-2.24-18.415c-0.252-2.117-0.445-3.742-0.578-4.86
													C459.013,233.523,458.96,232.938,458.96,232.938s0.088,0.54,0.234,1.622c0.146,1.104,0.358,2.71,0.634,4.8
													c0.549,4.243,1.351,10.438,2.373,18.335c2.029,15.888,4.931,38.605,8.431,66.01l0.035,0.274l-0.275,0.035
													c-32.451,4.09-71.524,9.014-113.57,14.314l-0.329,0.042l-0.041-0.33l-0.001-0.01
													c-4.103-32.786-7.981-63.769-11.363-90.796l-0.037-0.295l0.295-0.036c33.793-4.181,62.219-7.697,82.219-10.171
													c9.956-1.216,17.809-2.175,23.196-2.833c2.663-0.319,4.712-0.564,6.117-0.732c0.677-0.078,1.195-0.137,1.563-0.179
													C458.789,232.947,458.96,232.938,458.96,232.938z"/>
											</g>
										</g>
									</g>
								</g>
							</g>
						</g>
					</g>
				</g>
			</g>
			<g>
				<g>
					<g>
						<g>
							<g>
								
									<rect x="354.583" y="245.481" transform="matrix(0.9922 -0.1246 0.1246 0.9922 -32.3825 53.0173)" style="fill:#EBEBEB;" width="106.426" height="79.992"/>
							</g>
						</g>
					</g>
				</g>
			</g>
			<g>
				<g>
					<g>
						<g>
							<g>
								<polygon style="fill:#E0E0E0;" points="359.979,331.79 390.669,277.824 417.39,305.823 430.815,287.376 465.577,318.534 
																	"/>
							</g>
						</g>
					</g>
				</g>
			</g>
			<g>
				<g>
					<g>
						<g>
							<g>
								<g>
									<g>
										<path style="fill:#E0E0E0;" d="M422.455,267.695c0.576,4.592-2.679,8.782-7.271,9.359
											c-4.592,0.576-8.782-2.679-9.358-7.271c-0.577-4.592,2.678-8.782,7.271-9.358
											C417.689,259.848,421.879,263.103,422.455,267.695z"/>
									</g>
								</g>
							</g>
						</g>
					</g>
				</g>
			</g>
		</g>
	</g>
	<g>
		<g>
			<g>
				<g>
					<g>
						<g>
							<g>
								<path style="fill:#EBEBEB;" d="M93.082,100.897l-5.179-1.846l-5.687-19.78l3.686-10.338c0,0-7.829-3.346-11.714,10.526
									c-3.883,13.873-3.674,10.063-3.674,10.063s-17.021-5.994-18.959-5.021c-1.41,0.707-7.893,17.425-11.335,26.518
									c-1.733,4.578-0.434,9.873,3.465,12.49c0.553,0.373,1.137,0.683,1.741,0.898c4.239,1.511,27.128,5.787,27.128,5.787
									l8.946,3.189L93.082,100.897z"/>
							</g>
						</g>
					</g>
				</g>
			</g>
			<g>
				<g>
					<g>
						<g>
							<g>
								<polygon style="fill:#EBEBEB;" points="108.92,103.345 93.107,137.631 84.237,134.469 96.611,99.76 								"/>
							</g>
						</g>
					</g>
				</g>
			</g>
		</g>
	</g>
	<g>
		<g>
			<g>
				<path style="fill:#F5F5F5;" d="M155.807,58.402c0.169-2.654-0.654-5.316-2.047-7.582c-1.365-2.22-3.324-4.128-5.732-5.124
					c-2.558-1.057-5.551-1.01-8.074,0.129c-1.5,0.677-2.821,1.735-3.834,3.031c-0.514-1.404-1.329-2.698-2.393-3.749
					c-1.969-1.946-4.758-3.032-7.524-2.931c-2.604,0.095-5.105,1.203-7.157,2.808c-2.095,1.639-3.793,3.848-4.558,6.395
					c-0.958,3.191-0.969,6.869,0.216,9.983c1.251,3.288,3.703,6.202,6.348,8.522c4.447,3.9,10.338,8.842,10.338,8.842
					s6.296-3.154,11.823-5.262c3.287-1.254,6.6-3.132,8.917-5.779C154.324,65.178,155.595,61.726,155.807,58.402z"/>
			</g>
		</g>
	</g>
	<g>
		<g>
			<g>
				<path style="fill:#F5F5F5;" d="M183.4,67.748c-0.266-1.056-0.919-1.992-1.746-2.701c-0.81-0.695-1.812-1.194-2.876-1.282
					c-1.13-0.093-2.291,0.3-3.132,1.059c-0.501,0.452-0.883,1.029-1.116,1.661c-0.376-0.483-0.855-0.886-1.402-1.163
					c-1.011-0.513-2.235-0.588-3.301-0.203c-1.004,0.363-1.841,1.107-2.44,1.99c-0.612,0.901-0.998,1.975-0.978,3.064
					c0.025,1.364,0.481,2.8,1.332,3.866c0.899,1.126,2.22,1.956,3.541,2.53c2.222,0.965,5.137,2.156,5.137,2.156
					s2.061-2.017,3.953-3.53c1.125-0.9,2.182-2.046,2.755-3.368C183.669,70.577,183.733,69.071,183.4,67.748z"/>
			</g>
		</g>
	</g>
</g>
<g id="Background_Simple" style="display:none;">
	<g style="display:inline;">
		<path style="fill:#EBEBEB;" d="M448.888,247.947l-0.884-1.457c-7.452-12.28-20.924-19.682-35.129-18.784
			c-1.826,0.115-3.644,0.363-5.438,0.747c-12.915,2.765-24.152,12.531-28.81,25.039c-2.739,7.356-3.505,15.826-8.703,21.665
			c-6.766,7.599-18.252,7.838-28.35,7.523c-10.099-0.315-21.592-0.046-28.325,7.583c-4.217,4.778-5.557,11.572-5.217,17.971
			c0.9,16.941,12.705,32.088,27.717,39.617c15.012,7.529,32.688,8.203,49.118,4.891c23.017-4.64,44.905-17.382,58.062-37.061
			C456.085,296,459.415,269.188,448.888,247.947z"/>
	</g>
	<g style="display:inline;">
		<path style="fill:#EBEBEB;" d="M49.884,142.093l1.149,0.8c9.689,6.742,22.276,7.813,32.648,2.406
			c1.333-0.695,2.617-1.487,3.836-2.373c8.781-6.38,13.968-17.461,13.3-28.409c-0.393-6.439-2.64-13.056-0.681-19.175
			c2.55-7.963,11.1-11.969,18.791-15.098c7.691-3.128,16.236-7.16,18.752-15.134c1.576-4.994,0.318-10.545-2.069-15.238
			C129.289,37.446,115.374,30,101.588,29.347c-13.786-0.654-27.289,4.729-38.528,12.692c-15.744,11.155-27.942,28.02-31.268,47.187
			C28.467,108.393,34.899,129.644,49.884,142.093z"/>
	</g>
	<g style="display:inline;">
		<circle style="fill:#EBEBEB;" cx="186.072" cy="56.168" r="25.859"/>
	</g>
</g>
<g id="Picture_2">
	<g>
		<g>
			<g>
				<g>
					<g>
						<g>
							<g>
								
									<rect x="328.805" y="49.37" transform="matrix(0.28 -0.96 0.96 0.28 172.9357 466.0612)" style="fill:#FAFAFA;" width="136.741" height="136.741"/>
							</g>
							<g>
								<g>
									<path style="fill:#263238;" d="M443.667,202.52c0,0,0.054-0.216,0.169-0.625c0.118-0.416,0.29-1.021,0.517-1.817
										c0.462-1.605,1.143-3.972,2.031-7.056c1.786-6.173,4.402-15.211,7.729-26.711c6.672-22.975,16.198-55.776,27.625-95.125
										l0.153,0.279c-38.157-11.118-83.205-24.245-131.268-38.25l-0.012-0.004l0.323-0.177
										C336.9,81.1,323.75,126.145,312.612,164.295l-0.153-0.279c39.327,11.52,72.107,21.122,95.065,27.847
										c11.485,3.376,20.511,6.03,26.676,7.842c3.077,0.91,5.438,1.607,7.04,2.081c0.792,0.237,1.395,0.417,1.81,0.541
										C443.456,202.449,443.667,202.52,443.667,202.52s-0.199-0.049-0.601-0.162c-0.41-0.117-1.008-0.287-1.793-0.51
										c-1.596-0.459-3.948-1.136-7.013-2.018c-6.161-1.783-15.182-4.393-26.66-7.715c-23.007-6.681-55.856-16.221-95.267-27.667
										l-0.216-0.063l0.063-0.217c11.118-38.156,24.246-83.207,38.254-131.281l0.073-0.25l0.25,0.073l0.013,0.004
										c48.056,14.03,93.098,27.179,131.249,38.317l0.217,0.063l-0.063,0.216c-11.535,39.38-21.151,72.207-27.886,95.199
										c-3.37,11.465-6.019,20.475-7.828,26.63c-0.904,3.059-1.598,5.407-2.069,6.999c-0.234,0.783-0.412,1.378-0.534,1.787
										C443.733,202.325,443.667,202.52,443.667,202.52z"/>
								</g>
							</g>
						</g>
					</g>
				</g>
			</g>
			<g>
				<g>
					<g>
						<g>
							
								<rect x="335.527" y="55.324" transform="matrix(0.96 0.28 -0.28 0.96 48.4581 -106.3943)" style="fill:#EBEBEB;" width="122.164" height="122.164"/>
						</g>
					</g>
				</g>
			</g>
			<g>
				<g>
					<g>
						<g>
							<g>
								<path style="fill:#263238;" d="M438.145,192.148c0,0,0.048-0.194,0.15-0.56c0.106-0.374,0.259-0.915,0.461-1.625
									c0.413-1.437,1.02-3.551,1.812-6.307c1.595-5.518,3.93-13.594,6.9-23.868c5.958-20.526,14.464-49.829,24.667-84.981
									l0.153,0.279c-34.09-9.932-74.336-21.658-117.276-34.169L355,40.914l0.323-0.177
									c-12.538,42.942-24.288,83.184-34.24,117.268l-0.153-0.279c35.13,10.296,64.41,18.877,84.92,24.888
									c10.26,3.019,18.323,5.392,23.833,7.013c2.749,0.813,4.858,1.438,6.291,1.862c0.707,0.212,1.246,0.374,1.618,0.485
									C437.956,192.084,438.145,192.148,438.145,192.148s-0.178-0.043-0.536-0.143c-0.368-0.104-0.901-0.256-1.601-0.454
									c-1.427-0.41-3.527-1.014-6.264-1.8c-5.506-1.592-13.564-3.921-23.817-6.885c-20.558-5.967-49.909-14.487-85.122-24.708
									l-0.216-0.063l0.063-0.217c9.932-34.089,21.659-74.338,34.172-117.287l0.073-0.25l0.25,0.073l0.011,0.003
									c42.932,12.535,83.172,24.285,117.257,34.236l0.216,0.063l-0.063,0.216c-10.311,35.182-18.906,64.511-24.927,85.055
									c-3.013,10.239-5.381,18.287-6.999,23.786c-0.808,2.731-1.429,4.826-1.85,6.25c-0.209,0.697-0.368,1.228-0.478,1.595
									C438.204,191.975,438.145,192.148,438.145,192.148z"/>
							</g>
						</g>
					</g>
				</g>
			</g>
		</g>
		<g>
			<g>
				<g>
					<g>
						<g>
							<g>
								<g>
									<path style="fill:#455A64;" d="M417.231,144.457l-40.61-11.771c-2.151-0.624-3.39-2.874-2.767-5.025l7.113-24.542
										c0.624-2.152,2.874-3.39,5.025-2.767l40.609,11.77c2.152,0.624,3.39,2.874,2.767,5.025l-7.113,24.542
										C421.632,143.842,419.383,145.081,417.231,144.457z"/>
								</g>
							</g>
						</g>
					</g>
				</g>
				<g style="opacity:0.3;">
					<g>
						<g>
							<g>
								<g>
									<path d="M417.231,144.457l-40.61-11.771c-2.151-0.624-3.39-2.874-2.767-5.025l7.113-24.542
										c0.624-2.152,2.874-3.39,5.025-2.767l40.609,11.77c2.152,0.624,3.39,2.874,2.767,5.025l-7.113,24.542
										C421.632,143.842,419.383,145.081,417.231,144.457z"/>
								</g>
							</g>
						</g>
					</g>
				</g>
				<g>
					<g>
						<g>
							<g>
								<g>
									<g>
										<path style="fill:#263238;" d="M415.603,115.401c-0.019-0.008,0.044-0.221,0.181-0.619
											c0.162-0.458,0.365-1.033,0.613-1.736c0.517-1.507,1.329-3.686,1.821-6.481c0.477-2.754,0.516-6.315-1.213-9.626
											c-0.857-1.637-2.235-3.07-4.001-4.046c-1.755-0.99-3.788-1.653-5.863-2.256c-4.128-1.183-8.447-1.55-11.88-0.073
											c-1.706,0.715-3.101,1.848-4.152,3.12c-1.064,1.265-1.815,2.637-2.378,3.931c-1.105,2.611-1.533,4.902-1.871,6.457
											c-0.149,0.73-0.271,1.327-0.369,1.803c-0.088,0.412-0.144,0.627-0.164,0.623c-0.02-0.003-0.004-0.225,0.047-0.643
											c0.051-0.418,0.134-1.034,0.26-1.825c0.27-1.573,0.634-3.889,1.712-6.577c0.551-1.333,1.299-2.754,2.386-4.08
											c1.071-1.331,2.528-2.542,4.315-3.308c1.778-0.781,3.829-1.091,5.914-1.041c2.091,0.056,4.224,0.45,6.34,1.045
											c2.105,0.614,4.157,1.282,5.99,2.322c1.839,1.021,3.315,2.57,4.195,4.294c1.784,3.486,1.678,7.159,1.143,9.953
											c-0.555,2.836-1.434,5.002-2.017,6.488c-0.3,0.743-0.546,1.313-0.718,1.698
											C415.722,115.21,415.622,115.408,415.603,115.401z"/>
									</g>
								</g>
							</g>
						</g>
					</g>
				</g>
				<g>
					<g>
						<g>
							<g>
								<g>
									<path style="fill:#455A64;" d="M411.171,142.507l-40.609-11.77c-2.152-0.624-3.39-2.873-2.767-5.025l7.113-24.542
										c0.624-2.152,2.874-3.39,5.025-2.767l40.609,11.771c2.152,0.624,3.391,2.873,2.767,5.025l-7.113,24.542
										C415.572,141.892,413.322,143.13,411.171,142.507z"/>
								</g>
							</g>
						</g>
					</g>
				</g>
				<g>
					<g>
						<g>
							<g>
								<g>
									<g>
										<path style="fill:#263238;" d="M411.171,142.507c0.004-0.046,0.555,0.197,1.614,0.072
											c0.521-0.075,1.163-0.275,1.792-0.719c0.618-0.447,1.221-1.158,1.497-2.117c1.124-3.956,2.734-9.622,4.719-16.61
											c0.502-1.753,1.027-3.589,1.575-5.501c0.261-0.948,0.584-1.95,0.809-2.907c0.173-0.959-0.05-2.002-0.63-2.828
											c-0.583-0.848-1.48-1.383-2.554-1.622c-1.064-0.306-2.146-0.617-3.243-0.932c-2.195-0.632-4.453-1.282-6.768-1.949
											c-9.263-2.677-19.441-5.619-30.126-8.708c-1.243-0.365-2.648-0.039-3.584,0.836c-0.475,0.425-0.829,0.975-1.028,1.576
											c-0.192,0.65-0.383,1.298-0.573,1.944c-0.756,2.601-1.5,5.165-2.232,7.684c-1.466,5.036-2.88,9.894-4.228,14.523
											c-0.181,0.592-0.327,1.112-0.308,1.677c0.014,0.555,0.152,1.103,0.395,1.594c0.481,0.996,1.396,1.721,2.445,1.997
											c2.191,0.64,4.319,1.262,6.377,1.863c4.111,1.205,7.942,2.328,11.443,3.354c6.966,2.06,12.615,3.731,16.558,4.897
											c1.925,0.583,3.433,1.039,4.493,1.36c0.489,0.154,0.874,0.276,1.164,0.368
											C411.041,142.448,411.173,142.497,411.171,142.507c-0.003,0.01-0.141-0.02-0.408-0.087
											c-0.295-0.078-0.685-0.181-1.181-0.312c-1.068-0.296-2.586-0.717-4.524-1.254c-3.955-1.123-9.622-2.732-16.61-4.717
											c-3.507-1.005-7.345-2.105-11.463-3.285c-2.06-0.592-4.191-1.205-6.385-1.835c-1.163-0.299-2.232-1.13-2.777-2.259
											c-0.279-0.559-0.438-1.183-0.456-1.818c-0.029-0.633,0.153-1.285,0.323-1.841c1.337-4.632,2.74-9.493,4.194-14.533
											c0.729-2.52,1.47-5.084,2.223-7.686c0.194-0.655,0.365-1.294,0.579-1.968c0.23-0.694,0.64-1.332,1.189-1.824
											c1.08-1.011,2.709-1.39,4.144-0.967c10.68,3.104,20.854,6.061,30.113,8.752c2.313,0.675,4.569,1.333,6.761,1.972
											c1.096,0.32,2.175,0.636,3.238,0.946c1.087,0.237,2.192,0.877,2.816,1.828c0.65,0.934,0.894,2.11,0.694,3.188
											c-0.253,1.054-0.565,1.983-0.837,2.952c-0.56,1.908-1.098,3.74-1.611,5.49c-2.061,6.967-3.733,12.616-4.899,16.559
											c-0.309,1.009-0.961,1.744-1.616,2.194c-0.668,0.448-1.339,0.636-1.878,0.693
											C411.703,142.786,411.171,142.507,411.171,142.507z"/>
									</g>
								</g>
							</g>
						</g>
					</g>
				</g>
			</g>
		</g>
		<g>
			<path style="fill:#455A64;" d="M382.701,117.061c-0.204,1.43-1.529,2.424-2.959,2.219s-2.424-1.529-2.219-2.959
				c0.204-1.43,1.529-2.424,2.959-2.219S382.905,115.631,382.701,117.061z"/>
		</g>
		<g>
			
				<rect x="359.522" y="93.529" transform="matrix(0.1414 -0.9899 0.9899 0.1414 196.4298 454.1282)" style="fill:#455A64;" width="1" height="40.586"/>
		</g>
	</g>
</g>
<g id="Plant">
	<g>
		<g>
			<g>
				<g>
					<path style="fill:#FF725E;" d="M425.85,341.432c0,0-6.707-3.58-12.981,12.247c-6.274,15.827-8.37,24.811-8.37,24.811
						s-1.736,3.356-4.105,1.493c-2.368-1.864-5.898-7.451-9.493-6.046c-3.728,1.457-4.587,5.852-3.265,12.066
						c1.323,6.215,3.72,19.938,3.932,21.179c0.208,1.219-0.324,3.094-2.141,2.083c-1.817-1.011-12.663-11.019-17.104-5.588
						c-4.441,5.431,2.088,22.139,2.767,23.98c0.679,1.84,0.385,2.681-0.467,3.233c-0.853,0.551-4.181-3.156-7.383-5.876
						c-3.202-2.72-7.391-5.313-9.69-1.965c-2.3,3.348-1.915,16.31,12.317,36.082l7.195,8.73l11.236-1.691
						c23.826-5.084,32.818-14.426,33.364-18.451c0.546-4.025-4.299-4.919-8.498-5.055c-4.199-0.136-9.155,0.374-9.416-0.608
						c-0.261-0.981,0.087-1.801,1.826-2.708c1.739-0.907,17.8-8.897,18.16-15.903c0.359-7.006-14.398-6.88-16.423-7.352
						c-2.025-0.472-1.16-2.218-0.186-2.981c0.991-0.777,11.986-9.331,17.141-13.046c5.155-3.715,7.471-7.548,5.688-11.131
						c-1.719-3.455-8.087-1.689-11.094-1.899c-3.006-0.211-2.038-3.863-2.038-3.863s4.483-8.063,10.469-24.001
						c5.986-15.939-1.582-17.802-1.582-17.802"/>
				</g>
			</g>
		</g>
		<g>
			<g>
				<g>
					<g>
						<path style="fill:#263238;" d="M376.717,467.958c4.439-11.689,10.71-27.786,17.695-45.544
							c6.983-17.752,13.293-33.83,17.797-45.493c2.242-5.822,4.058-10.539,5.321-13.818c0.625-1.618,1.113-2.88,1.451-3.756
							c0.165-0.416,0.294-0.739,0.387-0.973c0.089-0.219,0.144-0.327,0.144-0.327s-0.03,0.118-0.107,0.341
							c-0.084,0.237-0.201,0.565-0.351,0.987c-0.322,0.881-0.788,2.152-1.384,3.781c-1.206,3.282-2.985,8.019-5.207,13.862
							c-4.439,11.689-10.709,27.784-17.693,45.537c-6.986,17.758-13.296,33.838-17.799,45.501"/>
					</g>
				</g>
			</g>
		</g>
		<g>
			<g>
				<g>
					<g>
						<path style="fill:#263238;" d="M395.523,381.951c0.025-0.01,0.152,0.253,0.362,0.735c0.212,0.481,0.497,1.187,0.84,2.062
							c0.682,1.752,1.561,4.196,2.481,6.911c0.893,2.674,1.7,5.092,2.323,6.96c0.28,0.827,0.518,1.529,0.713,2.105
							c0.17,0.497,0.253,0.776,0.228,0.786c-0.025,0.01-0.154-0.251-0.367-0.732c-0.21-0.482-0.496-1.188-0.829-2.067
							c-0.665-1.759-1.512-4.214-2.431-6.928c-0.911-2.666-1.735-5.078-2.372-6.941c-0.284-0.826-0.526-1.527-0.724-2.102
							C395.579,382.241,395.499,381.961,395.523,381.951z"/>
					</g>
				</g>
			</g>
		</g>
		<g>
			<g>
				<g>
					<g>
						<path style="fill:#263238;" d="M403.523,401.613c-0.039-0.099,4.919-2.136,11.072-4.549
							c6.155-2.415,11.174-4.291,11.213-4.193c0.039,0.099-4.918,2.135-11.073,4.549
							C408.582,399.835,403.562,401.712,403.523,401.613z"/>
					</g>
				</g>
			</g>
		</g>
		<g>
			<g>
				<g>
					<g>
						<path style="fill:#263238;" d="M391.567,428.396c-0.001-0.026,0.293-0.069,0.827-0.123c0.616-0.057,1.371-0.127,2.26-0.21
							c1.908-0.179,4.542-0.434,7.438-0.821c2.898-0.38,5.508-0.814,7.396-1.142c0.881-0.151,1.628-0.28,2.237-0.384
							c0.529-0.087,0.825-0.123,0.83-0.097c0.006,0.026-0.279,0.111-0.8,0.244c-0.521,0.132-1.277,0.308-2.217,0.504
							c-1.878,0.396-4.49,0.874-7.397,1.255c-2.905,0.388-5.551,0.602-7.468,0.712c-0.959,0.051-1.735,0.083-2.272,0.089
							C391.866,428.43,391.569,428.422,391.567,428.396z"/>
					</g>
				</g>
			</g>
		</g>
		<g>
			<g>
				<g>
					<g>
						<path style="fill:#263238;" d="M380.417,412.204c0.022-0.015,0.201,0.194,0.506,0.585c0.305,0.391,0.736,0.965,1.262,1.678
							c1.052,1.426,2.483,3.412,4.045,5.619c1.562,2.207,2.959,4.218,3.954,5.684c0.497,0.733,0.895,1.33,1.162,1.748
							c0.268,0.418,0.405,0.656,0.383,0.671c-0.021,0.015-0.2-0.194-0.505-0.585c-0.305-0.391-0.736-0.964-1.262-1.678
							c-1.052-1.426-2.483-3.412-4.046-5.62c-1.562-2.207-2.958-4.217-3.953-5.684c-0.497-0.733-0.895-1.33-1.162-1.748
							C380.533,412.458,380.396,412.219,380.417,412.204z"/>
					</g>
				</g>
			</g>
		</g>
		<g>
			<g>
				<g>
					<g>
						<path style="fill:#263238;" d="M366.859,434.507c0.021-0.016,0.248,0.255,0.638,0.756c0.429,0.567,0.974,1.286,1.624,2.145
							c1.358,1.821,3.212,4.352,5.24,7.161c2.029,2.81,3.849,5.366,5.15,7.228c0.611,0.887,1.122,1.63,1.525,2.216
							c0.353,0.528,0.538,0.828,0.517,0.843c-0.021,0.015-0.247-0.255-0.638-0.756c-0.429-0.567-0.974-1.286-1.624-2.145
							c-1.358-1.821-3.212-4.352-5.241-7.162c-2.028-2.809-3.848-5.365-5.149-7.227c-0.611-0.887-1.122-1.63-1.525-2.216
							C367.023,434.822,366.837,434.522,366.859,434.507z"/>
					</g>
				</g>
			</g>
		</g>
		<g>
			<g>
				<g>
					<g>
						<path style="fill:#263238;" d="M381.338,454.27c-0.003-0.026,0.369-0.089,1.044-0.18c0.747-0.096,1.706-0.22,2.857-0.368
							c2.411-0.312,5.74-0.754,9.402-1.344c3.663-0.584,6.965-1.199,9.353-1.659c1.14-0.218,2.09-0.399,2.829-0.541
							c0.669-0.124,1.042-0.181,1.047-0.155c0.006,0.026-0.356,0.132-1.016,0.301c-0.659,0.169-1.617,0.398-2.806,0.661
							c-2.376,0.528-5.677,1.186-9.347,1.772c-3.668,0.591-7.009,0.991-9.431,1.234c-1.211,0.119-2.193,0.204-2.872,0.247
							C381.717,454.284,381.341,454.297,381.338,454.27z"/>
					</g>
				</g>
			</g>
		</g>
	</g>
</g>
<g id="Device">
	<g>
		<g>
			<g>
				<g>
					<g>
						<g>
							<g>
								<g>
									<g>
										<g>
											<g>
												<g>
													<path style="fill:#263238;" d="M367.956,468.572H130.775c-6.378,0-11.549-5.171-11.549-11.549V106.596
														c0-6.378,5.171-11.549,11.549-11.549h237.182c6.379,0,11.549,5.171,11.549,11.549v350.425
														C379.506,463.401,374.335,468.572,367.956,468.572z"/>
												</g>
											</g>
										</g>
									</g>
								</g>
								<g>
									<g>
										<g>
											<g>
												<g>
													<rect x="127.308" y="121.696" style="fill:#FFFFFF;" width="243.865" height="311.938"/>
												</g>
											</g>
										</g>
									</g>
								</g>
								<g>
									<g>
										<g>
											<g>
												<g>
													
														<ellipse transform="matrix(0.2234 -0.9747 0.9747 0.2234 -244.7694 592.402)" style="fill:#455A64;" cx="249.366" cy="449.801" rx="9.987" ry="9.987"/>
												</g>
											</g>
										</g>
									</g>
								</g>
								<g>
									<g>
										<g>
											<g>
												<g>
													<path style="fill:#455A64;" d="M287.347,109.931h-75.962c-0.671,0-1.215-0.544-1.215-1.215v-1.695
														c0-0.671,0.544-1.215,1.215-1.215h75.962c0.671,0,1.215,0.544,1.215,1.215v1.695
														C288.562,109.387,288.018,109.931,287.347,109.931z"/>
												</g>
											</g>
										</g>
									</g>
								</g>
							</g>
						</g>
					</g>
				</g>
			</g>
			<g>
				<g>
					<g>
						<g>
							<path style="fill:#263238;" d="M242.54,411.014c0,1.246-1.01,2.255-2.255,2.255c-1.246,0-2.256-1.01-2.256-2.255
								c0-1.246,1.01-2.255,2.256-2.255C241.53,408.759,242.54,409.768,242.54,411.014z"/>
						</g>
					</g>
				</g>
				<g>
					<g>
						<g>
							<path style="fill:#263238;" d="M251.622,411.014c0,1.246-1.01,2.255-2.256,2.255c-1.246,0-2.255-1.01-2.255-2.255
								c0-1.246,1.01-2.255,2.255-2.255C250.612,408.759,251.622,409.768,251.622,411.014z"/>
						</g>
					</g>
				</g>
				<g>
					<g>
						<g>
							<path style="fill:#263238;" d="M260.703,411.014c0,1.246-1.01,2.255-2.256,2.255c-1.246,0-2.255-1.01-2.255-2.255
								c0-1.246,1.01-2.255,2.255-2.255C259.693,408.759,260.703,409.768,260.703,411.014z"/>
						</g>
					</g>
				</g>
			</g>
			<g>
				<g>
					<g>
						<path style="fill:#263238;" d="M160.144,147.837h-11.49c-0.241,0-0.436-0.195-0.436-0.436s0.195-0.436,0.436-0.436h11.49
							c0.241,0,0.436,0.195,0.436,0.436S160.385,147.837,160.144,147.837z"/>
					</g>
				</g>
				<g>
					<g>
						<path style="fill:#263238;" d="M153.114,151.505c-0.087,0-0.175-0.026-0.252-0.081l-5.161-3.669
							c-0.116-0.083-0.185-0.217-0.184-0.36c0.001-0.143,0.072-0.276,0.19-0.356l5.312-3.626c0.198-0.135,0.47-0.084,0.606,0.115
							c0.136,0.199,0.084,0.47-0.115,0.606l-4.795,3.273l4.65,3.306c0.196,0.14,0.243,0.412,0.103,0.608
							C153.385,151.442,153.25,151.505,153.114,151.505z"/>
					</g>
				</g>
			</g>
			<g>
				<g>
					<g>
						<path style="fill:#263238;" d="M345.627,147.879h-11.49c-0.241,0-0.436-0.195-0.436-0.436c0-0.241,0.195-0.436,0.436-0.436
							h11.49c0.241,0,0.436,0.195,0.436,0.436C346.064,147.684,345.868,147.879,345.627,147.879z"/>
					</g>
				</g>
				<g>
					<g>
						<path style="fill:#263238;" d="M341.015,151.505c-0.139,0-0.276-0.066-0.36-0.19c-0.136-0.199-0.084-0.47,0.114-0.606
							l4.794-3.273l-4.65-3.306c-0.196-0.14-0.242-0.412-0.102-0.609c0.141-0.196,0.413-0.242,0.608-0.103l5.161,3.669
							c0.116,0.083,0.185,0.217,0.183,0.36c-0.002,0.143-0.072,0.276-0.19,0.356l-5.312,3.626
							C341.186,151.481,341.1,151.505,341.015,151.505z"/>
					</g>
				</g>
			</g>
			<g>
				<g>
					<g>
						<g>
							<path style="fill:#E0E0E0;" d="M285.316,155.45c0,0.126-16.015,0.227-35.765,0.227c-19.757,0-35.768-0.102-35.768-0.227
								c0-0.125,16.011-0.227,35.768-0.227C269.302,155.223,285.316,155.324,285.316,155.45z"/>
						</g>
					</g>
				</g>
				<g>
					<g>
						<g>
							<path style="fill:#E0E0E0;" d="M261.295,158.347c0,0.126-5.259,0.227-11.745,0.227c-6.488,0-11.746-0.102-11.746-0.227
								c0-0.125,5.258-0.227,11.746-0.227C256.036,158.119,261.295,158.221,261.295,158.347z"/>
						</g>
					</g>
				</g>
			</g>
		</g>
		<g>
			<g>
				<path style="fill:#263238;" d="M343.671,182.449c0,0.144-18.442,0.26-41.186,0.26c-22.752,0-41.19-0.117-41.19-0.26
					c0-0.144,18.438-0.26,41.19-0.26C325.229,182.189,343.671,182.305,343.671,182.449z"/>
			</g>
		</g>
		<g>
			<g>
				<path style="fill:#263238;" d="M343.671,192.158c0,0.144-21.53,0.261-48.082,0.261c-26.561,0-48.087-0.117-48.087-0.261
					c0-0.144,21.525-0.26,48.087-0.26C322.141,191.897,343.671,192.014,343.671,192.158z"/>
			</g>
		</g>
		<g>
			<g>
				<path style="fill:#263238;" d="M343.671,201.179c0,0.144-21.53,0.26-48.082,0.26c-26.561,0-48.087-0.117-48.087-0.26
					s21.525-0.26,48.087-0.26C322.141,200.919,343.671,201.035,343.671,201.179z"/>
			</g>
		</g>
		<g>
			<g>
				<path style="fill:#263238;" d="M343.671,210.201c0,0.144-21.53,0.26-48.082,0.26c-26.561,0-48.087-0.117-48.087-0.26
					c0-0.144,21.525-0.26,48.087-0.26C322.141,209.94,343.671,210.057,343.671,210.201z"/>
			</g>
		</g>
		<g>
			<g>
				<path style="fill:#263238;" d="M343.671,219.222c0,0.144-21.53,0.26-48.082,0.26c-26.561,0-48.087-0.117-48.087-0.26
					s21.525-0.26,48.087-0.26C322.141,218.962,343.671,219.079,343.671,219.222z"/>
			</g>
		</g>
		<g>
			<g>
				<path style="fill:#263238;" d="M343.671,228.244c0,0.144-21.53,0.26-48.082,0.26c-26.561,0-48.087-0.117-48.087-0.26
					c0-0.144,21.525-0.26,48.087-0.26C322.141,227.984,343.671,228.1,343.671,228.244z"/>
			</g>
		</g>
		<g>
			<g>
				<path style="fill:#263238;" d="M343.671,237.265c0,0.144-21.53,0.26-48.082,0.26c-26.561,0-48.087-0.117-48.087-0.26
					s21.525-0.26,48.087-0.26C322.141,237.005,343.671,237.122,343.671,237.265z"/>
			</g>
		</g>
		<g>
			<g>
				<path style="fill:#263238;" d="M343.671,245.735c0,0.144-21.53,0.26-48.082,0.26c-26.561,0-48.087-0.117-48.087-0.26
					c0-0.144,21.525-0.26,48.087-0.26C322.141,245.475,343.671,245.592,343.671,245.735z"/>
			</g>
		</g>
		<g>
			<g>
				<path style="fill:#263238;" d="M295.587,255.349c0,0.144-10.765,0.26-24.041,0.26c-13.281,0-24.043-0.117-24.043-0.26
					c0-0.144,10.763-0.26,24.043-0.26C284.822,255.089,295.587,255.206,295.587,255.349z"/>
			</g>
		</g>
		<g>
			<g>
				<path style="fill:#263238;" d="M343.671,288.932c0,0.144-21.53,0.26-48.082,0.26c-26.561,0-48.087-0.116-48.087-0.26
					c0-0.144,21.525-0.26,48.087-0.26C322.141,288.672,343.671,288.789,343.671,288.932z"/>
			</g>
		</g>
		<g>
			<g>
				<path style="fill:#263238;" d="M343.671,298.722c0,0.144-21.53,0.26-48.082,0.26c-26.561,0-48.087-0.116-48.087-0.26
					c0-0.144,21.525-0.26,48.087-0.26C322.141,298.461,343.671,298.578,343.671,298.722z"/>
			</g>
		</g>
		<g>
			<g>
				<path style="fill:#263238;" d="M343.671,308.239c0,0.144-21.53,0.26-48.082,0.26c-26.561,0-48.087-0.117-48.087-0.26
					s21.525-0.26,48.087-0.26C322.141,307.979,343.671,308.095,343.671,308.239z"/>
			</g>
		</g>
		<g>
			<g>
				<path style="fill:#263238;" d="M343.671,317.756c0,0.144-21.53,0.26-48.082,0.26c-26.561,0-48.087-0.117-48.087-0.26
					s21.525-0.26,48.087-0.26C322.141,317.496,343.671,317.613,343.671,317.756z"/>
			</g>
		</g>
		<g>
			<g>
				<path style="fill:#263238;" d="M295.587,327.002c0,0.144-10.765,0.26-24.041,0.26c-13.281,0-24.043-0.117-24.043-0.26
					c0-0.144,10.763-0.26,24.043-0.26C284.822,326.741,295.587,326.858,295.587,327.002z"/>
			</g>
		</g>
		<g>
			<path style="fill:#263238;" d="M245.777,171.718h11.207l0.106,3.368h-0.474c-0.232-1.058-0.528-1.747-0.886-2.066
				c-0.358-0.319-1.111-0.479-2.261-0.479h-1.104v10.143c0,0.764,0.12,1.237,0.358,1.419c0.239,0.183,0.762,0.303,1.568,0.361v0.368
				h-5.778v-0.368c0.839-0.064,1.361-0.202,1.568-0.415c0.207-0.211,0.31-0.745,0.31-1.599v-9.911h-1.113
				c-1.097,0-1.844,0.158-2.24,0.474c-0.397,0.316-0.695,1.006-0.896,2.071h-0.484L245.777,171.718z"/>
		</g>
		<g>
			<g id="XMLID_41_">
				<g>
					<g>
						<path style="fill:#FF725E;" d="M301.356,378.783c0.756,0.485,1.653,0.767,2.617,0.767c3.169,0,4.96-2.677,4.852-5.078
							c0.333-0.24,0.623-0.541,0.852-0.884c-0.306,0.136-0.635,0.228-0.98,0.269c0.352-0.211,0.623-0.545,0.75-0.944
							c-0.33,0.195-0.695,0.338-1.084,0.414c-0.311-0.332-0.755-0.539-1.246-0.539c-1.102,0-1.911,1.028-1.663,2.096
							c-1.419-0.071-2.677-0.751-3.518-1.784c-0.447,0.767-0.232,1.771,0.528,2.279c-0.28-0.009-0.543-0.086-0.773-0.214
							c-0.018,0.791,0.548,1.531,1.369,1.696c-0.24,0.065-0.504,0.08-0.771,0.029c0.217,0.678,0.847,1.172,1.594,1.185
							C303.166,378.639,302.262,378.891,301.356,378.783z"/>
					</g>
				</g>
			</g>
			<g id="XMLID_33_">
				<g id="XMLID_38_">
					<g>
						<g>
							<path style="fill:#FF725E;" d="M326.547,372.105c1.213,0,1.356,0.005,1.835,0.026c0.443,0.02,0.683,0.094,0.843,0.157
								c0.212,0.082,0.363,0.181,0.522,0.34c0.159,0.159,0.257,0.31,0.34,0.522c0.062,0.16,0.136,0.4,0.156,0.843
								c0.022,0.479,0.027,0.622,0.027,1.835c0,1.213-0.005,1.356-0.027,1.835c-0.02,0.443-0.094,0.683-0.156,0.843
								c-0.082,0.212-0.181,0.363-0.34,0.522c-0.159,0.159-0.31,0.257-0.522,0.34c-0.16,0.062-0.401,0.136-0.843,0.156
								c-0.479,0.022-0.622,0.026-1.835,0.026c-1.213,0-1.356-0.005-1.835-0.026c-0.443-0.02-0.683-0.094-0.843-0.156
								c-0.212-0.082-0.363-0.181-0.522-0.34c-0.159-0.159-0.257-0.31-0.34-0.522c-0.062-0.16-0.136-0.4-0.156-0.843
								c-0.022-0.479-0.026-0.622-0.026-1.835c0-1.213,0.005-1.356,0.026-1.835c0.02-0.443,0.094-0.683,0.156-0.843
								c0.082-0.212,0.181-0.363,0.34-0.522c0.159-0.159,0.31-0.257,0.522-0.34c0.16-0.062,0.401-0.136,0.843-0.157
								C325.191,372.109,325.335,372.105,326.547,372.105 M326.547,371.287c-1.233,0-1.388,0.005-1.872,0.027
								c-0.483,0.022-0.813,0.099-1.102,0.211c-0.299,0.116-0.552,0.271-0.804,0.524c-0.252,0.252-0.408,0.506-0.524,0.804
								c-0.112,0.289-0.189,0.619-0.211,1.102c-0.022,0.484-0.027,0.639-0.027,1.872s0.005,1.388,0.027,1.872
								c0.022,0.483,0.099,0.813,0.211,1.102c0.116,0.298,0.271,0.552,0.524,0.804c0.253,0.253,0.506,0.408,0.804,0.524
								c0.289,0.112,0.619,0.189,1.102,0.211c0.484,0.022,0.639,0.027,1.872,0.027c1.233,0,1.388-0.005,1.872-0.027
								c0.483-0.022,0.813-0.099,1.102-0.211c0.299-0.116,0.552-0.271,0.804-0.524c0.252-0.252,0.408-0.506,0.524-0.804
								c0.112-0.289,0.189-0.619,0.211-1.102c0.022-0.484,0.027-0.639,0.027-1.872s-0.005-1.388-0.027-1.872
								c-0.022-0.483-0.099-0.813-0.211-1.102c-0.116-0.299-0.271-0.552-0.524-0.804c-0.252-0.252-0.506-0.408-0.804-0.524
								c-0.289-0.112-0.619-0.189-1.102-0.211C327.935,371.292,327.78,371.287,326.547,371.287"/>
						</g>
					</g>
				</g>
				<g id="XMLID_35_">
					<g>
						<g>
							<path style="fill:#FF725E;" d="M326.547,373.496c-1.288,0-2.332,1.044-2.332,2.332c0,1.288,1.044,2.332,2.332,2.332
								c1.288,0,2.332-1.044,2.332-2.332C328.879,374.54,327.835,373.496,326.547,373.496 M326.547,377.341
								c-0.836,0-1.514-0.678-1.514-1.514s0.678-1.514,1.514-1.514s1.514,0.678,1.514,1.514S327.383,377.341,326.547,377.341"/>
						</g>
					</g>
				</g>
				<g id="XMLID_34_">
					<g>
						<g>
							<path style="fill:#FF725E;" d="M329.516,373.404c0,0.301-0.244,0.545-0.545,0.545c-0.301,0-0.545-0.244-0.545-0.545
								c0-0.301,0.244-0.545,0.545-0.545C329.272,372.859,329.516,373.103,329.516,373.404"/>
						</g>
					</g>
				</g>
			</g>
			<g id="XMLID_32_">
				<g>
					<g>
						<path style="fill:#FF725E;" d="M346.84,379.606h1.522v-3.81h1.061l0.113-1.276h-1.175c0,0,0-0.476,0-0.727
							c0-0.301,0.06-0.42,0.351-0.42c0.234,0,0.823,0,0.823,0v-1.324c0,0-0.868,0-1.054,0c-1.132,0-1.643,0.499-1.643,1.453
							c0,0.831,0,1.017,0,1.017h-0.791v1.292h0.791V379.606z"/>
					</g>
				</g>
			</g>
		</g>
		<g>
			<g>
				<path style="fill:#E0E0E0;" d="M303.535,398.808c0,0.144-11.67,0.26-26.062,0.26c-14.397,0-26.064-0.116-26.064-0.26
					s11.667-0.26,26.064-0.26C291.865,398.548,303.535,398.665,303.535,398.808z"/>
			</g>
		</g>
		<g>
			<g>
				<path style="fill:#E0E0E0;" d="M349.684,393.26c0,0.144-22.002,0.26-49.135,0.26c-27.143,0-49.14-0.117-49.14-0.26
					s21.997-0.26,49.14-0.26C327.683,392.999,349.684,393.116,349.684,393.26z"/>
			</g>
		</g>
	</g>
</g>
<g id="Picture_1">
	<g>
		<g>
			<g>
				<g>
					<g>
						
							<rect x="41.761" y="155.459" transform="matrix(0.9928 -0.1194 0.1194 0.9928 -32.8065 18.5874)" style="fill:#FAFAFA;" width="193.986" height="255.37"/>
					</g>
					<g>
						<g>
							<path style="fill:#263238;" d="M250.295,398.338c-0.249-2.052-12.51-103.25-30.716-253.516l0.261,0.205
								c-57.691,6.944-123.29,14.839-192.574,23.179l-0.021,0.003l0.227-0.29c11.323,94.321,21.824,181.796,30.437,253.549
								l-0.238-0.187C174.131,407.41,248.532,398.548,250.295,398.338c-1.761,0.214-76.144,9.24-192.573,23.368l-0.213,0.026
								l-0.026-0.213c-8.64-71.75-19.172-159.221-30.529-253.538l-0.031-0.259l0.259-0.031l0.021-0.003
								c69.287-8.321,134.887-16.199,192.58-23.128l0.233-0.028l0.028,0.233C237.975,295.065,250.05,396.287,250.295,398.338z"/>
						</g>
					</g>
				</g>
				<g>
					
						<rect x="46.393" y="163.181" transform="matrix(0.9928 -0.1194 0.1194 0.9928 -31.4631 18.3715)" style="fill:#EBEBEB;" width="182.46" height="217.281"/>
				</g>
				<g>
					<g>
						<path style="fill:#263238;" d="M241.107,368.803c-0.243-2-10.587-87.272-26.166-215.7l0.257,0.202
							c-53.583,6.451-115.469,13.901-181.07,21.799l-0.019,0.002l0.227-0.29c9.566,79.697,18.473,153.898,25.895,215.732
							l-0.243-0.191C169.083,377.375,239.29,369.019,241.107,368.803c-1.815,0.22-72.003,8.744-181.067,21.989l-0.217,0.026
							l-0.026-0.217c-7.446-61.831-16.381-136.029-25.978-215.722l-0.031-0.259l0.259-0.031l0.019-0.002
							c65.604-7.877,127.493-15.308,181.077-21.742l0.23-0.028l0.027,0.23C230.706,281.509,240.869,366.804,241.107,368.803z"/>
					</g>
				</g>
			</g>
			<g>
				<g>
					<g>
						<path style="fill:#263238;" d="M84.14,407.41c-2.565,0.308-4.904-1.527-5.212-4.093c-0.309-2.565,1.528-4.904,4.093-5.212
							c2.565-0.309,4.903,1.528,5.212,4.094c0.109,0.909-0.048,1.819-0.455,2.638l0.948,1.612c0.045,0.077,0.038,0.174-0.017,0.243
							c-0.055,0.069-0.148,0.098-0.232,0.073l-1.761-0.531C85.993,406.888,85.105,407.294,84.14,407.41z M83.073,398.533
							c-2.329,0.28-3.996,2.403-3.716,4.732c0.28,2.329,2.403,3.996,4.732,3.716c0.913-0.11,1.751-0.506,2.423-1.146
							c0.055-0.054,0.137-0.072,0.211-0.051l1.352,0.408l-0.729-1.239c-0.038-0.065-0.039-0.145-0.005-0.211
							c0.407-0.768,0.567-1.63,0.464-2.493C87.524,399.921,85.402,398.253,83.073,398.533z"/>
					</g>
				</g>
			</g>
			<g>
				<g>
					<g>
						<path style="fill:#FF725E;" d="M71.336,408.946c-0.039,0.005-0.08-0.002-0.118-0.019c-0.225-0.105-5.515-2.621-5.838-5.31
							c-0.208-1.73,1.03-3.306,2.76-3.514c0.784-0.094,1.558,0.105,2.2,0.562c0.516-0.597,1.22-0.973,2.005-1.068
							c1.73-0.208,3.306,1.03,3.514,2.76c0.323,2.689-4.22,6.387-4.414,6.542C71.414,408.925,71.376,408.941,71.336,408.946z"/>
					</g>
				</g>
			</g>
			<g>
				<g>
					<g>
						<path style="fill:#263238;" d="M71.336,408.946c-0.039,0.005-0.08-0.002-0.118-0.019c-0.225-0.105-5.515-2.621-5.838-5.31
							c-0.208-1.73,1.03-3.306,2.76-3.514c0.784-0.094,1.558,0.105,2.2,0.562c0.516-0.597,1.22-0.973,2.005-1.068
							c1.73-0.208,3.306,1.03,3.514,2.76c0.323,2.689-4.22,6.387-4.414,6.542C71.414,408.925,71.376,408.941,71.336,408.946z
							 M68.192,400.531c-1.493,0.18-2.563,1.541-2.383,3.034c0.27,2.243,4.674,4.518,5.471,4.911
							c0.68-0.571,4.421-3.827,4.151-6.068c-0.18-1.493-1.541-2.563-3.034-2.383c-0.739,0.089-1.395,0.468-1.848,1.068
							c-0.071,0.094-0.217,0.111-0.309,0.037C69.658,400.655,68.93,400.442,68.192,400.531z"/>
					</g>
				</g>
			</g>
			<g>
				<g>
					<g>
						<path style="fill:#263238;" d="M240.214,388.426c-0.048,0.006-0.098-0.003-0.142-0.027l-4.038-2.204l-3.401,3.098
							c-0.065,0.061-0.159,0.078-0.241,0.048c-0.083-0.031-0.142-0.106-0.153-0.194l-1.187-9.872
							c-0.016-0.13,0.077-0.248,0.207-0.263l7.711-0.927c0.13-0.016,0.248,0.077,0.263,0.207l1.187,9.872
							c0.01,0.088-0.029,0.174-0.102,0.224C240.286,388.408,240.25,388.421,240.214,388.426z M235.971,385.671
							c0.048-0.006,0.098,0.003,0.142,0.027l3.783,2.064l-1.104-9.181l-7.241,0.871l1.104,9.181l3.186-2.902
							C235.877,385.697,235.923,385.677,235.971,385.671z"/>
					</g>
				</g>
			</g>
		</g>
	</g>
</g>
<g id="Character">
	<g>
		<g>
			<path style="fill:#263238;" d="M139.38,183.197c-1.145-2.95-2.738-5.865-5.313-7.704c-2.484-1.774-6.027-2.729-8.562-1.075
				c-1.54-1.239-3.856-1.873-5.865-1.604c-2.967,0.396-5.889,1.594-8.341,3.313c-3.041,2.132-5.728,5.517-7.518,8.771
				c-2.486,4.517-2.07,10.008-1.585,15.142c0.985,10.43,1.971,20.859,2.956,31.289c0.072,0.762,0.199,1.624,0.829,2.061
				c0.521,0.361,1.214,0.304,1.844,0.231c12.617-1.474,25.152-3.655,37.525-6.529C141.915,212.675,144.74,197.012,139.38,183.197z"
				/>
		</g>
		<g>
			<path style="fill:#FF725E;" d="M182.794,328.743c-4.111-15.131-10.426-41.664-10.426-41.664l-22.796-68.302
				c-4.157,0.083-8.338-0.039-8.338-0.039s-2.096-7.04-11.65-5.058l-16.019,1.926c0,0-5.914,2.794-7.729,6.763
				c-1.814,3.968-2.085,6.917-4.401,8.446c-2.316,1.528-11.145,13.007-10.413,15.627c0.732,2.62-2.43,9.251-1.795,16.258
				c0.634,7.007,2.049,17.046,2.049,17.046s-4.665,4.519-1.871,10.433c0,0-2.06,7.123,0.069,12.7l3.156,5.454
				c0,0-4.227,15.092-3.289,22.896c0.938,7.804,4.348,55.227,4.348,55.227l67.708-8.265l27.599-9.985
				C188.997,368.206,186.905,343.874,182.794,328.743z"/>
		</g>
		<g style="opacity:0.3;">
			<g>
				<path d="M137.085,221.051c0.616-1.998-0.302-3.701-2.057-4.837c-1.464-0.947-3.306-1.035-5.049-1.056
					c-5.938-0.073-12.178,0.378-17.203,3.544c-1.404,0.884-2.721,2.017-3.415,3.524c-0.693,1.507-0.116,2.696,0.669,4.431
					l6.483-6.071L137.085,221.051z"/>
			</g>
		</g>
		<g>
			<g>
				<g>
					<g>
						<g>
							<g>
								<path style="fill:#9E5F58;" d="M110.213,182.619l10.707-6.486l3.055-0.155c6.747-1.108,12.646,5.549,13.607,11.003
									c1.067,6.06,2.132,13.5,1.918,18.134c-0.429,9.319-7.316,11.269-7.316,11.269c-0.003-0.014,0.483,2.447,1.048,5.457
									c1.014,5.41-2.69,10.573-8.139,11.347l0,0c-5.194,0.738-10.029-2.803-10.892-7.978l-6.504-39.003
									C107.477,184.54,108.57,182.98,110.213,182.619z"/>
							</g>
						</g>
					</g>
				</g>
				<g>
					<g>
						<g>
							<g>
								<g>
									<g>
										<g>
											<g>
												<g>
													<g>
														<g>
															<g>
																<g>
																	<g>
																		<g>
																			<g>
																				<g>
																					<g>
																						<path style="fill:#263238;" d="M135.098,193.533c0.091,0.618-0.356,1.204-1,1.312
																							c-0.642,0.107-1.238-0.305-1.329-0.923c-0.091-0.618,0.357-1.205,0.998-1.312
																							C134.411,192.502,135.007,192.915,135.098,193.533z"/>
																					</g>
																				</g>
																			</g>
																		</g>
																	</g>
																</g>
															</g>
														</g>
													</g>
												</g>
											</g>
										</g>
									</g>
								</g>
							</g>
							<g>
								<g>
									<g>
										<g>
											<g>
												<g>
													<g>
														<g>
															<g>
																<g>
																	<g>
																		<g>
																			<g>
																				<g>
																					<g>
																						<g>
																							<path style="fill:#263238;" d="M135.915,190.724c-0.129,0.169-1.092-0.389-2.355-0.245
																								c-1.264,0.126-2.118,0.88-2.273,0.741c-0.075-0.061,0.043-0.354,0.413-0.693
																								c0.365-0.337,1.011-0.698,1.798-0.783c0.788-0.084,1.482,0.132,1.896,0.386
																								C135.816,190.385,135.979,190.647,135.915,190.724z"/>
																						</g>
																					</g>
																				</g>
																			</g>
																		</g>
																	</g>
																</g>
															</g>
														</g>
													</g>
												</g>
											</g>
										</g>
									</g>
								</g>
							</g>
							<g>
								<g>
									<g>
										<g>
											<g>
												<g>
													<g>
														<g>
															<g>
																<g>
																	<g>
																		<g>
																			<g>
																				<g>
																					<g>
																						<path style="fill:#263238;" d="M129.638,201.529c-0.014-0.071,0.756-0.294,2.011-0.6
																							c0.319-0.069,0.617-0.168,0.647-0.394c0.05-0.242-0.124-0.574-0.322-0.932c-0.391-0.747-0.8-1.53-1.229-2.35
																							c-1.716-3.35-2.998-6.119-2.862-6.187c0.136-0.068,1.637,2.592,3.354,5.942
																							c0.415,0.827,0.813,1.615,1.191,2.369c0.163,0.353,0.42,0.745,0.309,1.248
																							c-0.06,0.251-0.277,0.452-0.478,0.531c-0.2,0.086-0.381,0.11-0.54,0.137
																							C130.445,201.506,129.651,201.601,129.638,201.529z"/>
																					</g>
																				</g>
																			</g>
																		</g>
																	</g>
																</g>
															</g>
														</g>
													</g>
												</g>
											</g>
										</g>
									</g>
								</g>
							</g>
							<g>
								<g>
									<g>
										<g>
											<g>
												<g>
													<g>
														<g>
															<g>
																<g>
																	<g>
																		<g>
																			<g>
																				<g>
																					<path style="fill:#794742;" d="M132.185,216.384c0,0-6.115,1.087-12.628-1.898c0,0,3.977,5.981,13.045,4.098
																						L132.185,216.384z"/>
																				</g>
																			</g>
																		</g>
																	</g>
																</g>
															</g>
														</g>
													</g>
												</g>
											</g>
										</g>
									</g>
								</g>
							</g>
							<g>
								<g>
									<g>
										<g>
											<g>
												<g>
													<g>
														<g>
															<g>
																<g>
																	<g>
																		<g>
																			<g>
																				<g>
																					<path style="fill:#794742;" d="M129.445,204.635c-0.522-0.55-1.355-0.791-2.136-0.617
																						c-0.542,0.12-1.066,0.447-1.349,0.931c-0.283,0.484-0.282,1.125,0.068,1.517
																						c0.395,0.441,1.12,0.472,1.703,0.233c0.584-0.239,1.058-0.694,1.507-1.145
																						c0.124-0.125,0.251-0.255,0.319-0.414c0.068-0.159,0.065-0.358-0.054-0.47"/>
																				</g>
																			</g>
																		</g>
																	</g>
																</g>
															</g>
														</g>
													</g>
												</g>
											</g>
										</g>
									</g>
								</g>
							</g>
							<g>
								<g>
									<g>
										<g>
											<g>
												<g>
													<g>
														<g>
															<g>
																<g>
																	<g>
																		<g>
																			<g>
																				<g>
																					<g>
																						<path style="fill:#263238;" d="M126.018,202.82c0.204-0.035,0.36,1.336,1.643,2.178
																							c1.281,0.846,2.726,0.528,2.758,0.718c0.029,0.084-0.296,0.303-0.911,0.389
																							c-0.603,0.089-1.509-0.007-2.294-0.522c-0.783-0.517-1.18-1.279-1.29-1.836
																							C125.808,203.179,125.923,202.822,126.018,202.82z"/>
																					</g>
																				</g>
																			</g>
																		</g>
																	</g>
																</g>
															</g>
														</g>
													</g>
												</g>
											</g>
										</g>
									</g>
								</g>
							</g>
							<g>
								<g>
									<g>
										<g>
											<g>
												<g>
													<g>
														<g>
															<g>
																<g>
																	<g>
																		<g>
																			<g>
																				<g>
																					<g>
																						<g>
																							<g>
																								<path style="fill:#263238;" d="M134.856,186.275c-0.19,0.312-1.094,0.111-2.142,0.215
																									c-1.052,0.066-1.912,0.409-2.149,0.132c-0.106-0.136,0.002-0.439,0.359-0.754
																									c0.351-0.313,0.965-0.606,1.687-0.665c0.722-0.057,1.374,0.133,1.771,0.386
																									C134.784,185.842,134.938,186.124,134.856,186.275z"/>
																							</g>
																						</g>
																					</g>
																				</g>
																			</g>
																		</g>
																	</g>
																</g>
															</g>
														</g>
													</g>
												</g>
											</g>
										</g>
									</g>
								</g>
							</g>
							<g>
								<g>
									<g>
										<g>
											<g>
												<g>
													<g>
														<g>
															<g>
																<g>
																	<g>
																		<g>
																			<g>
																				<g>
																					<g>
																						<path style="fill:#263238;" d="M120.37,195.328c0.071,0.621,0.654,1.072,1.304,1.01
																							c0.648-0.062,1.117-0.614,1.047-1.234c-0.071-0.62-0.655-1.072-1.302-1.011
																							C120.768,194.155,120.299,194.708,120.37,195.328z"/>
																					</g>
																				</g>
																			</g>
																		</g>
																	</g>
																</g>
															</g>
														</g>
													</g>
												</g>
											</g>
										</g>
									</g>
								</g>
							</g>
							<g>
								<g>
									<g>
										<g>
											<g>
												<g>
													<g>
														<g>
															<g>
																<g>
																	<g>
																		<g>
																			<g>
																				<g>
																					<g>
																						<g>
																							<path style="fill:#263238;" d="M118.682,193.155c0.168,0.131,0.955-0.657,2.213-0.843
																								c1.254-0.203,2.274,0.306,2.387,0.131c0.057-0.078-0.132-0.331-0.577-0.563
																								c-0.439-0.232-1.157-0.414-1.939-0.293c-0.783,0.122-1.398,0.509-1.733,0.861
																								C118.69,192.802,118.6,193.097,118.682,193.155z"/>
																						</g>
																					</g>
																				</g>
																			</g>
																		</g>
																	</g>
																</g>
															</g>
														</g>
													</g>
												</g>
											</g>
										</g>
									</g>
								</g>
							</g>
							<g>
								<g>
									<g>
										<g>
											<g>
												<g>
													<g>
														<g>
															<g>
																<g>
																	<g>
																		<g>
																			<g>
																				<g>
																					<g>
																						<g>
																							<g>
																								<path style="fill:#263238;" d="M119.162,190.514c0.264,0.252,1.086-0.174,2.125-0.344
																									c1.033-0.206,1.952-0.097,2.111-0.426c0.067-0.158-0.115-0.423-0.54-0.636
																									c-0.42-0.212-1.088-0.337-1.801-0.208c-0.712,0.13-1.294,0.482-1.612,0.829
																									C119.121,190.077,119.044,190.39,119.162,190.514z"/>
																							</g>
																						</g>
																					</g>
																				</g>
																			</g>
																		</g>
																	</g>
																</g>
															</g>
														</g>
													</g>
												</g>
											</g>
										</g>
									</g>
								</g>
							</g>
						</g>
					</g>
				</g>
				<g>
					<g>
						<g>
							<g>
								<g>
									<g>
										<g>
											<g>
												<g>
													<g>
														<g>
															<g>
																<g>
																	<g>
																		<g>
																			<path style="fill:#9E5F58;" d="M112.552,201.257c-0.078-0.682-1.046-2.201-1.731-2.231
																				c-1.829-0.079-5.054,0.428-4.574,4.998c0.657,6.247,6.794,4.298,6.786,4.118
																				C113.027,208.002,112.821,203.611,112.552,201.257z"/>
																		</g>
																	</g>
																</g>
															</g>
														</g>
													</g>
												</g>
											</g>
										</g>
									</g>
								</g>
							</g>
						</g>
					</g>
					<g>
						<g>
							<g>
								<g>
									<g>
										<g>
											<g>
												<g>
													<g>
														<g>
															<g>
																<g>
																	<g>
																		<g>
																			<g>
																				<path style="fill:#794742;" d="M110.332,205.977c-0.029-0.017-0.101,0.088-0.276,0.191
																					c-0.171,0.101-0.473,0.19-0.812,0.102c-0.686-0.173-1.351-1.162-1.5-2.285c-0.076-0.567-0.014-1.121,0.14-1.59
																					c0.143-0.477,0.405-0.827,0.731-0.921c0.322-0.111,0.578,0.063,0.674,0.23c0.102,0.166,0.076,0.295,0.11,0.302
																					c0.019,0.014,0.123-0.118,0.046-0.371c-0.039-0.122-0.128-0.261-0.287-0.366
																					c-0.163-0.106-0.389-0.145-0.618-0.096c-0.478,0.084-0.865,0.573-1.035,1.088
																					c-0.196,0.52-0.279,1.144-0.194,1.781c0.172,1.255,0.941,2.365,1.872,2.531c0.451,0.068,0.804-0.103,0.978-0.27
																					C110.337,206.129,110.355,205.986,110.332,205.977z"/>
																			</g>
																		</g>
																	</g>
																</g>
															</g>
														</g>
													</g>
												</g>
											</g>
										</g>
									</g>
								</g>
							</g>
						</g>
					</g>
				</g>
			</g>
		</g>
		<g>
			<path style="fill:#263238;" d="M109.834,199.021l1.845,1.366c5.694-7.632,16.224-26.117,15.647-25.024
				c0,0-4.968-1.132-9.869,0.574c-4.9,1.706-14.045,5.837-12.9,11.762S109.834,199.021,109.834,199.021z"/>
		</g>
		<g style="opacity:0.3;">
			<g>
				<path d="M154.068,306.413c1.786-0.708,2.509-3.002,4.262-3.79c0.809-0.363,1.728-0.352,2.612-0.431
					c3.436-0.306,6.707-2.14,8.761-4.911c2.054-2.771,2.857-6.434,2.15-9.81c-4.382,1.678-8.845,3.404-12.482,6.369
					c-3.637,2.965-6.371,7.435-6.053,12.116"/>
			</g>
		</g>
		<g>
			<path style="fill:#FF725E;" d="M152.605,288.962l4.996-7.857l0.507-15.256l0.034-16.755l-1.188-8.237l-7.387-22.135
				c0,0,10.001,0.365,11.969,4.361c1.968,3.996,14.502,38.081,14.502,38.081s2.797,7.782,2.953,9.372
				c0.157,1.59,1.705,4.531,0.573,7.08c-1.131,2.549-7.202,9.408-7.202,9.408l-1.982,2.648c0,0,0.433,1.764,0.17,2.284
				c-0.173,0.342-2.364,4.386-4.962,6.131c-1.348,0.906-3.922,0.243-4.014,0.136L152.605,288.962z"/>
		</g>
		<g>
			<g>
				<path style="fill:#263238;" d="M100.971,251.268c0.017,0.004,0,0.167-0.05,0.474c-0.066,0.365-0.146,0.806-0.243,1.335
					c-0.223,1.156-0.531,2.832-0.864,4.91c-0.687,4.153-1.425,9.924-1.957,16.326c-0.527,6.404-0.779,12.219-0.902,16.428
					c-0.054,2.043-0.099,3.726-0.133,4.987c-0.018,0.538-0.034,0.986-0.047,1.357c-0.017,0.31-0.034,0.473-0.052,0.473
					c-0.018,0-0.036-0.163-0.053-0.473c-0.014-0.371-0.031-0.819-0.051-1.357c-0.033-1.179-0.052-2.885-0.033-4.994
					c0.028-4.217,0.223-10.046,0.751-16.464c0.534-6.416,1.331-12.198,2.113-16.345c0.38-2.075,0.744-3.745,1.028-4.89
					c0.134-0.522,0.246-0.956,0.338-1.316C100.901,251.419,100.953,251.264,100.971,251.268z"/>
			</g>
		</g>
		<g>
			<g>
				<path style="fill:#263238;" d="M103.172,228.81c0.011,0.007-0.05,0.129-0.178,0.358c-0.154,0.265-0.346,0.594-0.582,0.999
					c-0.553,0.913-1.311,2.165-2.254,3.724c-1.993,3.224-4.765,7.709-8.023,12.978l-0.063-0.321c1.74,1.234,3.833,2.13,6.034,2.995
					c2.196,0.869,4.541,1.747,6.679,3.175c2.069,1.344,3.778,3.282,4.544,5.526c0.791,2.224,0.95,4.483,1.124,6.584
					c0.342,4.221,0.317,8.072-0.189,11.252c-0.474,3.186-1.435,5.651-2.269,7.236c-0.443,0.783-0.797,1.383-1.086,1.758
					c-0.273,0.385-0.423,0.582-0.438,0.571c-0.052-0.035,0.547-0.829,1.344-2.421c0.771-1.598,1.664-4.043,2.086-7.198
					c0.453-3.149,0.441-6.96,0.075-11.16c-0.184-2.096-0.359-4.321-1.125-6.448c-0.74-2.138-2.344-3.956-4.354-5.268
					c-2.073-1.386-4.377-2.257-6.578-3.135c-2.202-0.874-4.335-1.794-6.122-3.08l-0.184-0.132l0.12-0.189
					c3.322-5.229,6.15-9.679,8.183-12.878c0.991-1.529,1.788-2.756,2.369-3.652c0.261-0.389,0.474-0.705,0.645-0.959
					C103.078,228.911,103.161,228.803,103.172,228.81z"/>
			</g>
		</g>
		<g>
			<path style="fill:#E0E0E0;" d="M110.897,279.993c0,0,1.408-13.445,1.977-19.9c0.568-6.454-0.141-9.562-0.414-13.226
				s-2.844-21.137-2.844-21.137l4.231-2.648c0,0,4.393,5.705,9.463,5.002c8.861-1.228,9.57-7.185,9.57-7.185l4.205,0.151
				c0,0-0.494,18.526-0.487,23.08c0.01,5.989,0.26,19.428,0.77,23.671c0.51,4.242,3.277,15.342,3.277,15.342L110.897,279.993z"/>
		</g>
		<g style="opacity:0.3;">
			<path d="M95.981,308.432c0,0-4.871,14.856-1.527,33.668c3.344,18.813,6.995,43.423,6.995,43.423l59.572-7.162
				c5.983-2.198,11.225-4.094,11.225-4.094s-10.661-63.268-17.656-68.8C144.248,297.287,95.981,308.432,95.981,308.432z"/>
		</g>
		<g>
			<path style="fill:#263238;" d="M110.897,279.993c0,0-16.597,24.808-16.516,36.429c0.08,11.621,14.508,68.206,14.508,68.206
				l46.863-5.634c0,0,5.053-50.673,4.341-60.243c-0.712-9.57-19.83-37.169-19.83-37.169L110.897,279.993z"/>
		</g>
		<g>
			<path style="fill:#9E5F58;" d="M135.077,305.218c0,0,3.975-3.229,5.127-4.696c1.152-1.467,1.903-2.316,1.903-2.316
				s4.761-1.426,6.512-3.439c1.75-2.013,4.626-4.92,4.626-4.92l5.644,5.914c0,0-3.255,5.277-3.52,7.016
				c-0.265,1.739-2.252,6.532-2.252,6.532l-10.832-6.476c0,0-2.307,3.229-3.785,3.581
				C137.289,306.704,135.171,307.578,135.077,305.218z"/>
		</g>
		<g>
			<path style="fill:#9E5F58;" d="M91.89,294.179c0,0-2.607,5.642-2.291,7.53c0.316,1.888,8.661,8.63,8.661,8.63l6.268-7.713
				c0,0,3.479,0.744,4.77,0.201c1.291-0.543,2.024-1.696,1.848-2.353c-0.176-0.657-3.178-0.683-4.348-0.736
				c-1.171-0.053-7.856-2.833-10.074-2.179c0,0,0.285-3.502-1.301-3.805C93.837,293.451,91.89,294.179,91.89,294.179z"/>
		</g>
		<g>
			<g>
				<path style="fill:#794742;" d="M143.557,300.389c0.133,0.042-0.023,0.865-0.573,1.718c-0.546,0.856-1.23,1.341-1.323,1.237
					c-0.103-0.107,0.378-0.721,0.885-1.518C143.058,301.033,143.417,300.34,143.557,300.389z"/>
			</g>
		</g>
		<g>
			<g>
				<path style="fill:#263238;" d="M141.228,218.683c0.009-0.012,0.131,0.058,0.358,0.205c0.266,0.178,0.591,0.396,0.986,0.661
					c0.904,0.631,2.129,1.485,3.64,2.54c3.139,2.239,7.459,5.32,12.446,8.877l0.249,0.178l-0.231,0.213
					c-1.851,1.711-3.784,3.639-5.579,5.82c-5.196,6.225-9.09,12.494-11.824,17.049c-1.359,2.287-2.421,4.161-3.149,5.459
					c-0.342,0.609-0.619,1.104-0.839,1.495c-0.195,0.34-0.302,0.517-0.319,0.509c-0.016-0.008,0.06-0.2,0.225-0.556
					c0.163-0.357,0.419-0.876,0.753-1.542c0.674-1.329,1.688-3.234,3.009-5.549c2.659-4.613,6.514-10.932,11.744-17.199
					c1.806-2.196,3.764-4.139,5.647-5.861l0.019,0.391c-4.943-3.617-9.226-6.75-12.338-9.027c-1.476-1.104-2.671-1.998-3.554-2.658
					c-0.376-0.292-0.685-0.532-0.938-0.728C141.325,218.789,141.219,218.695,141.228,218.683z"/>
			</g>
		</g>
		<g>
			<g>
				<path style="fill:#263238;" d="M168.563,334.147c0.017-0.006,0.077,0.123,0.177,0.373c0.056,0.142,0.115,0.295,0.181,0.462
					c0.037,0.094,0.076,0.192,0.116,0.293l0.067,0.157c-0.004,0.013,0.06,0.082-0.004,0.029c0.001,0.006-0.023-0.027-0.093,0.007
					c-0.055,0.055-0.035,0.066-0.039,0.058l-0.002,0.007l-0.002-0.013l-0.008-0.041c-0.243-0.975-0.671-2.398-1.167-4.151
					c-1.004-3.508-2.382-8.358-3.852-13.729c-1.472-5.373-2.753-10.251-3.616-13.799c-0.432-1.774-0.76-3.215-0.967-4.215
					c-0.207-1-0.294-1.56-0.259-1.567c0.036-0.008,0.189,0.536,0.456,1.52c0.29,1.074,0.669,2.478,1.126,4.171
					c0.986,3.605,2.304,8.425,3.761,13.753c1.47,5.37,2.791,10.235,3.705,13.769c0.452,1.771,0.822,3.193,1.012,4.213l0.006,0.053
					l0.002,0.034l-0.002,0.03c-0.004-0.004,0.014,0.011-0.044,0.068c-0.073,0.037-0.102,0.008-0.102,0.008
					c-0.104-0.101-0.06-0.091-0.088-0.133l-0.059-0.17c-0.033-0.106-0.064-0.207-0.094-0.305c-0.049-0.174-0.093-0.333-0.134-0.48
					C168.573,334.292,168.546,334.152,168.563,334.147z"/>
			</g>
		</g>
		<g>
			<g>
				<path style="fill:#263238;" d="M109.511,276.337c-0.054,0.133-0.812-0.047-1.692-0.403c-0.881-0.356-1.551-0.753-1.497-0.886
					c0.054-0.133,0.811,0.047,1.692,0.403C108.895,275.807,109.565,276.204,109.511,276.337z"/>
			</g>
		</g>
		<g>
			<g>
				<path style="fill:#263238;" d="M144.938,271.876c0.083,0.109-0.783,0.854-2.105,1.266c-1.32,0.42-2.456,0.306-2.451,0.17
					c-0.004-0.151,1.059-0.271,2.294-0.666C143.915,272.261,144.854,271.75,144.938,271.876z"/>
			</g>
		</g>
		<g>
			<g>
				<path style="fill:#E0E0E0;" d="M112.564,214.399c0.02,0.017-0.104,0.236-0.438,0.538c-0.33,0.301-0.89,0.668-1.672,0.896
					c-0.776,0.215-1.794,0.281-2.829-0.095c-1.039-0.363-1.988-1.242-2.514-2.384c-0.523-1.144-0.571-2.437-0.17-3.462
					c0.389-1.03,1.102-1.759,1.772-2.207c0.683-0.445,1.326-0.63,1.77-0.684c0.446-0.056,0.693-0.008,0.693,0.018
					c0.024,0.102-1.021,0.057-2.25,0.966c-0.594,0.452-1.212,1.145-1.533,2.069c-0.332,0.914-0.276,2.054,0.191,3.082
					c0.475,1.024,1.303,1.81,2.212,2.153c0.91,0.359,1.839,0.342,2.568,0.187C111.855,215.136,112.502,214.315,112.564,214.399z"/>
			</g>
		</g>
		<g style="opacity:0.3;">
			<g>
				<path d="M137.344,260.96c0,0,5.354-9.107,8.939-12.953c3.584-3.846,8.186-6.957,13.373-7.809
					c-0.943-2.374-2.365-4.557-4.156-6.379C155.5,233.819,142.244,249.47,137.344,260.96z"/>
			</g>
		</g>
		<g>
			<g>
				<path style="fill:#263238;" d="M172.362,287.024c0.015,0.011-0.145,0.255-0.465,0.713c-0.355,0.495-0.831,1.159-1.432,1.998
					l0.02-0.081c0.051,0.379,0.106,0.787,0.165,1.223c0.029,0.22,0.059,0.447,0.09,0.681c0.035,0.262-0.095,0.547-0.207,0.757
					c-0.485,0.903-1.165,1.79-1.925,2.747c-0.772,0.948-1.617,1.965-2.651,2.96c-0.508,0.545-1.344,0.839-2.116,0.821
					c-0.788,0.007-1.565-0.145-2.345-0.414l-0.041-0.014l-0.036-0.036c-2.533-2.533-5.347-5.346-8.353-8.352l0.018,0.017
					c-0.605-0.518-0.812-1.316-0.819-2.036c-0.004-0.734,0.154-1.459,0.43-2.135c0.548-1.356,1.5-2.565,2.737-3.429
					c0.506-0.359,1.06-0.634,1.624-0.867l-0.134,0.115c1.222-2.167,2.41-4.273,3.543-6.281l-0.027,0.175
					c-1.638-8.13-3.065-15.212-4.095-20.324c-0.482-2.493-0.87-4.503-1.149-5.947c-0.118-0.66-0.213-1.189-0.286-1.599
					c-0.06-0.365-0.085-0.556-0.07-0.559c0.015-0.003,0.068,0.182,0.157,0.541c0.095,0.405,0.217,0.929,0.369,1.582
					c0.315,1.437,0.752,3.437,1.296,5.917c1.075,5.102,2.564,12.172,4.274,20.287l0.019,0.092l-0.047,0.083
					c-1.129,2.01-2.313,4.119-3.53,6.288l-0.044,0.078l-0.09,0.038c-0.525,0.219-1.04,0.474-1.511,0.808
					c-1.152,0.803-2.045,1.937-2.554,3.194c-0.258,0.626-0.399,1.292-0.397,1.936c0.004,0.639,0.191,1.276,0.629,1.652l0.012,0.01
					l0.007,0.007c2.988,3.022,5.787,5.852,8.305,8.399l-0.077-0.05c1.4,0.48,3.086,0.707,4.036-0.285
					c1.013-0.952,1.877-1.959,2.654-2.885c0.767-0.934,1.463-1.813,1.941-2.661c0.118-0.224,0.214-0.402,0.192-0.612
					c-0.025-0.231-0.049-0.456-0.073-0.673c-0.046-0.432-0.088-0.836-0.128-1.212l-0.005-0.049l0.025-0.032
					c0.635-0.813,1.138-1.457,1.513-1.937C172.158,287.235,172.347,287.013,172.362,287.024z"/>
			</g>
		</g>
		<g>
			<g>
				<path style="fill:#263238;" d="M168.332,291.134c-0.134,0.1-1.913-2.599-4.973-5.057c-3.038-2.488-6.046-3.67-5.975-3.822
					c0.022-0.059,0.802,0.159,1.988,0.706c1.185,0.545,2.761,1.454,4.315,2.712c1.551,1.261,2.766,2.614,3.544,3.661
					C168.011,290.382,168.385,291.1,168.332,291.134z"/>
			</g>
		</g>
		<g>
			<g>
				<path style="fill:#263238;" d="M172.527,273.276c-0.02,0.169-2.924-0.598-6.424,0.182c-3.513,0.728-5.844,2.62-5.933,2.474
					c-0.038-0.045,0.483-0.579,1.493-1.227c1.005-0.649,2.531-1.366,4.33-1.755c1.8-0.384,3.485-0.357,4.668-0.178
					C171.849,272.946,172.543,273.219,172.527,273.276z"/>
			</g>
		</g>
		<g style="opacity:0.3;">
			<g>
				<path d="M108.909,257.85c-1.336-2.975-3.98-4.964-6.92-6.375c-2.94-1.412-5.944-2.275-9.014-4.051l0.032,0.267
					c0.612,1.597,1.914,2.84,3.336,3.79c1.422,0.95,2.99,1.66,4.451,2.549c4.486,2.729,7.882,7.196,9.312,12.248
					C110.288,263.518,110.042,260.374,108.909,257.85z"/>
			</g>
		</g>
		<g>
			<g>
				<path style="fill:#455A64;" d="M132.181,382.108c-0.143,0.017-1.835-13.077-3.778-29.244
					c-1.944-16.172-3.404-29.292-3.262-29.309c0.143-0.017,1.834,13.075,3.779,29.247
					C130.864,368.968,132.324,382.091,132.181,382.108z"/>
			</g>
		</g>
		<g>
			<g>
				<path style="fill:#455A64;" d="M131.034,312.016c0.124,0.087-1.423,2.447-3.126,5.472c-1.712,3.021-2.934,5.563-3.073,5.502
					c-0.126-0.052,0.892-2.71,2.619-5.759C129.173,314.179,130.925,311.935,131.034,312.016z"/>
			</g>
		</g>
		<g>
			<g>
				<path style="fill:#455A64;" d="M128.672,256.352c0.05,0.043-0.406,0.692-1.266,1.64c-0.858,0.948-2.141,2.177-3.699,3.361
					c-1.561,1.181-3.09,2.084-4.235,2.655c-1.145,0.573-1.893,0.836-1.921,0.776c-0.071-0.145,2.773-1.505,5.841-3.846
					C126.474,258.617,128.552,256.244,128.672,256.352z"/>
			</g>
		</g>
		<g>
			<g>
				<path style="fill:#263238;" d="M96.937,286.311c-0.014,0.081-0.568,0.01-1.444,0.083c-0.871,0.068-2.076,0.326-3.223,0.991
					c-1.147,0.665-1.97,1.583-2.461,2.305c-0.498,0.724-0.712,1.24-0.789,1.212c-0.059-0.018,0.033-0.59,0.476-1.405
					c0.433-0.81,1.273-1.844,2.514-2.563c1.24-0.719,2.555-0.934,3.472-0.908C96.408,286.048,96.951,286.252,96.937,286.311z"/>
			</g>
		</g>
		<g>
			<g>
				<path style="fill:#263238;" d="M93.823,278.143c0.084,0.117-0.455,0.649-1.205,1.188c-0.749,0.54-1.425,0.882-1.509,0.765
					c-0.084-0.117,0.455-0.648,1.205-1.188C93.063,278.369,93.739,278.026,93.823,278.143z"/>
			</g>
		</g>
	</g>
	<g>
		<g>
			<path style="fill:#455A64;" d="M84.274,261.665c0.079,1.323-0.929,2.46-2.252,2.539c-1.323,0.079-2.46-0.929-2.539-2.252
				c-0.079-1.323,0.929-2.46,2.252-2.539C83.058,259.334,84.194,260.342,84.274,261.665z"/>
		</g>
		<g>
			<path style="fill:#455A64;" d="M143.833,333.789c0.079,1.323-0.929,2.46-2.252,2.539c-1.323,0.079-2.46-0.929-2.539-2.252
				c-0.079-1.323,0.929-2.46,2.252-2.539C142.617,331.458,143.754,332.466,143.833,333.789z"/>
		</g>
		<g>
			<g>
				<path style="fill:#455A64;" d="M63.756,245.736c0.096-0.108,4.23,3.404,9.233,7.841c5.005,4.439,8.984,8.124,8.888,8.232
					c-0.095,0.108-4.229-3.403-9.234-7.842C67.641,249.529,63.661,245.843,63.756,245.736z"/>
			</g>
		</g>
		<g>
			<g>
				<path style="fill:#455A64;" d="M178.164,322.102c0.005,0.036-0.535,0.143-1.515,0.308c-1.075,0.167-2.473,0.385-4.158,0.647
					c-3.514,0.524-8.372,1.212-13.743,1.94c-0.315,0.043-0.627,0.085-0.918,0.124l0.091-0.03c-4.56,2.524-8.664,4.765-11.636,6.36
					c-1.428,0.754-2.613,1.38-3.526,1.862c-0.836,0.429-1.305,0.651-1.322,0.62c-0.017-0.03,0.419-0.31,1.226-0.792
					c0.893-0.519,2.051-1.192,3.447-2.004c2.927-1.676,7.002-3.97,11.559-6.5l0.043-0.024l0.049-0.007
					c0.291-0.04,0.604-0.082,0.918-0.125c5.37-0.728,10.237-1.359,13.763-1.789c1.693-0.196,3.099-0.358,4.18-0.483
					C177.61,322.106,178.159,322.066,178.164,322.102z"/>
			</g>
		</g>
		<g>
			<g>
				<path style="fill:#455A64;" d="M64.248,239.074c0,0.144-4.001,0.26-8.935,0.26c-4.936,0-8.936-0.117-8.936-0.26
					c0-0.144,4-0.26,8.936-0.26C60.247,238.814,64.248,238.931,64.248,239.074z"/>
			</g>
		</g>
		<g>
			<g>
				<path style="fill:#455A64;" d="M60.449,241.607c0,0.144-2.835,0.261-6.332,0.261c-3.498,0-6.333-0.117-6.333-0.261
					c0-0.144,2.835-0.26,6.333-0.26C57.613,241.347,60.449,241.464,60.449,241.607z"/>
			</g>
		</g>
		<g>
			<g>
				<path style="fill:#455A64;" d="M204.737,319.834c0.01,0.144-4.161,0.547-9.314,0.901c-5.155,0.354-9.341,0.525-9.351,0.382
					c-0.01-0.143,4.16-0.547,9.315-0.901C200.541,319.861,204.728,319.69,204.737,319.834z"/>
			</g>
		</g>
		<g>
			<g>
				<path style="fill:#455A64;" d="M201.231,322.612c0.007,0.144-2.381,0.37-5.331,0.506c-2.952,0.136-5.349,0.129-5.356-0.014
					c-0.007-0.144,2.38-0.37,5.332-0.506C198.826,322.462,201.224,322.468,201.231,322.612z"/>
			</g>
		</g>
	</g>
</g>
<g id="Floor">
	<g>
		<g>
			<path style="fill:#263238;" d="M448.821,468.572c0,0.144-90.813,0.26-202.812,0.26c-112.037,0-202.831-0.117-202.831-0.26
				c0-0.144,90.794-0.26,202.831-0.26C358.008,468.311,448.821,468.428,448.821,468.572z"/>
		</g>
	</g>
</g>
</svg>
