<?xml version="1.0" encoding="utf-8"?>
<svg version="1.1" xmlns="http://www.w3.org/2000/svg" x="0px" y="0px" viewBox="0 0 500 500" style="enable-background:new 0 0 500 500;">
  <g id="OBJECTS">
    <g>
      <g>
        <polygon style="fill:#494CBA;" points="401.979,381.612 313.685,432.923 290.476,419.524 378.77,368.212 &#9;&#9;&#9;"/>
      </g>
      <g>
        <polygon style="fill:#393DB5;" points="390.597,268.62 409.347,307.694 402.122,303.522 401.899,381.917 378.69,368.517 &#10;&#9;&#9;&#9;&#9;378.912,290.122 371.687,285.951 &#9;&#9;&#9;"/>
      </g>
    </g>
    <g>
      <g>
        <g style="enable-background:new    ;">
          <g>
            <polygon style="fill:#D1D3D4;" points="314.704,327.536 314.698,329.981 153.188,423.84 153.195,421.395 &#9;&#9;&#9;&#9;&#9;"/>
          </g>
          <g>
            <polygon style="fill:#E6E7E8;" points="153.195,421.395 153.188,423.84 129.673,410.264 129.68,407.819 &#9;&#9;&#9;&#9;&#9;"/>
          </g>
          <g>
            <polygon style="fill:#FFFFFF;" points="314.704,327.536 153.195,421.395 129.68,407.819 291.19,313.96 &#9;&#9;&#9;&#9;&#9;"/>
          </g>
        </g>
      </g>
      <g>
        <g>
          <path style="fill:#653A7A;" d="M172.453,391.043c0.396,0.229,0.398,0.59,0.005,0.818c-0.387,0.225-1.017,0.228-1.413,0 l-6.979-4.029l1.408-0.818L172.453,391.043z"/>
        </g>
        <g>
          <path style="fill:#653A7A;" d="M177.977,387.832c0.396,0.229,0.392,0.594,0.005,0.818c-0.393,0.228-1.017,0.228-1.413,0 l-6.979-4.029l1.408-0.818L177.977,387.832z"/>
        </g>
        <g>
          <path style="fill:#653A7A;" d="M189.014,381.418c0.396,0.229,0.392,0.593,0.005,0.818c-0.387,0.225-1.017,0.228-1.413,0 l-6.978-4.029l1.408-0.818L189.014,381.418z"/>
        </g>
        <g>
          <path style="fill:#653A7A;" d="M222.132,362.172c0.396,0.228,0.392,0.594,0.005,0.818c-0.393,0.229-1.017,0.229-1.413,0 l-6.978-4.029l1.408-0.818L222.132,362.172z"/>
        </g>
        <g>
          <path style="fill:#653A7A;" d="M233.169,355.758c0.396,0.229,0.391,0.593,0.005,0.818c-0.387,0.225-1.017,0.228-1.413,0 l-6.978-4.029l1.408-0.818L233.169,355.758z"/>
        </g>
        <g>
          <path style="fill:#653A7A;" d="M230.416,357.358c0.396,0.229,0.391,0.594,0.005,0.818c-0.393,0.229-1.017,0.229-1.413,0 l-6.979-4.029l1.408-0.818L230.416,357.358z"/>
        </g>
        <g style="enable-background:new    ;">
          <g>
            <path style="fill:#653A7A;" d="M249.738,346.129c0.396,0.229,0.392,0.593-0.002,0.822c-0.393,0.229-1.017,0.229-1.413,0 l-6.978-4.029l1.414-0.822L249.738,346.129z"/>
          </g>
          <g>
            <path style="fill:#653A7A;" d="M246.972,347.737c0.396,0.228,0.392,0.593,0.005,0.818c-0.387,0.225-1.017,0.228-1.413,0 l-6.978-4.029l1.408-0.818L246.972,347.737z"/>
          </g>
          <g>
            <path style="fill:#653A7A;" d="M260.886,349.377c0.389,0.225,0.392,0.594,0.005,0.818c-0.387,0.225-1.023,0.225-1.413,0 l-15.374-8.876l1.408-0.818L260.886,349.377z"/>
          </g>
          <g>
            <path style="fill:#653A7A;" d="M244.206,349.344c0.396,0.228,0.404,0.586,0.005,0.818c-0.387,0.225-1.017,0.228-1.413,0 l-6.978-4.029l1.408-0.818L244.206,349.344z"/>
          </g>
          <g>
            <path style="fill:#653A7A;" d="M241.453,350.944c0.396,0.228,0.392,0.594,0.005,0.818c-0.387,0.225-1.017,0.229-1.413,0 l-6.979-4.029l1.408-0.818L241.453,350.944z"/>
          </g>
        </g>
        <g style="enable-background:new    ;">
          <g>
            <path style="fill:#653A7A;" d="M235.935,354.151c0.396,0.229,0.392,0.594,0.005,0.818c-0.393,0.229-1.017,0.229-1.413,0 l-6.978-4.029l1.408-0.818L235.935,354.151z"/>
          </g>
          <g>
            <path style="fill:#653A7A;" d="M247.084,357.398c0.389,0.225,0.404,0.586,0.005,0.818c-0.387,0.225-1.023,0.225-1.413,0 l-15.374-8.876l1.408-0.818L247.084,357.398z"/>
          </g>
          <g>
            <path style="fill:#653A7A;" d="M227.651,358.965c0.396,0.228,0.392,0.593,0.005,0.818c-0.387,0.225-1.017,0.228-1.413,0 l-6.979-4.029l1.408-0.818L227.651,358.965z"/>
          </g>
          <g>
            <path style="fill:#653A7A;" d="M219.373,363.775c0.396,0.229,0.398,0.59,0.005,0.818c-0.387,0.225-1.017,0.229-1.413,0 l-6.978-4.029l1.408-0.818L219.373,363.775z"/>
          </g>
          <g>
            <path style="fill:#653A7A;" d="M233.287,365.416c0.389,0.225,0.398,0.59,0.005,0.818c-0.387,0.225-1.023,0.225-1.413,0 l-15.374-8.876l1.408-0.818L233.287,365.416z"/>
          </g>
          <g>
            <path style="fill:#653A7A;" d="M216.614,365.379c0.396,0.229,0.392,0.594,0.005,0.818c-0.393,0.229-1.017,0.229-1.413,0 l-6.978-4.029l1.408-0.818L216.614,365.379z"/>
          </g>
          <g>
            <path style="fill:#653A7A;" d="M213.854,366.982c0.396,0.229,0.392,0.594,0.005,0.818c-0.387,0.225-1.017,0.228-1.413,0 l-6.979-4.029l1.408-0.818L213.854,366.982z"/>
          </g>
          <g>
            <path style="fill:#653A7A;" d="M208.336,370.19c0.396,0.228,0.392,0.593,0.005,0.818c-0.387,0.225-1.017,0.228-1.413,0 l-6.978-4.029l1.408-0.818L208.336,370.19z"/>
          </g>
          <g>
            <path style="fill:#653A7A;" d="M205.57,371.797c0.396,0.229,0.398,0.59,0.005,0.818c-0.387,0.225-1.017,0.229-1.413,0 l-6.978-4.029l1.408-0.818L205.57,371.797z"/>
          </g>
          <g>
            <path style="fill:#653A7A;" d="M219.485,373.437c0.389,0.225,0.398,0.59,0.005,0.818c-0.387,0.225-1.023,0.225-1.413,0 l-15.374-8.876l1.408-0.818L219.485,373.437z"/>
          </g>
          <g>
            <path style="fill:#653A7A;" d="M202.817,373.397c0.396,0.228,0.391,0.593,0.005,0.818c-0.393,0.229-1.017,0.229-1.413,0 l-6.979-4.029l1.408-0.818L202.817,373.397z"/>
          </g>
          <g>
            <path style="fill:#653A7A;" d="M200.052,375.004c0.396,0.229,0.392,0.594,0.005,0.818c-0.387,0.225-1.017,0.229-1.413,0 l-6.979-4.029l1.408-0.818L200.052,375.004z"/>
          </g>
          <g>
            <path style="fill:#653A7A;" d="M205.694,381.451c0.39,0.225,0.392,0.593,0.005,0.818c-0.393,0.229-1.023,0.225-1.413,0 l-15.374-8.876l1.408-0.818L205.694,381.451z"/>
          </g>
        </g>
        <g>
          <path style="fill:#653A7A;" d="M194.533,378.211c0.396,0.229,0.391,0.594,0.005,0.818c-0.387,0.225-1.017,0.228-1.413,0 L186.146,375l1.408-0.818L194.533,378.211z"/>
        </g>
        <g>
          <path style="fill:#653A7A;" d="M191.774,379.814c0.396,0.229,0.398,0.59,0.005,0.818c-0.387,0.225-1.017,0.229-1.413,0 l-6.978-4.029l1.408-0.818L191.774,379.814z"/>
        </g>
        <g>
          <path style="fill:#653A7A;" d="M186.255,383.021c0.396,0.228,0.398,0.59,0.005,0.818c-0.387,0.225-1.017,0.229-1.413,0 l-6.979-4.029l1.408-0.818L186.255,383.021z"/>
        </g>
        <g>
          <path style="fill:#653A7A;" d="M191.892,389.472c0.39,0.225,0.392,0.594,0.005,0.818c-0.393,0.229-1.023,0.225-1.413,0 l-15.374-8.876l1.408-0.818L191.892,389.472z"/>
        </g>
        <g>
          <path style="fill:#653A7A;" d="M180.737,386.228c0.396,0.228,0.391,0.594,0.005,0.818c-0.387,0.225-1.023,0.232-1.419,0.004 l-6.979-4.029l1.415-0.822L180.737,386.228z"/>
        </g>
        <g>
          <path style="fill:#653A7A;" d="M175.218,389.435c0.396,0.229,0.392,0.594,0.005,0.818c-0.387,0.225-1.023,0.232-1.419,0.004 l-6.979-4.029l1.414-0.822L175.218,389.435z"/>
        </g>
        <g>
          <path style="fill:#653A7A;" d="M178.095,397.49c0.389,0.225,0.392,0.594,0.005,0.818c-0.387,0.225-1.03,0.229-1.419,0.004 l-15.374-8.876l1.415-0.822L178.095,397.49z"/>
        </g>
        <g>
          <path style="fill:#653A7A;" d="M166.934,394.25c0.396,0.228,0.391,0.593,0.005,0.818c-0.387,0.225-1.017,0.228-1.413,0 l-6.978-4.029l1.408-0.818L166.934,394.25z"/>
        </g>
        <g>
          <path style="fill:#653A7A;" d="M274.571,331.698c0.396,0.229,0.392,0.594,0.005,0.818c-0.393,0.229-1.017,0.229-1.413,0 l-6.978-4.029l1.408-0.818L274.571,331.698z"/>
        </g>
        <g>
          <path style="fill:#653A7A;" d="M277.324,330.098c0.396,0.228,0.404,0.586,0.005,0.818c-0.387,0.225-1.017,0.229-1.413,0 l-6.979-4.029l1.408-0.818L277.324,330.098z"/>
        </g>
        <g>
          <path style="fill:#653A7A;" d="M285.608,325.284c0.396,0.229,0.392,0.593,0.005,0.818c-0.387,0.225-1.017,0.229-1.413,0 l-6.978-4.029l1.408-0.818L285.608,325.284z"/>
        </g>
        <g>
          <path style="fill:#653A7A;" d="M302.288,325.317c0.389,0.225,0.392,0.593-0.002,0.822c-0.393,0.229-1.023,0.225-1.413,0 l-15.374-8.876l1.414-0.822L302.288,325.317z"/>
        </g>
        <g>
          <path style="fill:#653A7A;" d="M291.127,322.077c0.396,0.229,0.391,0.594,0.005,0.818c-0.387,0.225-1.017,0.229-1.413,0 l-6.979-4.029l1.408-0.818L291.127,322.077z"/>
        </g>
        <g>
          <path style="fill:#653A7A;" d="M288.374,323.676c0.396,0.229,0.392,0.594,0.005,0.818c-0.4,0.232-1.023,0.232-1.419,0.004 l-6.978-4.029l1.414-0.822L288.374,323.676z"/>
        </g>
        <g>
          <path style="fill:#653A7A;" d="M282.843,326.891c0.396,0.228,0.404,0.586,0.005,0.818c-0.387,0.225-1.017,0.229-1.413,0 l-6.978-4.029l1.408-0.818L282.843,326.891z"/>
        </g>
        <g>
          <path style="fill:#653A7A;" d="M288.486,333.338c0.389,0.225,0.392,0.593,0.005,0.818c-0.387,0.225-1.023,0.225-1.413,0 l-15.374-8.876l1.408-0.818L288.486,333.338z"/>
        </g>
        <g style="enable-background:new    ;">
          <g>
            <path style="fill:#653A7A;" d="M271.812,333.301c0.396,0.229,0.392,0.594-0.002,0.822c-0.387,0.225-1.017,0.229-1.413,0 l-6.978-4.029l1.415-0.822L271.812,333.301z"/>
          </g>
          <g>
            <path style="fill:#653A7A;" d="M269.053,334.905c0.396,0.229,0.392,0.594,0.005,0.818c-0.393,0.228-1.017,0.228-1.413,0 l-6.978-4.029l1.408-0.818L269.053,334.905z"/>
          </g>
          <g>
            <path style="fill:#653A7A;" d="M263.528,338.116c0.396,0.228,0.398,0.59,0.005,0.818c-0.387,0.225-1.017,0.228-1.413,0 l-6.978-4.029l1.408-0.818L263.528,338.116z"/>
          </g>
          <g>
            <path style="fill:#653A7A;" d="M260.775,339.715c0.396,0.228,0.392,0.594-0.002,0.822c-0.387,0.225-1.017,0.229-1.413,0 l-6.978-4.029l1.415-0.822L260.775,339.715z"/>
          </g>
          <g>
            <path style="fill:#653A7A;" d="M274.689,341.356c0.389,0.225,0.392,0.594-0.002,0.822c-0.387,0.225-1.023,0.225-1.413,0 l-15.374-8.876l1.414-0.822L274.689,341.356z"/>
          </g>
          <g>
            <path style="fill:#653A7A;" d="M258.009,341.323c0.396,0.228,0.398,0.59,0.005,0.818c-0.387,0.225-1.017,0.229-1.413,0 l-6.978-4.029l1.408-0.818L258.009,341.323z"/>
          </g>
          <g>
            <path style="fill:#653A7A;" d="M255.256,342.922c0.396,0.229,0.391,0.594-0.002,0.822c-0.393,0.229-1.017,0.229-1.413,0 l-6.979-4.029l1.415-0.822L255.256,342.922z"/>
          </g>
        </g>
        <g style="enable-background:new    ;">
          <g>
            <path style="fill:#FFFFFF;" d="M291.183,313.96l23.515,13.576l-161.51,93.859l-23.515-13.576l4.034-2.344l15.374,8.876 c0.39,0.225,1.026,0.225,1.419-0.004c0.387-0.225,0.385-0.594-0.004-0.818l-15.374-8.876l1.351-0.785l6.978,4.029 c0.396,0.229,1.02,0.229,1.413,0c0.387-0.225,0.391-0.59-0.005-0.818l-6.979-4.029l1.345-0.781l6.979,4.029 c0.396,0.228,1.026,0.225,1.419-0.004c0.387-0.225,0.391-0.59-0.005-0.818l-6.978-4.029l1.351-0.785l6.978,4.029 c0.396,0.229,1.026,0.225,1.413,0c0.387-0.225,0.391-0.59-0.005-0.818l-6.979-4.029l1.345-0.781l6.979,4.029 c0.396,0.228,1.026,0.225,1.413,0c0.4-0.232,0.398-0.594,0.002-0.822l-6.978-4.029l1.351-0.785l15.374,8.876 c0.39,0.225,1.026,0.225,1.413,0c0.387-0.225,0.385-0.594-0.005-0.818l-15.374-8.876l1.357-0.789l6.978,4.029 c0.396,0.229,1.013,0.232,1.413,0c0.387-0.225,0.391-0.59-0.005-0.818l-6.978-4.029l1.345-0.781l6.979,4.029 c0.396,0.229,1.026,0.225,1.413,0c0.387-0.225,0.391-0.59-0.005-0.818l-6.978-4.029l1.357-0.789l6.978,4.029 c0.396,0.229,1.013,0.232,1.413,0c0.387-0.225,0.391-0.59-0.005-0.818l-6.979-4.029l1.345-0.781l6.978,4.029 c0.396,0.228,1.026,0.225,1.413,0c0.387-0.225,0.391-0.59-0.005-0.818l-6.979-4.029l1.351-0.785l15.374,8.876 c0.389,0.225,1.032,0.221,1.419-0.004c0.387-0.225,0.385-0.594-0.005-0.818l-15.374-8.876l1.345-0.781l6.978,4.029 c0.396,0.228,1.026,0.225,1.413,0c0.393-0.229,0.391-0.59-0.005-0.818l-6.979-4.029l1.351-0.785l6.979,4.029 c0.396,0.229,1.032,0.221,1.419-0.004c0.387-0.225,0.391-0.59-0.005-0.818l-6.978-4.029l1.351-0.785l6.979,4.029 c0.396,0.229,1.02,0.229,1.413,0c0.387-0.225,0.391-0.59-0.005-0.818l-6.979-4.029l1.345-0.781l6.979,4.029 c0.396,0.229,1.032,0.221,1.419-0.004c0.387-0.225,0.391-0.59-0.005-0.818l-6.978-4.029l1.351-0.785l15.374,8.876 c0.389,0.225,1.02,0.229,1.413,0c0.387-0.225,0.385-0.594-0.005-0.818l-15.374-8.876l1.351-0.785l6.979,4.029 c0.396,0.229,1.026,0.225,1.413,0c0.393-0.229,0.391-0.59-0.005-0.818l-6.979-4.029l1.351-0.785l6.978,4.029 c0.396,0.228,1.026,0.225,1.413,0c0.387-0.225,0.391-0.59-0.005-0.818l-6.978-4.029l1.351-0.785l6.978,4.029 c0.396,0.229,1.026,0.225,1.413,0c0.393-0.229,0.391-0.59-0.005-0.818l-6.978-4.029l1.351-0.785l6.978,4.029 c0.396,0.228,1.026,0.225,1.413,0c0.387-0.225,0.391-0.59-0.005-0.818l-6.979-4.029l1.357-0.789l15.374,8.876 c0.389,0.225,1.019,0.229,1.413,0c0.387-0.225,0.385-0.594-0.005-0.818l-15.374-8.876l1.345-0.781l6.979,4.029 c0.396,0.229,1.026,0.225,1.413,0c0.387-0.225,0.391-0.59-0.005-0.818l-6.978-4.029l1.357-0.789l6.979,4.029 c0.396,0.228,1.02,0.229,1.413,0c0.387-0.225,0.391-0.59-0.005-0.818l-6.979-4.029l1.345-0.781l6.978,4.029 c0.396,0.229,1.026,0.225,1.413,0c0.393-0.229,0.391-0.59-0.005-0.818l-6.978-4.029l1.357-0.789l6.978,4.029 c0.396,0.228,1.026,0.225,1.413,0c0.387-0.225,0.391-0.59-0.005-0.818l-6.978-4.029l1.345-0.781l15.374,8.876 c0.389,0.225,1.026,0.225,1.413,0c0.393-0.229,0.385-0.594-0.005-0.818l-15.374-8.876l1.357-0.789l6.979,4.029 c0.396,0.228,1.026,0.225,1.413,0c0.387-0.225,0.391-0.59-0.005-0.818l-6.979-4.029l1.351-0.785l6.978,4.029 c0.396,0.229,1.02,0.229,1.413,0c0.387-0.225,0.391-0.59-0.005-0.818l-6.978-4.029l1.351-0.785l6.978,4.029 c0.396,0.229,1.026,0.225,1.413,0c0.393-0.228,0.391-0.59-0.005-0.818l-6.978-4.029l1.351-0.785l6.978,4.029 c0.396,0.228,1.019,0.228,1.413,0c0.387-0.225,0.391-0.59-0.005-0.818l-6.979-4.029l1.351-0.785l15.374,8.876 c0.389,0.225,1.026,0.225,1.413,0c0.393-0.229,0.385-0.594-0.005-0.818l-15.374-8.876l1.351-0.785l6.979,4.029 c0.396,0.228,1.026,0.225,1.413,0c0.387-0.225,0.391-0.59-0.005-0.818l-6.978-4.029l1.357-0.789l6.978,4.029 c0.396,0.229,1.02,0.229,1.413,0c0.387-0.225,0.391-0.59-0.005-0.818l-6.979-4.029l1.345-0.782l6.978,4.029 c0.396,0.229,1.026,0.225,1.413,0c0.387-0.225,0.391-0.59-0.005-0.818l-6.978-4.029l1.357-0.789l6.978,4.029 c0.396,0.229,1.02,0.229,1.413,0c0.387-0.225,0.391-0.59-0.005-0.818l-6.978-4.029l1.345-0.782l15.374,8.876 c0.389,0.225,1.026,0.225,1.413,0c0.4-0.232,0.385-0.594-0.005-0.818l-15.374-8.876l1.357-0.789l6.979,4.029 c0.396,0.229,1.026,0.225,1.413,0c0.387-0.225,0.391-0.59-0.005-0.818l-6.978-4.029l1.345-0.782l6.978,4.029 c0.396,0.228,1.026,0.225,1.413,0c0.4-0.232,0.391-0.59-0.005-0.818l-6.978-4.029l1.357-0.789l6.978,4.029 c0.396,0.228,1.026,0.225,1.413,0c0.387-0.225,0.391-0.59-0.005-0.818l-6.979-4.029l1.351-0.785l6.978,4.029 c0.396,0.229,1.02,0.229,1.413,0c0.393-0.229,0.398-0.593,0.002-0.822l-6.978-4.029l1.345-0.782l15.374,8.876 c0.389,0.225,1.026,0.225,1.413,0c0.387-0.225,0.385-0.593-0.005-0.818l-15.374-8.876l1.351-0.785l6.979,4.029 c0.396,0.229,1.02,0.229,1.413,0c0.393-0.228,0.398-0.594,0.002-0.822l-6.979-4.029l1.345-0.782l6.978,4.029 c0.396,0.229,1.026,0.225,1.413,0c0.393-0.229,0.391-0.59-0.005-0.818l-6.978-4.029l1.351-0.785l6.978,4.029 c0.396,0.229,1.026,0.225,1.413,0c0.393-0.229,0.398-0.594,0.002-0.822l-6.978-4.029l1.345-0.782l6.978,4.029 c0.396,0.228,1.026,0.225,1.413,0c0.393-0.229,0.391-0.59-0.005-0.818l-6.978-4.029l1.351-0.785l15.374,8.876 c0.389,0.225,1.026,0.225,1.413,0c0.393-0.229,0.391-0.597,0.002-0.822l-15.374-8.876l1.351-0.785l6.978,4.029 c0.396,0.228,1.02,0.228,1.413,0c0.387-0.225,0.391-0.59-0.005-0.818l-6.978-4.029l1.345-0.781l6.978,4.029 c0.396,0.229,1.026,0.225,1.413,0c0.393-0.228,0.398-0.594,0.002-0.822l-6.978-4.029l1.351-0.785l6.978,4.029 c0.396,0.229,1.02,0.229,1.413,0c0.387-0.225,0.391-0.59-0.005-0.818l-6.978-4.029l1.345-0.781l6.979,4.029 c0.396,0.229,1.026,0.225,1.413,0c0.4-0.232,0.391-0.59-0.005-0.818l-6.978-4.029l1.357-0.789l15.374,8.876 c0.389,0.225,1.026,0.225,1.413,0c0.387-0.225,0.385-0.594-0.005-0.818l-15.374-8.876l1.345-0.781l6.978,4.029 c0.396,0.229,1.026,0.225,1.413,0c0.4-0.232,0.391-0.59-0.005-0.818l-6.979-4.029l1.358-0.789l6.978,4.029 c0.396,0.229,1.026,0.225,1.413,0c0.387-0.225,0.391-0.59-0.005-0.818l-6.978-4.029l1.351-0.785l6.978,4.029 c0.396,0.228,1.02,0.228,1.419-0.004c0.387-0.225,0.391-0.59-0.005-0.818l-6.978-4.029l1.345-0.781l6.979,4.029 c0.396,0.229,1.026,0.225,1.413,0c0.387-0.225,0.391-0.59-0.005-0.818l-6.979-4.029l1.351-0.785l15.374,8.876 c0.389,0.225,1.02,0.229,1.413,0c0.393-0.229,0.391-0.597,0.002-0.822l-15.374-8.876L291.183,313.96z"/>
          </g>
          <g>
            <path style="fill:#653A7A;" d="M164.181,395.849c0.396,0.229,0.391,0.594,0.005,0.818c-0.4,0.232-1.017,0.229-1.413,0 l-6.978-4.029l1.408-0.818L164.181,395.849z"/>
          </g>
          <g>
            <path style="fill:#653A7A;" d="M161.415,397.457c0.396,0.228,0.392,0.594,0.005,0.818c-0.387,0.225-1.017,0.229-1.413,0 l-6.979-4.029l1.408-0.818L161.415,397.457z"/>
          </g>
          <g>
            <path style="fill:#653A7A;" d="M158.662,399.056c0.396,0.229,0.392,0.594,0.005,0.818c-0.4,0.232-1.017,0.229-1.413,0 l-6.978-4.029l1.408-0.818L158.662,399.056z"/>
          </g>
          <g>
            <path style="fill:#653A7A;" d="M153.138,402.267c0.396,0.229,0.398,0.59-0.002,0.822c-0.387,0.225-1.017,0.228-1.413,0 l-6.979-4.029l1.415-0.822L153.138,402.267z"/>
          </g>
          <g>
            <path style="fill:#653A7A;" d="M150.378,403.871c0.396,0.229,0.392,0.593,0.005,0.818c-0.387,0.225-1.017,0.229-1.413,0 l-6.978-4.029l1.408-0.818L150.378,403.871z"/>
          </g>
          <g>
            <path style="fill:#653A7A;" d="M164.293,405.511c0.389,0.225,0.392,0.593,0.005,0.818c-0.387,0.225-1.023,0.225-1.413,0 l-15.374-8.876l1.408-0.818L164.293,405.511z"/>
          </g>
          <g>
            <path style="fill:#653A7A;" d="M147.619,405.474c0.396,0.228,0.391,0.593,0.005,0.818c-0.393,0.229-1.023,0.232-1.419,0.004 l-6.979-4.029l1.415-0.822L147.619,405.474z"/>
          </g>
          <g>
            <path style="fill:#653A7A;" d="M144.86,407.078c0.396,0.229,0.392,0.594,0.005,0.818c-0.393,0.229-1.017,0.229-1.413,0 l-6.978-4.029l1.408-0.818L144.86,407.078z"/>
          </g>
          <g>
            <path style="fill:#653A7A;" d="M150.496,413.529c0.389,0.225,0.391,0.594,0.004,0.818c-0.393,0.229-1.03,0.229-1.419,0.004 l-15.374-8.876l1.414-0.822L150.496,413.529z"/>
          </g>
        </g>
      </g>
    </g>
    <g>
      <rect x="260.079" y="137.869" style="fill:#494CBA;" width="21.162" height="148.394"/>
      <g>
        <g>
          <path style="fill:#FFFFFF;" d="M278.074,133.885c4.124,2.381,4.146,6.241,0.048,8.622c-4.092,2.378-10.755,2.378-14.879-0.003 c-4.125-2.381-4.146-6.241-0.054-8.619C267.287,131.504,273.95,131.504,278.074,133.885z"/>
        </g>
        <polygon style="fill:#FFFFFF;" points="260.079,137.869 270.659,107.317 281.241,137.869 &#9;&#9;&#9;"/>
      </g>
      <g>
        <g>
          <path style="fill:#494CBA;" d="M273.464,117.365c1.56,0.901,1.568,2.36,0.018,3.261c-1.548,0.899-4.068,0.899-5.628-0.001 c-1.56-0.901-1.568-2.36-0.021-3.26C269.384,116.465,271.904,116.465,273.464,117.365z"/>
        </g>
        <polygon style="fill:#494CBA;" points="266.658,118.872 270.66,107.317 274.662,118.872 &#9;&#9;&#9;"/>
      </g>
    </g>
    <g>
      <rect x="290.959" y="151.127" style="fill:#36D6C6;" width="21.162" height="148.394"/>
      <g>
        <g>
          <path style="fill:#FFFFFF;" d="M308.954,147.143c4.124,2.381,4.146,6.241,0.049,8.622c-4.092,2.378-10.755,2.378-14.879-0.003 c-4.124-2.381-4.146-6.241-0.054-8.619C298.167,144.762,304.83,144.762,308.954,147.143z"/>
        </g>
        <polygon style="fill:#FFFFFF;" points="290.959,151.127 301.539,120.575 312.121,151.127 &#9;&#9;&#9;"/>
      </g>
      <g>
        <g>
          <path style="fill:#36D6C6;" d="M304.344,130.623c1.56,0.901,1.568,2.36,0.018,3.261c-1.547,0.899-4.068,0.899-5.628-0.001 c-1.56-0.901-1.568-2.36-0.02-3.26C300.264,129.722,302.784,129.722,304.344,130.623z"/>
        </g>
        <polygon style="fill:#36D6C6;" points="297.538,132.13 301.54,120.575 305.542,132.13 &#9;&#9;&#9;"/>
      </g>
    </g>
    <g>
      <g>
        <g style="enable-background:new    ;">
          <path style="fill:#2FBAAC;" d="M234.545,112.365c-4.393-2.536-11.52-2.536-15.884,0L95.489,183.945l-0.578,203.791 l123.172-71.579c4.364-2.536,11.492-2.536,15.884,0c2.214,1.279,3.32,2.96,3.315,4.638l0.578-203.791 C237.865,115.325,236.759,113.644,234.545,112.365z"/>
          <g>
            <polygon style="fill:#36D6C6;" points="95.489,183.945 94.911,387.735 90.653,385.277 91.23,181.486 &#9;&#9;&#9;&#9;&#9;"/>
          </g>
          <g>
            <polygon style="fill:#36D6C6;" points="115.684,195.604 115.106,399.395 110.854,396.94 111.432,193.149 &#9;&#9;&#9;&#9;&#9;"/>
          </g>
          <path style="fill:#2FBAAC;" d="M238.855,124.025l-123.171,71.579l-0.578,203.791l123.171-71.58 c3.328-1.934,4.993-4.47,5.001-7.01l0.578-203.791C243.849,119.555,242.183,122.091,238.855,124.025z"/>
          <g>
            <path style="fill:#3EF7E5;" d="M238.776,109.907c6.742,3.893,6.778,10.226,0.079,14.118l-123.171,71.58l-4.252-2.455 l123.171-71.579c4.364-2.536,4.341-6.665-0.058-9.205c-4.393-2.536-11.52-2.536-15.884,0L95.489,183.945l-4.259-2.459 l123.172-71.579C221.1,106.014,232.034,106.014,238.776,109.907z"/>
          </g>
          <g>
            <path style="fill:#3EF7E5;" d="M238.776,109.907c6.742,3.893,6.778,10.226,0.079,14.118l-123.171,71.58l-4.252-2.455 l123.171-71.579c4.364-2.536,4.341-6.665-0.058-9.205c-4.393-2.536-11.52-2.536-15.884,0L95.489,183.945l-4.259-2.459 l123.172-71.579C221.1,106.014,232.034,106.014,238.776,109.907z"/>
          </g>
        </g>
      </g>
      <g>
        <g>
          <polygon style="fill:#2AA699;" points="213.019,189.281 213.087,213.234 151.418,248.839 151.35,224.885 &#9;&#9;&#9;&#9;"/>
        </g>
        <g>
          <polygon style="fill:#2AA699;" points="213.112,221.832 213.146,233.813 151.476,269.418 151.442,257.437 &#9;&#9;&#9;&#9;"/>
        </g>
        <g>
          <polygon style="fill:#2AA699;" points="233.335,161.458 233.356,168.978 130.959,228.097 130.938,220.577 &#9;&#9;&#9;&#9;"/>
        </g>
      </g>
      <g>
        <path style="fill:#FFFFFF;" d="M236.434,120.27c-0.58,0.48-1.39,1.04-2.5,1.69c-4.68,2.72-120.67,70.12-122.48,71.18l-11.33-6.64 l117.87-68.49c4.37-2.54,11.5-2.54,15.88-0.01C235.034,118.67,235.884,119.45,236.434,120.27z"/>
      </g>
      <polygon style="fill:#CBE6FF;" points="111.454,193.14 100.124,186.5 100.124,384.565 110.854,390.125 &#9;&#9;"/>
    </g>
    <g>
      <g style="enable-background:new    ;">
        <g>
          <polygon style="fill:#502E61;" points="238.697,398.144 238.662,410.739 226.824,403.905 226.86,391.31 &#9;&#9;&#9;&#9;"/>
        </g>
        <g>
          <polygon style="fill:#3D234A;" points="275.15,391.931 275.115,404.525 263.707,411.154 263.743,398.56 &#9;&#9;&#9;&#9;"/>
        </g>
        <g>
          <polygon style="fill:#3D234A;" points="251.62,405.605 251.584,418.199 240.177,424.829 240.212,412.234 &#9;&#9;&#9;&#9;"/>
        </g>
        <g>
          <polygon style="fill:#502E61;" points="240.212,412.234 240.177,424.829 227.254,417.368 227.29,404.774 &#9;&#9;&#9;&#9;"/>
        </g>
        <g>
          <polygon style="fill:#502E61;" points="263.467,412.445 263.431,425.039 251.584,418.199 251.62,405.605 &#9;&#9;&#9;&#9;"/>
        </g>
        <g>
          <polygon style="fill:#3D234A;" points="275.59,405.4 275.554,417.994 263.431,425.039 263.467,412.445 &#9;&#9;&#9;&#9;"/>
        </g>
        <g>
          <polygon style="fill:#653A7A;" points="275.15,391.931 263.743,398.56 275.59,405.4 263.467,412.445 251.62,405.605 &#10;&#9;&#9;&#9;&#9;&#9;240.212,412.234 227.29,404.774 238.697,398.144 226.86,391.31 238.983,384.265 250.82,391.099 262.228,384.47 &#9;&#9;&#9;&#9;"/>
        </g>
      </g>
    </g>
    <g>
      <g style="enable-background:new    ;">
        <g>
          <polygon style="fill:#CC0044;" points="249.715,318.153 278.656,301.334 270.566,320.623 241.624,337.442 &#9;&#9;&#9;&#9;"/>
        </g>
        <g>
          <polygon style="fill:#E64E81;" points="260.899,291.229 289.841,274.41 313.044,287.806 284.102,304.625 &#9;&#9;&#9;&#9;"/>
        </g>
        <g>
          <polygon style="fill:#CC0044;" points="272.599,263.425 301.54,246.606 289.841,274.41 260.899,291.229 &#9;&#9;&#9;&#9;"/>
        </g>
        <g>
          <polygon style="fill:#E64E81;" points="253.274,206.711 282.216,189.892 321.798,212.745 292.856,229.563 &#9;&#9;&#9;&#9;"/>
        </g>
        <g>
          <polygon style="fill:#CC0044;" points="292.856,229.563 321.798,212.745 373.615,380.118 344.673,396.937 &#9;&#9;&#9;&#9;"/>
        </g>
        <g>
          <path style="fill:#DA1C5C;" d="M292.856,229.563l51.817,167.373l-41.627-24.033l-7.948-28.548l-45.383-26.202l-8.09,19.288 l-40.945-23.64l52.595-107.091L292.856,229.563z M260.899,291.229l23.203,13.396l-11.504-41.2L260.899,291.229"/>
        </g>
      </g>
    </g>
    <g>
      <g style="enable-background:new    ;">
        <g>
          <path style="fill:#494CBA;" d="M206.253,266.768l15.935,9.261c-2.163-1.257-4.977-1.622-8.352-1.095l-15.935-9.261 C201.276,265.146,204.091,265.511,206.253,266.768z"/>
        </g>
        <path style="fill:#494CBA;" d="M201.447,295.103l-15.936-9.261c0.908,0.528,1.365,1.673,1.37,3.42 c0.012,4.24-2.649,8.016-7.979,11.093l-14.551,8.401l15.935,9.261l14.551-8.401c5.33-3.077,7.991-6.853,7.979-11.093 C202.812,296.776,202.355,295.631,201.447,295.103z"/>
        <path style="fill:#494CBA;" d="M198.071,266.291l-15.936-9.261c0.856,0.498,1.27,1.581,1.274,3.213 c0.011,4.008-2.443,7.544-7.876,10.682l-11.271,6.507l15.936,9.261l11.271-6.508c5.434-3.137,7.888-6.674,7.876-10.681 C199.341,267.872,198.927,266.788,198.071,266.291z"/>
        <g>
          <polygon style="fill:#393DB5;" points="156.563,351.173 140.628,341.913 140.394,259.485 156.329,268.746 &#9;&#9;&#9;&#9;"/>
        </g>
        <g>
          <path style="fill:#2E3192;" d="M213.837,274.934c8.412-1.314,13.346,2.915,13.373,12.689 c0.041,14.365-10.485,28.816-30.268,40.238l-40.38,23.313l-0.234-82.428l38.33-22.13c19.783-11.421,29.03-7.682,29.065,4.805 C223.746,259.071,220.38,267.388,213.837,274.934z M194.838,309.616c5.33-3.077,7.991-6.853,7.979-11.093 c-0.012-4.24-2.686-4.936-8.016-1.859l-14.551,8.401l0.037,12.952L194.838,309.616 M180.163,274.444l0.035,12.248l11.271-6.508 c5.434-3.137,7.888-6.674,7.876-10.681c-0.011-4.001-2.477-4.704-7.911-1.567L180.163,274.444"/>
        </g>
        <path style="fill:#494CBA;" d="M203.215,231.771c-4.574-2.658-12.643-1.256-24.492,5.585l-38.33,22.13l15.936,9.261l38.33-22.13 c11.848-6.841,19.917-8.243,24.492-5.585L203.215,231.771z"/>
      </g>
    </g>
    <g>
      <g style="enable-background:new    ;">
        <g>
          <path style="fill:#1DC2B1;" d="M283.212,354.773l14.881-8.648c-1.745,1.014-2.755,3.393-2.765,7.032 c-0.02,7.095,3.774,13.797,9.431,17.063c3.015,1.741,5.477,1.796,7.583,0.572l-14.882,8.648 c-2.106,1.224-4.568,1.169-7.583-0.572c-5.657-3.266-9.451-9.969-9.431-17.063C280.458,358.166,281.468,355.787,283.212,354.773 z"/>
        </g>
        <g>
          <path style="fill:#5CFFEF;" d="M320.521,384.875l-14.882,8.648c0.585-0.34,1.134-0.745,1.647-1.216l14.881-8.648 C321.655,384.13,321.106,384.535,320.521,384.875z"/>
        </g>
        <g>
          <polygon style="fill:#5CFFEF;" points="298.716,378.527 313.597,369.879 322.168,383.659 307.286,392.307 &#9;&#9;&#9;&#9;"/>
        </g>
        <path style="fill:#5CFFEF;" d="M304.166,333.961c-6.809-3.931-12.673-4.558-16.715-2.209l-14.882,8.648 c4.043-2.349,9.906-1.722,16.715,2.209c7.905,4.564,14.124,11.475,18.087,19.733l14.882-8.648 C318.29,345.436,312.071,338.525,304.166,333.961z"/>
        <g>
          <path style="fill:#36D6C6;" d="M289.284,342.609c7.905,4.564,14.124,11.475,18.087,19.733l-8.621,3.855 c-2.352-4.809-5.172-8.429-8.806-10.527c-5.657-3.266-9.476-0.959-9.496,6.136c-0.02,7.095,3.774,13.797,9.431,17.063 c3.634,2.098,6.466,1.747,8.837-0.341l8.57,13.78c-3.996,3.669-10.234,3.388-18.139-1.176 c-12.979-7.494-22.469-23.002-22.428-37.253S276.305,335.115,289.284,342.609z"/>
        </g>
      </g>
    </g>
    <g>
      <g>
        <g style="enable-background:new    ;">
          <g>
            <polygon style="fill:#DE7068;" points="361.001,244.666 367.267,241.024 367.12,293.101 360.854,296.742 &#9;&#9;&#9;&#9;&#9;"/>
          </g>
          <polygon style="fill:#FFBCB8;" points="362.113,238.049 356.965,235.076 350.699,238.718 355.847,241.69 361.001,244.666 &#10;&#9;&#9;&#9;&#9;&#9;367.267,241.024 &#9;&#9;&#9;&#9;"/>
          <g>
            <polygon style="fill:#FF8178;" points="361.001,244.666 360.854,296.742 355.699,293.766 350.551,290.794 350.699,238.718 &#10;&#9;&#9;&#9;&#9;&#9;&#9;355.847,241.69 &#9;&#9;&#9;&#9;&#9;"/>
          </g>
        </g>
      </g>
      <g>
        <g style="enable-background:new    ;">
          <g>
            <polygon style="fill:#59336B;" points="359.781,219.14 364.794,216.227 364.68,240.327 359.667,243.241 &#9;&#9;&#9;&#9;&#9;"/>
          </g>
          <g>
            <path style="fill:#3D234A;" d="M366.246,216.369l-5.013,2.913c0.364-0.212,0.59-0.661,0.592-1.301l5.013-2.913 C366.837,215.708,366.611,216.158,366.246,216.369z"/>
          </g>
          <g>
            <polygon style="fill:#59336B;" points="361.846,210.656 366.859,207.743 366.839,215.068 361.826,217.981 &#9;&#9;&#9;&#9;&#9;"/>
          </g>
          <path style="fill:#653A7A;" d="M361.724,198.004c-6.403-3.697-12.374-9.255-17.41-15.814 c-6.407-8.338-11.308-18.302-13.685-28.109c-1.057-4.314-1.613-8.601-1.601-12.717c0.029-10.339,3.68-17.614,9.567-21.035 l-5.013,2.913c-5.887,3.421-9.538,10.696-9.567,21.035c-0.012,4.116,0.545,8.403,1.601,12.717 c2.377,9.807,7.279,19.771,13.685,28.109c5.036,6.56,11.007,12.117,17.41,15.814c9.121,5.266,17.382,5.756,23.347,2.289 l5.013-2.913C379.106,203.759,370.845,203.269,361.724,198.004z"/>
          <path style="fill:#653A7A;" d="M361.958,115.441c-10.848-6.263-20.678-6.844-27.778-2.718l-5.013,2.913 c7.099-4.126,16.93-3.545,27.778,2.718c21.565,12.45,38.991,42.634,38.921,67.413c-0.035,12.303-4.378,20.955-11.382,25.025 l5.013-2.913c7.003-4.07,11.347-12.722,11.382-25.025C400.949,158.074,383.523,127.891,361.958,115.441z"/>
          <g>
            <path style="fill:#3D234A;" d="M356.945,118.354c21.565,12.45,38.991,42.634,38.921,67.413 c-0.065,22.77-14.888,33.035-34.02,24.889l-0.021,7.325c-0.004,1.291-0.92,1.807-2.044,1.159l-0.114,24.101l-3.071-1.773 l-3.065-1.77l0.068-24.127c-1.169-0.675-2.08-2.246-2.077-3.538l0.021-7.325c-19.121-13.941-33.832-41.256-33.768-64.027 C317.846,115.902,335.387,105.907,356.945,118.354z M356.711,200.917c18.125,10.464,32.857,2.069,32.916-18.758 c0.021-7.358-1.793-15.278-4.956-22.918c-4.009-9.697-10.186-18.928-17.512-25.921c-3.215-3.084-6.659-5.726-10.235-7.791 c-18.119-10.461-32.852-2.065-32.911,18.748c-0.012,4.116,0.545,8.403,1.601,12.717c2.377,9.807,7.279,19.771,13.685,28.109 C344.337,191.662,350.308,197.22,356.711,200.917"/>
          </g>
        </g>
      </g>
      <g style="opacity:0.54;">
        <path style="fill:#CBE6FF;" d="M389.632,182.155c-0.027,9.024-2.809,15.719-7.432,19.542c-5.939,3.272-14.065,2.712-23.027-2.463 c-6.401-3.699-12.376-9.255-17.408-15.816c-6.41-8.339-11.309-18.297-13.692-28.103c-1.049-4.312-1.609-8.606-1.6-12.723 c0.027-9.015,2.801-15.692,7.415-19.524c5.939-3.272,14.074-2.712,23.036,2.463c3.574,2.063,7.024,4.703,10.233,7.788 c7.326,6.997,13.505,16.225,17.515,25.925C387.836,166.881,389.649,174.802,389.632,182.155z"/>
      </g>
    </g>
    <g>
      <polygon style="fill:#DA1C5C;" points="212.647,125.851 188.973,139.563 200.473,146.396 224.711,132.688 &#9;&#9;"/>
      <polygon style="fill:#A11544;" points="224.711,132.688 200.473,146.396 200.473,214.65 212.787,194.017 224.598,200.854 &#9;&#9;"/>
    </g>
    <g>
      <line style="fill:none;stroke:#3D234A;stroke-width:2;stroke-linecap:round;stroke-linejoin:round;stroke-miterlimit:10;" x1="298.577" y1="163" x2="298.577" y2="220.247"/>
      <g>
        <polygon style="fill:#DA1C5C;" points="336.818,183.277 325.837,181.872 336.79,193.14 297.244,170.308 297.272,160.445 &#9;&#9;&#9;"/>
      </g>
    </g>
    <g>
      <g style="enable-background:new    ;">
        <g>
          <path style="fill:#FF8178;" d="M231.473,361.668l-7.048-4.096c0.333,0.193,0.72,0.123,1.107-0.101l7.048,4.096 C232.194,361.79,231.806,361.861,231.473,361.668z"/>
        </g>
        <g>
          <path style="fill:#FF8178;" d="M226.612,348.083l7.048,4.096c0.546,0.317,0.944,1.344,0.95,3.564 c0.01,3.58-1.008,5.234-2.03,5.824l-7.048-4.096c1.021-0.59,2.04-2.243,2.03-5.823 C227.556,349.427,227.158,348.4,226.612,348.083z"/>
        </g>
        <path style="fill:#FF968F;" d="M231.688,341.595c-1.551-0.901-3.723-0.607-6.198,0.821c-4.929,2.846-8.634,8.784-8.615,15.402 c0.009,3.311,0.931,5.371,2.459,6.259l7.048,4.096c-1.528-0.888-2.449-2.948-2.459-6.259c-0.019-6.618,3.686-12.556,8.615-15.402 c2.475-1.429,4.647-1.723,6.198-0.821L231.688,341.595z"/>
        <g>
          <path style="fill:#DE7068;" d="M232.538,346.512c4.923-2.842,8.649-1.194,8.668,5.423c0.019,6.676-3.686,12.556-8.609,15.398 c-4.929,2.846-8.655,1.257-8.674-5.419C223.904,355.296,227.609,349.358,232.538,346.512z M232.581,361.567 c1.021-0.59,2.04-2.243,2.03-5.824c-0.01-3.573-1.035-4.054-2.056-3.464c-1.021,0.59-2.04,2.251-2.03,5.824 C230.535,361.682,231.559,362.156,232.581,361.567"/>
        </g>
        <g>
          <polygon style="fill:#DE7068;" points="227.746,332.164 235.599,327.63 213.499,377.823 205.646,382.357 &#9;&#9;&#9;&#9;"/>
        </g>
        <g>
          <polygon style="fill:#FF968F;" points="227.746,332.164 220.698,328.069 228.551,323.535 235.599,327.63 &#9;&#9;&#9;&#9;"/>
        </g>
        <g>
          <polygon style="fill:#FF8178;" points="205.646,382.357 198.598,378.261 220.698,328.069 227.746,332.164 &#9;&#9;&#9;&#9;"/>
        </g>
        <g>
          <path style="fill:#FF8178;" d="M207.587,357.812l-7.048-4.096c0.334,0.194,0.723,0.124,1.11-0.1 c1.022-0.59,2.04-2.251,2.03-5.824c-0.006-2.226-0.405-3.254-0.951-3.572l7.048,4.096c0.546,0.317,0.945,1.345,0.951,3.572 c0.01,3.573-1.008,5.234-2.03,5.824C208.309,357.936,207.921,358.006,207.587,357.812z"/>
        </g>
        <g>
          <path style="fill:#FF968F;" d="M202.499,364.317l-7.048-4.096c-1.529-0.888-2.451-2.948-2.46-6.257 c-0.019-6.625,3.686-12.556,8.615-15.401c2.475-1.429,4.648-1.725,6.199-0.823l7.048,4.096 c-1.551-0.901-3.724-0.606-6.199,0.824c-4.929,2.846-8.634,8.777-8.615,15.401C200.048,361.368,200.97,363.428,202.499,364.317z "/>
        </g>
        <g>
          <path style="fill:#DE7068;" d="M217.322,348.081c0.019,6.669-3.686,12.556-8.609,15.398c-4.929,2.846-8.655,1.249-8.674-5.419 c-0.019-6.625,3.686-12.556,8.615-15.401C213.577,339.816,217.303,341.456,217.322,348.081z M206.634,354.252 c0.01,3.573,1.041,4.05,2.063,3.461c1.022-0.59,2.04-2.251,2.03-5.824c-0.01-3.58-1.035-4.061-2.056-3.472 C207.649,349.007,206.624,350.672,206.634,354.252"/>
        </g>
      </g>
    </g>
    <g>
      <g style="enable-background:new    ;">
        <g>
          <polygon style="fill:#3EF7E5;" points="305.548,286.821 313.291,282.321 339.323,297.351 331.58,301.851 &#9;&#9;&#9;&#9;"/>
        </g>
        <g>
          <polygon style="fill:#2FBAAC;" points="331.58,301.851 339.323,297.351 339.295,307.322 331.552,311.822 &#9;&#9;&#9;&#9;"/>
        </g>
        <g>
          <polygon style="fill:#36D6C6;" points="305.52,296.792 305.548,286.821 331.58,301.851 331.552,311.822 &#9;&#9;&#9;&#9;"/>
        </g>
      </g>
      <g style="enable-background:new    ;">
        <g>
          <polygon style="fill:#3EF7E5;" points="305.591,271.57 313.335,267.07 339.367,282.1 331.623,286.6 &#9;&#9;&#9;&#9;"/>
        </g>
        <g>
          <polygon style="fill:#2FBAAC;" points="331.623,286.6 339.367,282.1 339.338,292.079 331.595,296.579 &#9;&#9;&#9;&#9;"/>
        </g>
        <g>
          <polygon style="fill:#36D6C6;" points="305.591,271.57 331.623,286.6 331.595,296.579 305.563,281.549 &#9;&#9;&#9;&#9;"/>
        </g>
      </g>
    </g>
  </g>
</svg>